<?xml version="1.0" encoding="utf-8"?>
<!-- Generator: Adobe Illustrator 25.0.0, SVG Export Plug-In . SVG Version: 6.00 Build 0)  -->
<svg version="1.1" id="Layer_1" xmlns="http://www.w3.org/2000/svg" xmlns:xlink="http://www.w3.org/1999/xlink" x="0px" y="0px"
	 viewBox="0 0 100 115" style="enable-background:new 0 0 100 115;" xml:space="preserve">
<style type="text/css">
	.st0{fill:#2F645F;stroke:#FFFFFF;stroke-width:0.75;stroke-miterlimit:10;}
</style>
<g>
	<g>
		<g>
			<path class="st0" d="M2.66,115.1c8.96-5.33,17.71-11.33,25.34-18.22c4.76-3.44,8.89-7.2,11.97-12.11
				c0.89-1.42,1.74-2.88,2.55-4.36c2.53-3.78,4.71-7.77,6.42-11.99c1.08,0.03,2.18-0.04,3.24-0.15c0.68-0.07,1.36-0.14,2.03-0.2
				c16.31,3.01,33.04-1.39,45.22-11.92c0.79-0.69,0.36-1.9-0.84-1.79c-13.15,1.15-34.35-2.66-46.72,4.84
				c0.53-2.33,0.91-4.69,1.11-7.06c0.71-3.07,1.3-6.14,1.79-9.2c16.08-8.9,25.49-24.83,24.08-41.88c-0.08-1.02-1.84-0.57-2.42-0.24
				c-8.48,4.93-17.49,10.25-22.95,18.09c-4.55,6.52-4.53,13.28-4.09,20.26c-0.34,0.57-0.25,1.27,0.12,1.78
				c0.2,2.85,0.41,5.74,0.36,8.67c0,0.08-0.01,0.16-0.01,0.24c-0.34,1.57-0.71,3.14-1.11,4.7C44.4,43.02,31.33,34.96,19.03,29.96
				c-0.88-0.36-2.73,0.35-2.83,1.28c-1.03,8.95,3.03,21.24,10.62,27.28c1.45,1.15,3.25,2.3,5.25,3.32c0.77,0.52,1.56,1.02,2.38,1.49
				c2.63,1.99,5.7,3.08,8.96,3.2c0.44,0.29,0.87,0.58,1.29,0.83c-2,5.2-4.41,10.26-7.29,15.06c-4,6.67-10.01,11-16.65,15.45
				c-6.74,4.52-13.49,9.04-20.23,13.56c-1.2,0.8-0.67,2.14,0.34,2.63C-0.63,115.12,1.28,115.92,2.66,115.1z M62.15,35.27
				c0.67-0.75,1.31-1.52,1.88-2.34c1.35-1.32,2.59-2.72,3.72-4.22c0.29-0.28,0.57-0.57,0.85-0.86C66.77,30.52,64.61,33,62.15,35.27z
				"/>
		</g>
	</g>
</g>
</svg>
