<?xml version="1.0" encoding="utf-8"?>
<!-- Generator: Adobe Illustrator 25.4.1, SVG Export Plug-In . SVG Version: 6.00 Build 0)  -->
<svg version="1.1" id="Layer_1" xmlns="http://www.w3.org/2000/svg" xmlns:xlink="http://www.w3.org/1999/xlink" x="0px" y="0px"
	 viewBox="0 0 200 200" style="enable-background:new 0 0 200 200;" xml:space="preserve">
<style type="text/css">
	.st0{fill:#E49A4D;}
	.st1{fill:#653C1C;}
</style>
<g id="drinks" transform="translate(-255.684 -60.842)">
	<path id="Path_294" class="st0" d="M382.5,126.3c0.1-2.1-0.3-4.2-1-6.1c-1.6-4-5.9-6.2-10-5.2c-0.2-0.1-0.4-0.3-0.6-0.4
		c-4.3-3.9-10.5-6-15.8-4.2c-3.4,1.1-5,3.3-6.9,5.8c-1.7,0.7-3.4,1.6-5.1,2.6c-5.6,0.4-10.7,2.5-13.7,7.1c-2.5,2.1-4.5,4.6-6.2,7.4
		c-3.1,5.4,1,11,6.6,11.5c8.3,0.8,16.7,0.8,25-0.1c8.1-0.9,16-2,24.1-1.1c3.4,0.4,6.4-2.7,7.4-5.6
		C387.9,133.1,385.9,129.1,382.5,126.3z"/>
	<g id="Group_169" transform="translate(255.684 60.842)">
		<path id="Path_295" class="st1" d="M109.2,136.2c0-0.1,0-0.2,0-0.3c0-0.1-0.1-0.2-0.2-0.2c-0.1-0.1-0.2-0.3-0.3-0.4
			c-0.4-0.8-1.1-1.5-2-1.7c-0.1-0.1-0.2-0.2-0.3-0.3c-0.1-0.2-0.3-0.3-0.5-0.5c0,0,0,0-0.1,0c-0.3-0.5-0.7-0.9-1.2-1.2
			c-0.5-0.3-1.1-0.5-1.7-0.5c-0.1,0-0.1,0-0.2,0c-0.1,0-0.2,0-0.2-0.1c-1.4-0.5-3,0.1-4.3,0.6c-0.8,0.3-1.6,0.6-2.3,1.1
			c-0.3,0.2-0.6,0.4-0.8,0.7c-0.2,0.2-0.4,0.4-0.5,0.6c-1.5,1.4-2.6,3.1-3.3,5c-0.4,1-0.6,2.1-0.8,3.2c-0.1,0.7-0.1,1.5,0.2,2.2
			c0,0.8,0.4,1.6,1.1,2.1c0,0,0.1,0.1,0.1,0.1c0,0,0,0.1,0.1,0.1l0,0c0.3,0.3,0.6,0.5,0.9,0.7c0.6,0.2,1.1,0.4,1.7,0.4
			c0.5,0,1,0,1.5,0c2.8,0.7,6.5-1.2,8.6-2.8c2.3-1.7,5.6-5.2,4.7-8.3C109.3,136.7,109.3,136.5,109.2,136.2z M107.8,135.2
			C107.8,135.1,107.8,135.1,107.8,135.2L107.8,135.2C107.8,135.2,107.8,135.2,107.8,135.2L107.8,135.2z M106.8,139.7
			c-0.1,0.2-0.3,0.5-0.4,0.6c0,0,0,0,0-0.1l0,0C106.5,140.1,106.7,139.9,106.8,139.7L106.8,139.7z M104.5,140.5c0,0.1,0,0.1,0,0.2
			c0,0-0.1,0.1-0.1,0.1C104.3,140.7,104.4,140.6,104.5,140.5L104.5,140.5z M95.8,139.4c0-0.1,0-0.1,0-0.2c0.1-0.1,0.2-0.2,0.2-0.4
			l0,0l0,0L95.8,139.4z M97.8,137.9c0.1-0.1,0.3-0.3,0.4-0.4c0,0,0,0,0,0c-0.1,0.2-0.3,0.4-0.4,0.7C97.8,138.1,97.8,138,97.8,137.9
			L97.8,137.9z M101,135.5l-0.2,0.1C100.9,135.6,100.9,135.5,101,135.5C101,135.5,101,135.5,101,135.5L101,135.5z M98,145.1
			c0.2-0.1,0.4-0.3,0.6-0.4c0,0.1-0.1,0.2-0.1,0.2c0,0-0.1,0.1-0.1,0.1C98.2,145,98.1,145,98,145.1L98,145.1z M99.5,141.5
			c-0.5,1.5-1.8,2.7-3.3,3.1c-0.4,0.1-0.9,0.1-1.3,0.2c-0.3,0.1-0.6,0.1-0.9,0.1c0.1,0,0.2-0.1,0.3-0.1h0c-0.1,0-0.2,0-0.4,0
			c-0.1,0-0.1,0-0.2-0.1l0,0c0,0-0.1-0.1-0.1-0.2c0-0.1,0-0.2,0.2-0.2c0,0,0,0,0.1,0c0.1,0,0.2,0,0.3,0l0,0c0.2,0,0.5,0,0.7,0
			c0.1,0,0.1,0,0.2,0h0c0,0,0,0,0.1,0c0.1-0.1,0.3-0.2,0.4-0.3c0.1,0,0.1-0.1,0.2-0.1c0.1-0.1,0.2-0.2,0.3-0.3
			c0.1-0.1,0.1-0.1,0.2-0.2c0.5-0.5,0.9-1,1.1-1.6c0.2-0.5,0.3-1.1,0.5-1.6c0.1-0.2,0.1-0.3,0.2-0.5c0.1-0.1,0.1-0.3,0.2-0.4
			c0.5-0.8,1.1-1.6,1.8-2.3c0.5-0.5,1-0.9,1.6-1.3c0.2-0.2,0.4-0.4,0.6-0.6c0.2-0.1,0.3-0.3,0.5-0.4c0.4-0.2,0.8-0.4,1.2-0.4h0
			c0.1,0,0.3,0,0.4,0l0,0c0.1,0,0.2,0,0.3,0c0,0,0,0,0,0l0,0c0.1,0.1,0.2,0.2,0.1,0.3c-0.1,0.1-0.2,0.1-0.3,0.1c-0.1,0-0.2,0-0.3,0
			c0,0-0.1,0.1-0.1,0.1l0,0c0,0,0,0,0,0l0.1-0.1c0,0-0.1,0-0.1,0l0,0c-0.3,0-0.5,0.1-0.8,0.2c0,0,0,0-0.1,0
			c-0.1,0.1-0.2,0.1-0.3,0.2c0,0,0,0-0.1,0c0,0,0,0,0,0v0c-0.4,0.4-0.8,0.8-1.1,1.3l0,0c0,0-0.1,0.1-0.1,0.1
			c-0.1,0.1-0.1,0.2-0.2,0.3c0,0.1-0.1,0.1-0.1,0.2c0,0,0,0,0,0.1l0,0c-0.1,0.1-0.1,0.2-0.2,0.3C100.3,139,99.8,140.3,99.5,141.5
			L99.5,141.5z M103.5,134.1C103.5,134,103.5,134,103.5,134.1c0.1,0,0.1,0,0.1,0C103.6,134,103.5,134.1,103.5,134.1L103.5,134.1z"/>
		<path id="Path_296" class="st1" d="M72.2,94.3c0-0.9-1.4-0.9-1.4,0c0.2,5.5,0.8,11,2,16.4c0.2,0.9,1.5,0.5,1.3-0.4
			C73,105.1,72.3,99.7,72.2,94.3z"/>
		<path id="Path_297" class="st1" d="M72.6,103.3l0.4,5.4c0.1,0.9,1.4,0.9,1.4,0l-0.4-5.4C73.9,102.5,72.6,102.5,72.6,103.3z"/>
		<path id="Path_298" class="st1" d="M121.7,171.5c0.3,3.5-0.2,6.9-1.3,10.2c-0.3,0.8,1,1.2,1.3,0.4c1.2-3.4,1.6-7,1.4-10.6
			C123,170.6,121.6,170.6,121.7,171.5z"/>
		<path id="Path_299" class="st1" d="M125.8,165.2c0.5,6.5-0.2,13-2,19.3c-0.1,0.4,0.1,0.7,0.5,0.8c0.3,0.1,0.7-0.1,0.8-0.5
			c1.9-6.4,2.6-13,2.1-19.7C127.1,164.3,125.8,164.3,125.8,165.2z"/>
		<path id="Path_300" class="st1" d="M142.6,76.1c-0.9-1.3-2.3-1.8-3.7-2.3c0,0,0-0.1,0-0.1c0-0.1-0.2-0.3-0.3-0.3
			c0.1-6.1-2.4-11.7-6.5-16.8c-2.4-3-4.8-5.3-8.7-6.9l-0.2-0.1c-6-3.3-12.7-5.4-19.6-6c-0.2-5.6,0-11.2,0.4-16.7
			c0.2-2.7,0.3-5.7,1-8.2c0.7-2.5,5.3-3.4,7.6-4.2c4.8-1.7,9.6-3.2,14.5-4.5c0.3,0,0.5-0.1,0.8-0.2c1.1-0.7,1.1-2.8,0.9-3.8
			c-0.2-1.8-1.1-3.4-2.5-4.6c-0.2-0.2-0.6-0.2-0.8,0c0,0,0,0,0,0c-0.1,0-0.1,0-0.2,0c-6.8,1.9-13.8,3.5-20.6,5.8
			c-2.4,0.8-5.9,1.8-7.7,3.6c-0.6,0.6-0.9,1.5-1,2.3c-0.2,1.7-0.3,3.5-0.4,5.2C95,26.5,95,34.9,94.8,43.3c-6,0.3-11.9,1.7-17.4,4.2
			c-8.2,3.9-14.4,10.6-17,18.2c-1.1,2.9-1.7,6-1.8,9.1c-2.3,0.1-3.5,2.7-3.8,4.7c-0.6,2.9,1.1,5.8,3.9,6.9c0.7,0.3,1.4,0.5,2.1,0.6
			l1.4,16.1c0.7,11,0.8,22,1.1,33.1c-0.1,3.3,0,6.6,0.2,10c0.2,8.1,0.7,16.2,1.5,24.3c0.3,4.3,1,8.6,1.9,12.9c0,0,0,0,0,0
			c0,0.3,0.1,0.6,0.1,0.9c0.1,1.5,0.6,3,1.4,4.3c0,0.1,0.1,0.2,0.2,0.3c0.9,1.2,2,2.2,3.4,3c2,1.2,4.1,2.2,6.3,3
			c2.4,1.3,4.9,2.1,7.6,2.5c6.4,1,12.9,1.2,19.4,0.6c3.2-0.5,6.4-1.2,9.5-2.1c3.2-0.9,6.5-1.6,9.6-2.6c4.4-1.4,5.5-5.2,5.9-9.2
			c0.7-3,0.7-6.4,0.9-9.4c0.7-7.6,1.4-15.2,2.1-22.8l2.5-27c1.5-13.4,2.8-26.8,3.1-40.3c2.2-0.9,4.1-2.2,4.5-4.7
			C143.7,78.7,143.3,77.2,142.6,76.1z M127.3,4.6c0.2,0.5,0.8,2.7,0.2,3.2c-1,0.9-1.3-1.6-1.3-2.1c-0.2-1.1-0.3-2.2-0.2-3.3
			C126.6,3,127,3.8,127.3,4.6z M104.2,45.3c0.7,0.1,1.3,0.2,1.9,0.3c4,0.7,8,1.8,11.8,3.2c1.3,0.5,2.6,0.9,3.9,1.4
			c6.4,3.6,11.4,8.7,13.8,15.2c0.9,2.5,1.4,5.1,1.4,7.7c0,0.6,0,1.2-0.1,1.8c-0.1,0.5-0.3,0.9-0.5,1.4c-0.7,0.3-1.4,0.6-2.1,0.8
			c-0.7,0.1-1.5,0.3-2.2,0.4c-0.2,0-0.4,0-0.6,0.1c0.7-2.5-1.5-4.2-3.9-5.2c0.4-3.4-2.1-5.6-5.1-7c0.8-3.8,0.1-8.4-4-10.2
			c-1.9-0.7-3.9-0.9-5.9-0.6c0,0,0-0.1,0-0.1c-0.8-1.2-2-2.1-3.4-2.5c-2-0.8-3.6-1.2-4.8-3.1c-0.2-0.3-0.4-0.6-0.6-0.9
			C104.5,47.1,104.6,46.1,104.2,45.3L104.2,45.3z M100.1,75.4c5.6-1,11.1-2.3,16.7-2.8c2.4-0.2,4.8-0.3,7.2-0.1
			c2.4,0.2,7.9,1.7,6.3,5c-1.2,0.1-2.4,0.1-3.5,0.2c-3,0.3-6.1,0.5-9.1,0.7c-6.5,0.4-13.1,0.8-19.6,1C92,79.7,85.8,79.3,79.6,79
			c-3-0.2-6-0.4-9-0.6C80.5,77.8,90.4,77.2,100.1,75.4z M67.9,77.5c0.7-2.2,4-3.9,6-4.7c2.5-0.9,5-1.6,7.6-1.9
			c5.3-0.9,10.4-2.2,15.6-3.5c5.2-1.3,10.6-2.8,16-2.8c4.3,0,14,1.5,13.5,7.4c-0.6-0.2-1.3-0.3-1.9-0.4c-5.8-0.7-12.1,0.4-17.8,1.5
			c-6.6,1.3-13.2,2.5-20,3.2C80.5,76.7,74.2,77.1,67.9,77.5L67.9,77.5z M104.1,50.3c1.8,2.4,5.8,1.9,7.4,4.4c-2.5,0.6-5,1.4-7.4,2.4
			c-0.1-2.5-0.3-5-0.4-7.5C103.8,49.8,104,50,104.1,50.3L104.1,50.3z M124.8,2.5c0,2,0.3,4,0.9,6c-2.9-1.4-5.8-2.7-8.8-3.9
			C119.6,3.9,122.2,3.2,124.8,2.5L124.8,2.5z M114.3,5.3c0,0.2,0.1,0.3,0.3,0.4c1.7,0.9,3.5,1.8,5.2,2.7c0.7,0.3,1.4,0.7,2.1,1
			l0.9,0.5c-1.1,0.3-2.1,0.6-3.2,1c-0.1,0-0.1,0-0.2-0.1c-2.1-0.4-3.8-1.6-5.8-2.4c-1-0.4-2.1-0.6-3.1-0.9c-0.5-0.2-1-0.5-1.5-0.7
			C110.8,6.3,112.5,5.8,114.3,5.3z M101.4,9.4c1.4-0.6,2.7-1.1,4.1-1.5c0,0,0.1,0.1,0.2,0.1c1.9,0.9,3.9,1.7,5.8,2.5
			c1.3,0.6,2.7,1.2,4.1,1.7c-1.2,0.4-2.5,0.8-3.7,1.3h0c-2.8-1.1-5.8-1.8-8.8-2.3c-0.9-0.2-2.4-0.7-3.7-0.9
			C100.2,9.9,100.9,9.6,101.4,9.4z M96.8,16.7c0.1-1.3,0-3,0.4-4.3l1.4,0.2c0.4,0.2,0.8,0.3,1.3,0.4c2.7,0.8,5.4,1.4,8.2,1.8l0,0
			c-0.6,0.2-1.2,0.5-1.8,0.7c-0.7,0.2-1.3,0.6-1.8,1.1c-0.1,0-0.2,0-0.3,0l-7.6,2.9C96.7,18.6,96.7,17.7,96.8,16.7L96.8,16.7z
			 M96.5,22.2l7-1.9c0,0,0,0,0.1,0c-0.2,1-0.3,2-0.4,3c-0.1,0-0.1,0-0.2,0.1l-6.7,4.2C96.3,25.7,96.4,23.9,96.5,22.2L96.5,22.2z
			 M96.2,30.6c2.3-1.4,4.6-2.9,6.7-4.6c-0.2,1.9-0.3,3.7-0.4,5.6c0,0-0.1,0-0.1,0c-2,1.3-4.4,2-6.3,3.5
			C96.1,33.6,96.2,32.1,96.2,30.6L96.2,30.6z M102.5,46.8c-0.2,0.3-0.5,0.4-0.8,0.5c-0.5,0-0.9,0-1.4,0c-1.1,0-2.1-0.1-3.2-0.1
			c0.5-0.2,0.9-0.5,1.3-0.9c0.4-0.4,0.8-0.7,1.2-1c0.2-0.1,0.4-0.3,0.6-0.4c0.7,0.1,1.5,0.1,2.2,0.2
			C102.5,45.7,102.5,46.3,102.5,46.8L102.5,46.8z M96,38.4c0.1,0,0.1,0,0.2-0.1c2.1-1,4.2-2.1,6.2-3.3c0,1.6,0,3.3,0,4.9
			c-0.1,0-0.2,0.1-0.3,0.1c-1.4,1.1-2.9,2.2-4.5,3.1c-0.5,0-1.1,0-1.6,0C95.9,41.6,96,40,96,38.4L96,38.4z M95.7,48.2
			c0.1,0,0.2,0,0.4,0c1.5,0.1,3,0.1,4.6,0.2c0.1,0,0.1,0,0.2,0c-1.9,1.5-3.7,3.1-5.4,4.7C95.5,51.5,95.6,49.9,95.7,48.2L95.7,48.2z
			 M95.1,57.6c0.1,0,0.3,0,0.4-0.1c2.4-1.9,4.8-3.7,7.3-5.5c0.1,1.8,0.2,3.6,0.3,5.4c-2.7,1-5.4,1.9-8.2,2.7
			C94.9,59.3,95,58.5,95.1,57.6L95.1,57.6z M96.4,60.9c2.4-0.7,4.7-1.6,7-2.5c0.3,0.1,0.6,0,0.7-0.3c2.4-0.9,4.8-1.6,7.2-2.2
			c2.7-0.5,6-0.9,8.2,1.1c2.2,2.1,2.5,5.1,1.9,7.8c-1.2-0.5-2.5-0.8-3.8-1c-6.3-1.1-12.7,0.4-18.8,2c-6.7,1.7-13.4,3.1-20.1,4.5
			c-2.6,0.5-5.1,1.3-7.4,2.6c-0.1-0.1-0.3-0.2-0.5-0.1c-0.5,0.1-0.2-2.6-0.1-2.7c0.2-0.7,0.4-1.4,0.8-2c0.8-1,1.8-1.9,3-2.3l0.1,0
			c0.1,0,0.2,0,0.3-0.1c1.9-0.7,3.9-1.1,6-1.3C86.1,63.5,91.3,62.4,96.4,60.9L96.4,60.9z M75.2,64.2c2.2-7.1,12-6.9,18.9-9
			c-0.1,1.7-0.3,3.5-0.5,5.2c-2.2,0.6-4.4,1.2-6.7,1.6c-2.7,0.6-5.4,0.9-8.1,1.3C77.6,63.6,76.4,63.9,75.2,64.2L75.2,64.2z
			 M93.8,46.2c0-0.2,0.4-0.4,0.9-0.6c0,0.5,0,1-0.1,1.4C94.1,46.9,93.6,46.7,93.8,46.2L93.8,46.2z M60.2,74.8c0-0.1,0-0.2,0-0.3
			c0-0.1,0-0.2,0.1-0.3c0,0,0-0.1,0-0.1c-0.1-2.5,0.3-5,1-7.4c3.2-9,11.3-16.4,21.8-19.8c3.4-1.1,6.9-1.7,10.5-2
			c-0.9,0.5-1.6,1.1-1.5,1.9c0.2,1.1,1.3,1.3,2.4,1.4c-0.1,2-0.2,3.9-0.3,5.9c-7.5,2.6-18.4,1.8-20.3,10.6c-0.4,0.2-0.8,0.4-1.1,0.6
			c-1.8,1.1-3.1,2.9-3.4,5c-0.1,0.9-0.2,2.6,0.6,3.2c-1.5,1-3.2,2.5-3.4,4.3c-0.3-0.1-0.6-0.1-0.9-0.2l-0.1,0l-2.6-0.7
			c-0.1,0-0.1,0-0.2,0c-0.2,0.2-0.6,0.2-0.8,0c-0.2-0.1-0.4-0.1-0.6-0.1c-0.3,0-0.6-0.1-0.7-0.4c-0.4,0-0.7-0.3-0.7-0.7L60.2,74.8z
			 M123.2,192.7c0.4-0.2,0.9-0.4,1.3-0.6c0,0,0,0.1,0,0.1C124.1,192.4,123.7,192.5,123.2,192.7z M136.7,104
			c-0.6,6.1-1.1,12.1-1.7,18.2c-0.5,4.9-1.1,9.8-1.6,14.7c-1,9-1.9,18-2.8,27c-0.4,4.6-0.9,9.1-1.3,13.7c-0.2,2.2-0.4,4.3-0.6,6.5
			c-0.1,1.3-0.3,2.5-0.8,3.7c-0.5,0.8-1.1,1.6-1.8,2.2c-0.1,0.1-0.3,0.2-0.4,0.3c-3.3,2.1-7.5,3.3-11.3,4.4
			c-9.8,2.6-20,2.9-29.9,0.8c-0.1,0-0.1-0.1-0.2-0.1c-0.2,0-0.3-0.1-0.5-0.1c-2.3-0.5-4.6-1.3-6.7-2.2l-0.1,0
			c-1.8-1.1-3.6-2.3-5.4-3.4c-1.4-1.3-2.4-2.9-3-4.7c-0.2-0.5-0.3-1-0.5-1.5c0-0.4-0.1-0.9-0.1-1.3l-2.3-23.6
			c-0.4-4.2-0.8-8.3-1.1-12.5c0-0.1,0-0.1,0-0.2c-0.1-3.1-0.2-6.2-0.2-9.3c0-0.6,0-1.2,0.1-1.8c0.2-3.7,0.5-7.4,0.4-11.1
			c-0.1-4-0.5-7.9-0.8-11.8c-0.3-3-0.5-6-0.8-8.9c-0.3-5.2-0.8-10.4-1.4-15.6c2.5,0.3,5.2,0.2,7.6,0.4l14.1,0.7
			c17.6,0.9,35.8,2.3,52.8-2.9c0.2-0.1,0.4-0.1,0.7-0.2C137.8,91.5,137.2,97.8,136.7,104L136.7,104z M142,81c-0.7,1.2-1.7,2.1-3,2.6
			c0-0.1,0-0.2,0-0.3c-0.6,0.5-1.2,0.7-2,0.8c0,0.1,0,0.1,0,0.2c-1.2,0.4-2.5,0.7-3.5,0.9c-6.8,1.7-13.8,2.6-20.8,2.8
			c-14,0.5-28.1-0.7-42-1.4c-2.9-0.1-6,0-8.9-0.5l0-0.2c-0.4,0-0.8-0.1-1.1-0.3c0,0,0,0,0,0l0,0c0,0.1,0,0.2,0,0.3
			c-0.2-0.1-0.5-0.1-0.7-0.2c-2.1-0.6-3.7-1.9-4.1-4c-0.3-1.7,0.3-5.7,2.7-5.8c0,0.4,0,0.9,0.1,1.3c0,0.3,0.3,0.5,0.6,0.5
			c0.1,0.1,0.2,0.2,0.3,0.2c0.5,0.1,0.9,0.2,1.4,0.3c0.1,0.2,0.2,0.3,0.4,0.3c15.3,2.5,30.7,3.3,46.2,2.6c7.7-0.4,15.3-1.2,22.9-2.4
			c1.2-0.2,2.5-0.4,3.8-0.6c0.1,0.1,0.2,0.1,0.3,0.1c0.3,0,0.7,0,1-0.1c0.4-0.3,0.8-0.6,1.2-0.8c0.4-0.2,0.8-0.3,1.3-0.3
			c0.1-0.1,0.1-0.1,0.1-0.2c0-0.1,0-0.1,0-0.2c0.4-0.5,0.7-1.1,0.8-1.8c1,0.3,1.9,0.9,2.6,1.7C142.5,77.9,142.7,79.6,142,81L142,81z
			"/>
		<path id="Path_301" class="st1" d="M126.7,123.7L126.7,123.7l-0.6-0.6l-0.1,0.1c-0.6,1.1-1.4,2.1-2.3,2.9
			c-0.8,0.7-1.8,1.1-2.8,1.2c-0.5,0.1-0.9-0.1-1.3-0.5c-0.2-0.4-0.4-0.8-0.3-1.3c0-0.1,0-0.3,0-0.4c0.9-0.1,1.8-0.4,2.6-0.7
			c0.8-0.3,1.5-0.8,2.1-1.5c0.5-0.6,0.8-1.3,0.8-2.1c0-1.1-0.6-1.7-1.8-1.7c-0.9,0-1.7,0.3-2.5,0.8c-0.8,0.5-1.5,1.2-2.1,2
			c-0.5,0.7-0.9,1.6-1.1,2.5c-0.6,0.8-1.3,1.4-2.1,2c-0.7,0.5-1.4,0.7-2.3,0.8c-1.1,0-1.7-0.6-1.7-1.7c0-0.2,0-0.3,0-0.5
			c0.9-0.1,1.8-0.4,2.7-0.8c0.9-0.4,1.6-0.9,2.3-1.6c0.6-0.6,0.9-1.3,0.9-2.1c0-1.1-0.6-1.7-1.8-1.7c-1.1,0-2.1,0.4-2.9,1.1
			c-1,0.7-1.7,1.6-2.3,2.7c-0.3,0.6-0.6,1.2-0.8,1.8c-0.2,0.2-0.3,0.4-0.5,0.6c-0.3,0.3-0.8,0.5-1.3,0.5c-0.4,0-0.7-0.1-1-0.4
			c-0.3-0.3-0.4-0.6-0.5-1c-0.1-0.4-0.3-1.1-0.4-1.9c0-0.2-0.1-0.4-0.2-0.5c-0.1-0.1-0.2-0.2-0.3-0.3l0.3-0.8c1.1-0.7,2.1-1.6,3-2.6
			c0.9-1,1.7-2,2.4-3.2c0.6-0.9,0.9-1.9,0.9-3c0-1.1-0.6-1.3-1.1-1.3c-1.4,0-2.8,1.4-4.4,4.1c-1.6,2.9-2.9,5.9-4,9
			c-0.3,0.5-0.7,0.9-1.1,1.3c-0.3,0.3-0.8,0.5-1.3,0.5c-0.4,0-0.7-0.1-1-0.4c-0.3-0.3-0.4-0.6-0.5-1c-0.1-0.4-0.3-1.1-0.4-1.9
			c0-0.2-0.1-0.4-0.2-0.5c-0.1-0.1-0.2-0.2-0.3-0.3l0.3-0.8c1.1-0.7,2.1-1.6,3-2.6c0.9-1,1.7-2,2.4-3.2c0.6-0.9,0.9-1.9,0.9-3
			c0-1.1-0.6-1.3-1.1-1.3c-1.4,0-2.8,1.4-4.4,4.1c-1.7,2.9-3,6-4.1,9.2c-0.2,0.3-0.5,0.5-0.8,0.7c-0.4,0.2-0.9,0.4-1.3,0.4
			c-0.2,0-0.3,0-0.4-0.1c0.4-0.6,0.7-1.3,1-2c0.3-0.6,0.4-1.2,0.4-1.9c0-0.5-0.1-1-0.5-1.4c-0.4-0.4-0.9-0.6-1.5-0.6
			c-0.7,0-1.4,0.2-1.8,0.7c-0.4,0.5-0.7,1-0.8,1.7c-0.2-0.1-0.4-0.1-0.6-0.1c-0.6,0-1.1,0.3-1.4,0.7c-0.5,0.5-0.8,1.1-1.1,1.8
			c-0.1,0.1-0.1,0.3-0.1,0.4c-0.3,0.5-0.7,1-1.1,1.4c-0.6,0.7-1.4,1.3-2.3,1.8c-0.7,0.4-1.5,0.6-2.4,0.7c-1,0.1-1.9-0.4-2.4-1.2
			c-0.6-0.9-0.8-2-0.8-3c0-1.8,0.5-3.6,1.2-5.3c0.7-1.8,1.7-3.4,3-4.8c1.2-1.3,2.3-1.9,3.3-1.9c0.6,0,0.9,0.2,0.9,0.8
			c-0.1,0.8-0.4,1.5-0.8,2.1c-0.5,0.8-1.1,1.6-1.7,2.3l-0.1,0.1l0,0.1c0.2,0.5,0.6,0.8,1.1,0.8c0.6-0.1,1.1-0.4,1.4-0.9
			c0.5-0.6,0.9-1.3,1.1-2.1c0.3-0.7,0.4-1.4,0.4-2.2c0.1-0.6-0.2-1.3-0.7-1.7c-0.5-0.4-1.2-0.6-1.8-0.5c-1.8,0.1-3.4,0.8-4.7,2
			c-1.6,1.4-2.9,3.1-3.8,5c-0.9,1.9-1.5,4-1.5,6.1c0,1,0.2,1.9,0.6,2.8c0.4,0.9,1,1.6,1.7,2.2c0.9,0.6,1.9,0.9,2.9,0.8
			c1.6,0,3.1-0.6,4.4-1.6c0.6-0.5,1.1-1,1.6-1.6c0,0.5,0.2,0.9,0.4,1.3c0.3,0.5,0.9,0.7,1.5,0.7c0.7,0,1.5-0.3,2.1-0.7
			c0.7-0.4,1.3-1,1.8-1.6c0.4,0.1,0.7,0.2,1.1,0.2c0.6,0,1.1-0.2,1.6-0.5c-0.7,1.9-1.1,3.9-1.2,6c-0.1,0.7,0.1,1.3,0.5,1.8l0,0
			c0.3,0.3,0.7,0.5,1.1,0.5c0.8-0.1,1.5-0.5,1.9-1.2c0.6-0.9,1.1-1.9,1.4-3c0.3-1.1,0.5-2.3,0.6-3.5c0.4,0.3,1,0.5,1.5,0.5
			c0.6,0,1.2-0.3,1.7-0.7c-0.6,1.8-1,3.7-1.1,5.6c-0.1,0.7,0.1,1.3,0.5,1.8l0,0c0.3,0.3,0.7,0.5,1.1,0.5c0.8-0.1,1.5-0.5,1.9-1.2
			c0.6-0.9,1.1-1.9,1.4-3c0.3-1.1,0.5-2.3,0.6-3.5c0.4,0.3,1,0.5,1.5,0.5c0.7,0,1.3-0.3,1.8-0.7c0.1,0.7,0.4,1.3,0.8,1.7
			c0.7,0.6,1.5,0.9,2.4,0.8c0.9,0,1.8-0.2,2.6-0.7c0.8-0.4,1.5-1,2.1-1.6c0.1,0.6,0.4,1.2,0.9,1.6c0.6,0.5,1.4,0.8,2.2,0.8
			c1.3,0,2.6-0.5,3.6-1.4C125.1,126.2,126.1,125,126.7,123.7z M122.9,120.4c0.2,0,0.2,0,0.2,0.1s0.1,0.1,0.1,0.3
			c0,0.8-0.5,1.4-1.1,1.8c-0.8,0.5-1.6,1-2.5,1.3c0.2-0.5,0.5-1.1,0.8-1.6c0.3-0.5,0.8-1,1.3-1.4C122,120.6,122.5,120.4,122.9,120.4
			z M114,120.7c0.4-0.3,0.8-0.5,1.3-0.6c0.2,0,0.2,0,0.2,0c0,0.1,0.1,0.1,0,0.2c-0.1,0.8-0.6,1.6-1.3,2c-0.8,0.6-1.7,1.1-2.6,1.5
			c0.2-0.6,0.5-1.1,0.9-1.6C113,121.6,113.4,121.1,114,120.7L114,120.7z M102.8,132.2c-0.1,0-0.2-0.3-0.2-0.9c0-1.1,0.2-2.2,0.5-3.2
			c0.3-1.3,0.7-2.7,1.2-4.2c0.1,0.3,0.3,0.6,0.4,0.9c0.1,0.4,0.1,0.7,0.1,1.1c0,0.9-0.1,1.8-0.4,2.6c-0.2,0.9-0.5,1.8-0.8,2.6
			C103.1,132,102.9,132.2,102.8,132.2L102.8,132.2z M110.3,112.6C110.3,112.6,110.3,112.6,110.3,112.6
			C110.3,112.6,110.3,112.7,110.3,112.6c0,0.5-0.2,1-0.5,1.4c-0.5,0.8-1,1.5-1.5,2.2c-0.6,0.7-1.2,1.4-1.8,2c0.6-1.4,1.3-2.7,2-3.9
			C109.2,113.2,109.8,112.6,110.3,112.6L110.3,112.6z M95.1,132.2c-0.1,0-0.2-0.3-0.2-0.9c0-1.1,0.2-2.2,0.5-3.2
			c0.3-1.3,0.7-2.7,1.2-4.2c0.1,0.3,0.3,0.6,0.4,0.9c0.1,0.4,0.1,0.7,0.1,1.1c0,0.9-0.1,1.8-0.4,2.6c-0.2,0.9-0.5,1.8-0.8,2.6
			C95.5,132,95.3,132.2,95.1,132.2L95.1,132.2z M102.6,112.6C102.7,112.6,102.7,112.6,102.6,112.6
			C102.7,112.6,102.7,112.7,102.6,112.6c0,0.5-0.2,1-0.5,1.4c-0.5,0.8-1,1.5-1.5,2.2c-0.6,0.7-1.2,1.4-1.8,2c0.6-1.4,1.3-2.7,2-3.9
			C101.5,113.2,102.2,112.6,102.6,112.6L102.6,112.6z M89.2,126.2c-0.3,0.2-0.6,0.4-0.9,0.4c-0.3,0-0.7-0.1-0.7-0.9
			c0-0.5,0.1-1,0.3-1.5c0.2-0.5,0.4-1.1,0.7-1.6c0.1-0.2,0.3-0.4,0.4-0.6c0,1.2,0.5,2.3,1.3,3.1C90,125.6,89.6,125.9,89.2,126.2z
			 M92.3,121c0,0.6-0.1,1.1-0.4,1.6c-0.2,0.6-0.5,1.1-0.8,1.6c-0.2-0.3-0.3-0.6-0.4-0.8c-0.1-0.4-0.2-0.8-0.2-1.2
			c0-0.4,0.1-0.7,0.2-1c0.1-0.3,0.3-0.5,0.5-0.8c0.1-0.2,0.3-0.2,0.5-0.3C91.9,120.1,92.3,120.1,92.3,121L92.3,121z"/>
	</g>
</g>
</svg>
