<?xml version="1.0" encoding="utf-8"?>
<!-- Generator: Adobe Illustrator 25.0.0, SVG Export Plug-In . SVG Version: 6.00 Build 0)  -->
<svg version="1.1" id="Layer_1" xmlns="http://www.w3.org/2000/svg" xmlns:xlink="http://www.w3.org/1999/xlink" x="0px" y="0px"
	 viewBox="0 0 200 165" style="enable-background:new 0 0 200 165;" xml:space="preserve">
<style type="text/css">
	.st0{fill:#452A17;}
</style>
<g>
	<g>
		<g>
			<path class="st0" d="M8.36,110.66c-2.9-2.09-5.05-4.8-6.44-8.14c-1.39-3.34-2.09-6.95-2.09-10.83c0-7.7,1.88-15.44,5.64-23.23
				c3.76-7.79,8.57-14.2,14.43-19.24c5.86-5.04,11.75-7.56,17.67-7.56c2.78,0,5.02,0.66,6.7,1.97c1.69,1.31,2.53,3.37,2.53,6.18
				c0,2.39-0.55,5.13-1.64,8.23c-1.1,3.1-2.49,5.74-4.17,7.92c-1.69,2.18-3.39,3.27-5.1,3.27c-1.48,0-2.69-0.92-3.64-2.77
				c2.25-2.51,4.42-5.49,6.52-8.95c2.1-3.46,3.15-6.26,3.15-8.41c0-2.33-1.33-3.49-3.99-3.49c-4.14,0-8.54,2.54-13.18,7.61
				c-4.65,5.07-8.52,11.31-11.63,18.71C10,79.3,8.44,86.17,8.44,92.49c0,4.77,1.07,8.8,3.2,12.08c2.13,3.28,5.36,4.92,9.68,4.92
				c3.08,0,6.21-0.88,9.41-2.64c3.2-1.76,6.13-4.1,8.79-7.03c2.66-2.92,4.79-6.09,6.39-9.49l2.31,1.52
				c-3.37,6.44-7.56,11.71-12.56,15.8c-5,4.09-10.49,6.13-16.47,6.13C14.86,113.79,11.25,112.74,8.36,110.66z"/>
		</g>
		<g>
			<path class="st0" d="M44.35,106.45c-1.1-1.61-1.64-3.61-1.64-6c0-2.51,0.52-5.1,1.55-7.79c1.04-2.69,2.38-4.92,4.04-6.71
				c1.66-1.79,3.34-2.68,5.06-2.68c0.71,0,1.63,0.24,2.75,0.72c0.36-2.74,1.32-5.01,2.88-6.8c1.57-1.79,3.77-2.69,6.61-2.69
				c2.37,0,4.11,0.67,5.24,2.01c1.12,1.34,1.69,3.09,1.69,5.24c0,2.09-0.55,4.48-1.64,7.16c-1.1,2.68-2.5,5.37-4.22,8.05
				c0.71,0.36,1.54,0.54,2.49,0.54c1.66,0,3.43-0.55,5.33-1.66c1.89-1.1,3.34-2.79,4.35-5.06l1.6,1.16
				c-1.24,2.86-2.92,5.04-5.02,6.53c-2.1,1.49-4.28,2.24-6.53,2.24c-1.36,0-2.84-0.27-4.44-0.81c-2.19,2.63-4.59,4.77-7.19,6.44
				c-2.61,1.67-5.15,2.51-7.64,2.51C47.21,108.87,45.45,108.06,44.35,106.45z M56.74,102.51c1.54-1.19,3.08-2.72,4.62-4.56
				c-3.37-2.98-5.15-7.37-5.33-13.16c-0.71,0.36-1.57,1.46-2.57,3.31c-1.01,1.85-1.86,3.91-2.57,6.18
				c-0.71,2.27-1.07,4.24-1.07,5.91c0,2.75,1.01,4.12,3.02,4.12C53.9,104.3,55.2,103.71,56.74,102.51z M67.34,88.19
				c0.98-2.39,1.46-4.53,1.46-6.45c0-2.62-0.83-3.94-2.49-3.94c-0.77,0-1.57,0.39-2.4,1.16c-0.83,0.78-1.51,1.81-2.04,3.09
				c-0.53,1.28-0.8,2.7-0.8,4.25c0,1.37,0.24,2.94,0.71,4.7c0.47,1.76,1.1,3.12,1.87,4.07C65.14,92.88,66.37,90.58,67.34,88.19z"/>
		</g>
		<g>
			<path class="st0" d="M72.76,129.18c-1.21-1.25-1.82-3.49-1.82-6.71c0-6.21,2.21-15.99,6.61-29.36
				c4.41-13.36,9.62-25.3,15.62-35.8c6.01-10.5,11.5-15.75,16.47-15.75c2.49,0,3.73,1.52,3.73,4.56c0,3.28-1.17,7.01-3.51,11.19
				c-2.34,4.18-5.37,8.25-9.1,12.22c-3.73,3.97-7.61,7.29-11.63,9.98l-1.42,3.58c0.59,0.24,1.08,0.66,1.46,1.25
				c0.38,0.6,0.64,1.22,0.75,1.88c0.59,3.22,1.12,5.7,1.6,7.43c0.47,1.73,1.2,3.13,2.18,4.21c0.98,1.07,2.32,1.61,4.04,1.61
				c1.95,0,3.71-0.72,5.28-2.15c1.57-1.43,3.27-3.67,5.1-6.71l1.95,1.43c-1.78,3.64-3.83,6.38-6.17,8.23
				c-2.34,1.85-4.54,2.77-6.61,2.77c-2.01,0-4.11-0.81-6.3-2.42c-0.06,4.83-0.79,9.62-2.18,14.37c-1.39,4.74-3.18,8.61-5.37,11.59
				c-2.19,2.98-4.44,4.48-6.75,4.48C75.29,131.06,73.97,130.44,72.76,129.18z M82.7,121.22c1.27-2.86,2.37-6.3,3.28-10.29
				c0.92-4,1.38-7.43,1.38-10.29c0-1.67-0.19-3.18-0.58-4.52c-0.39-1.34-1.05-2.88-2-4.61c-2.13,6.44-3.83,12.32-5.1,17.63
				c-1.27,5.31-1.91,9.49-1.91,12.53c0,2.56,0.47,3.85,1.42,3.85C80.26,125.51,81.43,124.08,82.7,121.22z M100.68,63.58
				c2.6-3.22,4.6-6.1,5.99-8.64c1.39-2.53,2.09-4.34,2.09-5.41c0-0.48-0.24-0.72-0.71-0.72c-2.07,0-4.56,2.25-7.46,6.76
				c-2.9,4.51-5.86,10.4-8.88,17.68C95.09,70.02,98.07,66.8,100.68,63.58z"/>
		</g>
		<g>
			<path class="st0" d="M102.05,129.18c-1.21-1.25-1.82-3.49-1.82-6.71c0-6.21,2.21-15.99,6.61-29.36s9.62-25.3,15.62-35.8
				c6.01-10.5,11.5-15.75,16.47-15.75c2.49,0,3.73,1.52,3.73,4.56c0,3.28-1.17,7.01-3.51,11.19c-2.34,4.18-5.37,8.25-9.1,12.22
				c-3.73,3.97-7.61,7.29-11.63,9.98l-1.42,3.58c0.59,0.24,1.08,0.66,1.46,1.25c0.38,0.6,0.64,1.22,0.75,1.88
				c0.59,3.22,1.12,5.7,1.6,7.43c0.47,1.73,1.2,3.13,2.18,4.21c0.98,1.07,2.32,1.61,4.04,1.61c1.95,0,3.71-0.72,5.28-2.15
				c1.57-1.43,3.27-3.67,5.1-6.71l1.95,1.43c-1.78,3.64-3.83,6.38-6.17,8.23c-2.34,1.85-4.54,2.77-6.61,2.77
				c-2.01,0-4.11-0.81-6.3-2.42c-0.06,4.83-0.78,9.62-2.18,14.37c-1.39,4.74-3.18,8.61-5.37,11.59c-2.19,2.98-4.44,4.48-6.75,4.48
				C104.58,131.06,103.27,130.44,102.05,129.18z M111.99,121.22c1.27-2.86,2.37-6.3,3.28-10.29c0.92-4,1.38-7.43,1.38-10.29
				c0-1.67-0.19-3.18-0.58-4.52c-0.39-1.34-1.05-2.88-2-4.61c-2.13,6.44-3.83,12.32-5.1,17.63c-1.27,5.31-1.91,9.49-1.91,12.53
				c0,2.56,0.47,3.85,1.42,3.85C109.55,125.51,110.72,124.08,111.99,121.22z M129.97,63.58c2.6-3.22,4.6-6.1,5.99-8.64
				c1.39-2.53,2.09-4.34,2.09-5.41c0-0.48-0.24-0.72-0.71-0.72c-2.07,0-4.56,2.25-7.46,6.76c-2.9,4.51-5.86,10.4-8.88,17.68
				C124.38,70.02,127.37,66.8,129.97,63.58z"/>
		</g>
		<g>
			<path class="st0" d="M167.88,107.57c-2.01-1.88-3.2-4.25-3.55-7.12c-2.6,2.98-5.52,5.31-8.74,6.98
				c-3.23,1.67-6.49,2.51-9.81,2.51c-3.73,0-6.64-1-8.74-3c-2.1-2-3.15-4.58-3.15-7.74c0-3.46,1.15-7.19,3.46-11.19
				c2.31-4,5.27-7.37,8.88-10.11c3.61-2.74,7.22-4.12,10.83-4.12c4.2,0,6.3,1.97,6.3,5.91c0,2.86-1.1,5.52-3.28,7.97
				c-2.19,2.45-5.02,4.45-8.48,6c-3.46,1.55-7,2.54-10.61,2.95c-0.12,0.72-0.18,1.46-0.18,2.24c0,4.83,2.31,7.25,6.92,7.25
				c2.96,0,5.95-1,8.97-3c3.02-2,5.71-4.61,8.08-7.83c0.71-3.22,2.16-6.41,4.35-9.58c2.19-3.16,4.82-5.74,7.9-7.74
				c3.08-2,6.15-3,9.23-3c4.26,0,6.39,2,6.39,6c0,2.81-0.99,5.36-2.97,7.65c-1.98,2.3-4.6,4.16-7.86,5.59
				c-3.26,1.43-6.72,2.36-10.39,2.77c-0.12,0.84-0.18,1.55-0.18,2.15c0,2.03,0.47,3.77,1.42,5.24c0.95,1.46,2.69,2.19,5.24,2.19
				c3.67,0,7.41-1.55,11.23-4.65c3.82-3.1,6.85-6.86,9.1-11.28l1.6,1.25c-2.49,5.43-5.9,9.88-10.25,13.34
				c-4.35,3.46-8.86,5.19-13.54,5.19C172.61,110.39,169.89,109.45,167.88,107.57z M153.14,87.52c3.43-2.65,5.15-5.38,5.15-8.19
				c0-0.54-0.1-0.92-0.31-1.16c-0.21-0.24-0.64-0.36-1.29-0.36c-1.66,0-3.46,0.78-5.41,2.33c-1.95,1.55-3.79,3.57-5.5,6.04
				c-1.72,2.48-2.99,5-3.82,7.56C145.98,92.25,149.71,90.18,153.14,87.52z M183.01,88.33c3.05-2.18,4.57-4.67,4.57-7.47
				c0-0.72-0.12-1.21-0.35-1.48c-0.24-0.27-0.68-0.4-1.33-0.4c-1.6,0-3.3,0.7-5.1,2.1c-1.81,1.4-3.46,3.24-4.97,5.5
				c-1.51,2.27-2.65,4.65-3.42,7.16C176.43,92.31,179.96,90.51,183.01,88.33z"/>
		</g>
	</g>
	<path class="st0" d="M56.31,28.09c-1.4-2.95-2.8-5.91-4.2-8.86c-0.85-1.79-3.49-0.23-2.64,1.56c1.4,2.95,2.8,5.91,4.2,8.86
		C54.52,31.44,57.16,29.88,56.31,28.09z"/>
	<path class="st0" d="M80.88,26.45c-1.98-8.86-4.77-17.41-8.33-25.75c-0.78-1.82-3.42-0.25-2.64,1.56
		c3.45,8.09,6.1,16.43,8.02,25.01C78.36,29.2,81.32,28.38,80.88,26.45z"/>
	<path class="st0" d="M98.29,6.27V24.8c0,1.99,3.06,1.99,3.06,0V6.27C101.35,4.29,98.29,4.28,98.29,6.27z"/>
	<path class="st0" d="M139.33,5.5c-4.05,6.2-8.1,12.39-12.15,18.59c-1.09,1.66,1.56,3.21,2.64,1.56c4.05-6.2,8.1-12.39,12.15-18.59
		C143.07,5.39,140.42,3.84,139.33,5.5z"/>
	<path class="st0" d="M160.12,23.16c-3,2.92-6,5.84-9,8.76c-1.42,1.38,0.75,3.56,2.17,2.18c3-2.92,6-5.84,9-8.76
		C163.7,23.96,161.54,21.78,160.12,23.16z"/>
	<path class="st0" d="M50.04,139.22c-3.42,7.77-6.84,15.54-10.26,23.3c-0.79,1.8,1.85,3.37,2.64,1.56
		c3.42-7.77,6.84-15.54,10.26-23.3C53.48,138.98,50.84,137.4,50.04,139.22z"/>
	<path class="st0" d="M71.68,143.48c-0.48,4.8-0.97,9.6-1.45,14.4c-0.2,1.97,2.86,1.96,3.06,0c0.48-4.8,0.97-9.6,1.45-14.4
		C74.94,141.51,71.87,141.52,71.68,143.48z"/>
	<path class="st0" d="M92.77,142.8c-0.22,6.17-0.45,12.35-0.67,18.52c-0.07,1.99,2.99,1.98,3.06,0c0.22-6.17,0.45-12.35,0.67-18.52
		C95.91,140.81,92.85,140.82,92.77,142.8z"/>
	<path class="st0" d="M132.43,152.33c-2.93-4.47-6.14-8.74-9.6-12.8c-1.29-1.51-3.44,0.68-2.17,2.18c3.29,3.87,6.33,7.93,9.12,12.18
		C130.86,155.54,133.52,153.99,132.43,152.33z"/>
	<path class="st0" d="M156.62,160.06c-4.86-7.86-9.73-15.71-14.59-23.57c-1.04-1.68-3.69-0.13-2.64,1.56
		c4.86,7.86,9.73,15.71,14.59,23.57C155.02,163.3,157.67,161.76,156.62,160.06z"/>
</g>
</svg>
