<?xml version="1.0" encoding="utf-8"?>
<!-- Generator: Adobe Illustrator 25.0.0, SVG Export Plug-In . SVG Version: 6.00 Build 0)  -->
<svg version="1.1" id="Layer_1" xmlns="http://www.w3.org/2000/svg" xmlns:xlink="http://www.w3.org/1999/xlink" x="0px" y="0px"
	 viewBox="0 0 100 115" style="enable-background:new 0 0 100 115;" xml:space="preserve">
<style type="text/css">
	.st0{fill:#2F645F;stroke:#FFFFFF;stroke-width:0.75;stroke-miterlimit:10;}
</style>
<g>
	<g>
		<g>
			<path class="st0" d="M2.7,115.1c9-5.3,17.7-11.3,25.3-18.2c4.8-3.4,8.9-7.2,12-12.1c0.9-1.4,1.7-2.9,2.5-4.4
				c2.5-3.8,4.7-7.8,6.4-12c1.1,0,2.2,0,3.2-0.2c0.7-0.1,1.4-0.1,2-0.2c16.3,3,33-1.4,45.2-11.9c0.8-0.7,0.4-1.9-0.8-1.8
				c-13.2,1.2-34.3-2.7-46.7,4.8c0.5-2.3,0.9-4.7,1.1-7.1c0.7-3.1,1.3-6.1,1.8-9.2C70.9,34,80.3,18.1,78.9,1.1
				c-0.1-1-1.8-0.6-2.4-0.2c-8.5,4.9-17.5,10.2-23,18.1c-4.5,6.5-4.5,13.3-4.1,20.3c-0.3,0.6-0.2,1.3,0.1,1.8
				c0.2,2.8,0.4,5.7,0.4,8.7c0,0.1,0,0.2,0,0.2c-0.3,1.6-0.7,3.1-1.1,4.7C44.4,43,31.3,35,19,30c-0.9-0.4-2.7,0.4-2.8,1.3
				c-1,8.9,3,21.2,10.6,27.3c1.5,1.2,3.2,2.3,5.2,3.3c0.8,0.5,1.6,1,2.4,1.5c2.6,2,5.7,3.1,9,3.2c0.4,0.3,0.9,0.6,1.3,0.8
				c-2,5.2-4.4,10.3-7.3,15.1c-4,6.7-10,11-16.6,15.4c-6.7,4.5-13.5,9-20.2,13.6c-1.2,0.8-0.7,2.1,0.3,2.6
				C-0.6,115.1,1.3,115.9,2.7,115.1z M62.2,35.3c0.7-0.8,1.3-1.5,1.9-2.3c1.3-1.3,2.6-2.7,3.7-4.2c0.3-0.3,0.6-0.6,0.8-0.9
				C66.8,30.5,64.6,33,62.2,35.3z"/>
		</g>
	</g>
</g>
</svg>
