<?xml version="1.0" encoding="utf-8"?>
<!-- Generator: Adobe Illustrator 25.0.0, SVG Export Plug-In . SVG Version: 6.00 Build 0)  -->
<svg version="1.1" id="Layer_1" xmlns="http://www.w3.org/2000/svg" xmlns:xlink="http://www.w3.org/1999/xlink" x="0px" y="0px"
	 viewBox="0 0 100 100" style="enable-background:new 0 0 100 100;" xml:space="preserve">
<style type="text/css">
	.st0{fill:#FFFFFF;stroke:#232323;stroke-width:0.25;stroke-miterlimit:10;}
</style>
<path class="st0" d="M23.8,83.7h48.6v10.8H23.8V83.7z M88,39.1c-1.8,15-15.5,15.3-15.5,15.3L72.3,82H24l-0.1-27.3
	c0,0-11.3-2.5-12.8-10.9c-1-5.9-0.5-14.6,6.1-20.4c10.8-9.5,20.4,1.5,20.4,1.5s0.1-4.4-6.9-7.2c3.2-7.5,19.8-14.6,29-3.6
	c7.6,9.1,7.9,17,6.5,22c3.5-4.7,3.1-13.5-1.5-19.5C77.7,12.5,90,22.5,88,39.1z M30.9,60.8c0,0,0.8,4.8,0.9,17.2
	C33.4,77.9,32.6,66.6,30.9,60.8z M38.6,47.5c0,0,2.3,13.7,2.2,22.7c-0.1,4.7,0,7.8,0,7.8h1.3C42,78.1,43.4,57.2,38.6,47.5z
	 M50.9,78.1c0,0-0.8-32-4.2-40.2c0,0,3,25.1,2.8,40.2C50.4,78.1,50.9,78.1,50.9,78.1z M62.9,46.1c0,0-4.3,11.2-4.4,24.2
	c0,4.7,0,7.8,0,7.8h1.3C59.8,78.1,59.6,58.5,62.9,46.1z M67,63.2c-1.6,4.9-2.5,14.7-0.9,14.8C66.2,67.4,67,63.2,67,63.2z"/>
</svg>
