<?xml version="1.0" encoding="utf-8"?>
<!-- Generator: Adobe Illustrator 25.0.0, SVG Export Plug-In . SVG Version: 6.00 Build 0)  -->
<svg version="1.1" id="Layer_1" xmlns="http://www.w3.org/2000/svg" xmlns:xlink="http://www.w3.org/1999/xlink" x="0px" y="0px"
	 viewBox="0 0 130 120" style="enable-background:new 0 0 130 120;" xml:space="preserve">
<style type="text/css">
	.st0{fill:#FFFFFF;}
</style>
<g>
	<g>
		<path class="st0" d="M49.56,9.79c0.05-0.05,0.1-0.11,0.16-0.16c0.27-0.28,0.27-0.77,0-1.05c-0.27-0.28-0.72-0.28-0.99,0
			l-0.16,0.16c-0.27,0.28-0.27,0.77,0,1.05C48.84,10.07,49.29,10.07,49.56,9.79z"/>
		<path class="st0" d="M42.17,14.4c0.27,0.28,0.72,0.28,0.99,0c0.27-0.28,0.27-0.76,0-1.05c-0.05-0.05-0.1-0.11-0.16-0.16
			c-0.27-0.28-0.72-0.28-0.99,0c-0.27,0.28-0.27,0.76,0,1.05L42.17,14.4z"/>
		<path class="st0" d="M32.03,16.55c0.1,0.11,0.21,0.22,0.31,0.33c0.27,0.28,0.72,0.28,0.99,0c0.27-0.28,0.27-0.77,0-1.05
			c-0.1-0.11-0.21-0.22-0.31-0.33c-0.27-0.28-0.72-0.28-0.99,0C31.76,15.79,31.76,16.27,32.03,16.55z"/>
		<path class="st0" d="M35.34,12.23h0.12c-0.08,0.42,0.14,0.91,0.66,0.91c0.9,0,0.9-1.48,0-1.48c-0.07,0-0.12,0.01-0.18,0.02
			c-0.02-0.23-0.17-0.44-0.44-0.44h-0.16C34.74,11.24,34.74,12.23,35.34,12.23z"/>
		<path class="st0" d="M51.41,6.38c0.38-0.02,0.7-0.33,0.7-0.74V5.47c0-0.39-0.32-0.76-0.7-0.74c-0.38,0.02-0.7,0.33-0.7,0.74v0.16
			C50.7,6.03,51.03,6.4,51.41,6.38z"/>
		<path class="st0" d="M55.93,10.66h0.16c0.37,0,0.72-0.34,0.7-0.74c0-0.03-0.01-0.05-0.01-0.08c0.07,0.05,0.14,0.08,0.24,0.08h0.16
			c0.6,0,0.6-0.99,0-0.99h-0.16c-0.29,0-0.44,0.23-0.45,0.46c-0.12-0.13-0.29-0.22-0.49-0.22h-0.16c-0.37,0-0.72,0.34-0.7,0.74
			C55.24,10.32,55.54,10.66,55.93,10.66z"/>
		<path class="st0" d="M65.68,12.23c0.02,0.4,0.31,0.74,0.7,0.74h0.16c0.37,0,0.72-0.34,0.7-0.74c-0.02-0.4-0.31-0.74-0.7-0.74
			h-0.16C66.01,11.49,65.66,11.83,65.68,12.23z"/>
		<path class="st0" d="M52.58,12.56c0.02,0.4,0.31,0.74,0.7,0.74h0.16c0.37,0,0.72-0.34,0.7-0.74c-0.02-0.4-0.31-0.74-0.7-0.74
			h-0.16C52.91,11.82,52.56,12.16,52.58,12.56z"/>
		<path class="st0" d="M22.94,14.54c0.02,0.4,0.31,0.74,0.7,0.74h0.31c0.37,0,0.72-0.34,0.7-0.74c-0.02-0.4-0.31-0.74-0.7-0.74
			h-0.31C23.27,13.8,22.92,14.14,22.94,14.54z"/>
		<path class="st0" d="M40.49,11.98h0.16c0.37,0,0.72-0.34,0.7-0.74c-0.01-0.16-0.06-0.31-0.14-0.44c0.13-0.29,0-0.72-0.4-0.72
			h-0.16c-0.3,0-0.45,0.24-0.45,0.49c-0.24,0.12-0.42,0.38-0.41,0.67C39.8,11.64,40.09,11.98,40.49,11.98z"/>
		<path class="st0" d="M61.54,11.65c0.14,0,0.26-0.04,0.36-0.11c0.04,0.01,0.07,0.02,0.11,0.02h0.47c0.6,0,0.6-0.99,0-0.99
			c0-0.45-0.47-0.58-0.75-0.38c-0.06-0.02-0.12-0.03-0.19-0.03C60.64,10.17,60.64,11.65,61.54,11.65z"/>
		<path class="st0" d="M69.79,13.06c0.15-0.06,0.31-0.12,0.46-0.17c0.1-0.04,0.19-0.11,0.25-0.2c0.15-0.11,0.24-0.28,0.28-0.47
			c0.57-0.04,0.56-0.98-0.03-0.98h-0.16c-0.12,0-0.22,0.05-0.29,0.11c-0.06-0.01-0.11-0.03-0.18-0.03c-0.49,0-0.71,0.44-0.67,0.84
			c-0.18,0.11-0.3,0.32-0.24,0.56C69.28,12.96,69.55,13.15,69.79,13.06z"/>
		<path class="st0" d="M51.8,9.59v0.16c0,0.39,0.32,0.76,0.7,0.74c0.38-0.02,0.7-0.33,0.7-0.74V9.59c0-0.39-0.32-0.76-0.7-0.74
			C52.12,8.87,51.8,9.18,51.8,9.59z"/>
		<path class="st0" d="M45.95,14.12h0.16c0.37,0,0.72-0.34,0.7-0.74c-0.02-0.4-0.31-0.74-0.7-0.74h-0.16c-0.37,0-0.72,0.34-0.7,0.74
			C45.26,13.79,45.55,14.12,45.95,14.12z"/>
		<path class="st0" d="M74.49,14.78c0.78,0,0.88-1.1,0.32-1.4c0.59-0.01,0.59-0.99-0.01-0.99c-0.51,0-0.58,0.69-0.24,0.91
			c-0.02,0-0.05-0.01-0.07-0.01C73.59,13.3,73.59,14.78,74.49,14.78z"/>
		<path class="st0" d="M31.91,13.38v-0.33c0-0.64-0.94-0.64-0.94,0v0.33C30.97,14.02,31.91,14.02,31.91,13.38z"/>
		<path class="st0" d="M29.87,15.72c0.01-0.01,0.01-0.01,0.02-0.02c0.2-0.16,0.16-0.53,0-0.7c-0.2-0.21-0.46-0.17-0.66,0
			c-0.27,0.22-0.37,0.64-0.26,0.98C29.16,16.58,30.07,16.32,29.87,15.72z"/>
		<path class="st0" d="M37.87,15.38c-0.36,0.15-0.6,0.51-0.47,0.93c0.17,0.55,0.93,0.38,0.92-0.12c0.11-0.12,0.18-0.28,0.13-0.46
			C38.38,15.49,38.1,15.28,37.87,15.38z"/>
		<path class="st0" d="M42.83,16.84c-0.6,0-0.6,0.99,0,0.99C43.43,17.83,43.43,16.84,42.83,16.84z"/>
		<path class="st0" d="M52.22,15.05c-0.16,0.05-0.31,0.11-0.47,0.16c-0.57,0.2-0.32,1.16,0.25,0.95c0.16-0.05,0.31-0.11,0.47-0.16
			C53.03,15.8,52.79,14.85,52.22,15.05z"/>
		<path class="st0" d="M59.83,13.55c0.6,0,0.6-0.99,0-0.99C59.23,12.56,59.23,13.55,59.83,13.55z"/>
		<path class="st0" d="M60.45,16.84h0.16c0.6,0,0.6-0.99,0-0.99h-0.16C59.85,15.86,59.85,16.84,60.45,16.84z"/>
		<path class="st0" d="M56.71,16.02h-0.16c-0.6,0-0.6,0.99,0,0.99h0.16C57.31,17.01,57.31,16.02,56.71,16.02z"/>
		<path class="st0" d="M47.82,18.33h-0.31c-0.6,0-0.6,0.99,0,0.99h0.31C48.42,19.32,48.42,18.33,47.82,18.33z"/>
		<path class="st0" d="M47.66,15.03c-0.6,0-0.6,0.99,0,0.99C48.26,16.02,48.26,15.03,47.66,15.03z"/>
		<path class="st0" d="M31.44,17.83c-0.6,0-0.6,0.99,0,0.99C32.04,18.82,32.04,17.83,31.44,17.83z"/>
		<path class="st0" d="M26,16.37c0.05-0.05,0.1-0.11,0.16-0.16c0.43-0.45-0.24-1.15-0.66-0.7l-0.16,0.16
			C24.91,16.12,25.57,16.82,26,16.37z"/>
		<path class="st0" d="M20.83,16.35c0.6,0,0.6-0.99,0-0.99C20.23,15.36,20.23,16.35,20.83,16.35z"/>
		<path class="st0" d="M26.45,13.71h0.16c0.6,0,0.6-0.99,0-0.99h-0.16C25.84,12.72,25.84,13.71,26.45,13.71z"/>
		<path class="st0" d="M37.68,11.41c-0.6,0-0.6,0.99,0,0.99C38.28,12.39,38.28,11.41,37.68,11.41z"/>
		<path class="st0" d="M32.23,11.54c0.15,0.62,1.05,0.36,0.9-0.26c-0.02-0.1-0.05-0.19-0.07-0.29c0.2,0.38,0.87,0.3,0.87-0.24v-0.16
			c0-0.64-0.94-0.64-0.94,0v0.14c-0.01-0.04-0.02-0.07-0.03-0.11c-0.15-0.62-1.05-0.36-0.9,0.26C32.12,11.1,32.17,11.32,32.23,11.54
			z"/>
		<path class="st0" d="M34.28,14.68c0.51,0.09,1.02,0.06,1.5-0.14c0.24-0.1,0.4-0.33,0.33-0.61c-0.06-0.24-0.34-0.44-0.58-0.35
			c-0.02,0.01-0.04,0.01-0.06,0.02c0.02-0.13-0.01-0.27-0.13-0.39c-0.1-0.11-0.21-0.22-0.31-0.33c-0.43-0.45-1.09,0.25-0.66,0.7
			c0.05,0.05,0.09,0.1,0.14,0.15c-0.24-0.04-0.49,0.07-0.56,0.35C33.89,14.31,34.03,14.64,34.28,14.68z"/>
		<path class="st0" d="M40.8,12.56c-0.6,0-0.6,0.99,0,0.99C41.4,13.55,41.4,12.56,40.8,12.56z"/>
		<path class="st0" d="M43.92,11.24h0.31c0.6,0,0.6-0.99,0-0.99h-0.31C43.32,10.25,43.31,11.24,43.92,11.24z"/>
		<path class="st0" d="M47.64,12.91c0.16-0.06,0.31-0.11,0.47-0.17c0.18-0.06,0.27-0.2,0.3-0.35c0.08,0.08,0.18,0.13,0.29,0.14
			c0.03,0.14,0.08,0.28,0.18,0.39c0.05,0.05,0.1,0.11,0.16,0.16c0.27,0.28,0.72,0.28,0.99,0c0.27-0.28,0.27-0.76,0-1.05l-0.16-0.16
			c-0.18-0.19-0.45-0.24-0.69-0.17c-0.17-0.42-0.89-0.36-0.9,0.2c-0.1-0.11-0.24-0.17-0.43-0.1c-0.16,0.06-0.31,0.11-0.47,0.17
			C46.82,12.16,47.07,13.11,47.64,12.91z"/>
		<path class="st0" d="M56.4,13.05c0.6,0,0.6-0.99,0-0.99h-0.16c-0.6,0-0.6,0.99,0,0.99H56.4z"/>
		<path class="st0" d="M59.36,10.42c0.6,0,0.6-0.99,0-0.99C58.76,9.43,58.76,10.42,59.36,10.42z"/>
		<path class="st0" d="M63.73,18.82c0.6,0,0.6-0.99,0-0.99C63.13,17.83,63.13,18.82,63.73,18.82z"/>
		<path class="st0" d="M69.81,16.68v0.16c0,0.64,0.94,0.64,0.94,0v-0.16C70.75,16.04,69.81,16.04,69.81,16.68z"/>
		<path class="st0" d="M63.88,13.05h0.16c0.6,0,0.6-0.99,0-0.99h-0.16C63.28,12.06,63.28,13.05,63.88,13.05z"/>
		<path class="st0" d="M65.58,15.34c-0.05,0.05-0.1,0.11-0.16,0.17c-0.43,0.45,0.24,1.15,0.66,0.7c0.05-0.05,0.1-0.11,0.16-0.16
			C66.67,15.59,66.01,14.89,65.58,15.34z"/>
		<path class="st0" d="M65.44,10.42c0.6,0,0.6-0.99,0-0.99C64.84,9.43,64.84,10.42,65.44,10.42z"/>
		<path class="st0" d="M24.11,19.23c-0.3,0-0.3,0.49,0,0.49C24.41,19.73,24.41,19.23,24.11,19.23z"/>
		<path class="st0" d="M35.65,18.74h-0.16c-0.3,0-0.3,0.49,0,0.49h0.16C35.95,19.23,35.95,18.74,35.65,18.74z"/>
		<path class="st0" d="M39.08,20.88h-0.31c-0.3,0-0.3,0.49,0,0.49h0.31C39.38,21.38,39.38,20.88,39.08,20.88z"/>
		<path class="st0" d="M42.51,18.9h-0.16c-0.3,0-0.3,0.49,0,0.49h0.16C42.82,19.4,42.82,18.9,42.51,18.9z"/>
		<path class="st0" d="M45.94,15.35c-0.05,0.05-0.1,0.11-0.16,0.16c-0.21,0.23,0.12,0.57,0.33,0.35c0.05-0.05,0.1-0.11,0.16-0.16
			C46.48,15.48,46.15,15.13,45.94,15.35z"/>
		<path class="st0" d="M52.03,18.9c-0.3,0-0.3,0.49,0,0.49C52.33,19.4,52.33,18.9,52.03,18.9z"/>
		<path class="st0" d="M56.55,17.91c-0.3,0-0.3,0.49,0,0.49C56.85,18.41,56.85,17.91,56.55,17.91z"/>
		<path class="st0" d="M61.7,18.57c-0.3,0-0.3,0.49,0,0.49C62,19.07,62,18.57,61.7,18.57z"/>
		<path class="st0" d="M69.03,16.1c0.3,0,0.3-0.49,0-0.49C68.73,15.61,68.73,16.1,69.03,16.1z"/>
		<path class="st0" d="M64.26,14.29c-0.3,0-0.3,0.49,0,0.49h0.1c0.3,0,0.3-0.49,0-0.49H64.26z"/>
		<path class="st0" d="M71.37,14.62c-0.3,0-0.3,0.49,0,0.49C71.67,15.11,71.67,14.62,71.37,14.62z"/>
		<path class="st0" d="M73.87,16.6c-0.3,0-0.3,0.49,0,0.49C74.17,17.09,74.17,16.6,73.87,16.6z"/>
		<path class="st0" d="M77.14,14.95h0.16c0.3,0,0.3-0.49,0-0.49h-0.16C76.84,14.45,76.84,14.95,77.14,14.95z"/>
		<path class="st0" d="M72.15,11.65c0.3,0,0.3-0.49,0-0.49C71.85,11.16,71.85,11.65,72.15,11.65z"/>
		<path class="st0" d="M77.92,14.29c0.3,0,0.3-0.49,0-0.49C77.62,13.8,77.62,14.29,77.92,14.29z"/>
		<path class="st0" d="M37.37,10.42h0.31c0.6,0,0.6-0.99,0-0.99h-0.31C36.76,9.43,36.76,10.42,37.37,10.42z"/>
		<path class="st0" d="M23.03,13.24c0.05-0.05,0.1-0.11,0.16-0.16c0.43-0.45-0.24-1.15-0.66-0.7c-0.05,0.06-0.1,0.11-0.16,0.17
			C21.95,12.99,22.61,13.69,23.03,13.24z"/>
		<path class="st0" d="M130.37,42.3c-1.09-8.29-6.27-15.99-14.66-16.49c-5.38-0.32-11.02,0.63-16.1,2.86
			c-0.07-1.97-0.21-3.99-0.79-5.78c-1.38-4.25-5.79-5.45-9.43-6.66c-0.52-0.17-1.04-0.33-1.56-0.5c-0.03,0.03-0.06,0.06-0.09,0.09
			c0,0,0,0.01,0,0.01c-0.4-0.17-0.81-0.3-1.24-0.41c-0.16-0.04-0.29,0-0.39,0.09c-2.78-2.73-6.28-4.61-9.95-5.8
			c-3.33-1.08-6.79-1.61-10.23-2.09c-1.97-0.28-3.94-0.53-5.9-0.85c-2.16-0.36-4.74-0.51-5.98-2.61c-0.93-1.56-1.5-4.75-3.96-4.06
			c-0.94,0.26-1.34,1.15-1.85,1.92c-1.19,1.81-2.66,3.14-4.55,4.09c-3.53,1.77-7.53,1.86-11.35,2.25c-3.36,0.34-6.67,0.99-9.89,2.07
			c-3.58,1.2-7.27,2.84-10.37,5.1c-0.09,0.06-0.17,0.14-0.26,0.2c-0.63,0.19-1.27,0.39-1.9,0.58c-0.08,0.03-0.14,0.07-0.19,0.12
			c-1.96,0.65-4.02,1.42-5.55,2.92c-3.38,3.32-3.53,9.2-3.57,13.72c-0.03,3.63,0.02,7.3,0.23,10.95c0,3.66,0.45,7.26,1.17,10.82
			c0.84,4.91,2.1,9.75,3.18,14.59c0.04,0.17,0.12,0.29,0.22,0.38c0.44,2.41,1.83,4.43,3.33,6.33c0.08,0.14,0.15,0.27,0.23,0.41
			c1.47,2.5,3.19,4.84,5.1,6.99c-4.22,0.95-8.24,3.45-10.03,7.77c-1.81,4.37-0.79,9.1,2.57,12.25c0.26,0.24,0.53,0.48,0.8,0.71
			c0.03,0.13,0.09,0.25,0.21,0.37c1.84,1.75,3.95,2.94,6.19,3.9c5,2.43,9.96,5.1,15.12,7.12c2.07,0.81,4.2,1.38,6.35,1.8
			c4.36,1.18,8.87,1.74,13.42,2.02c5.58,0.34,11.29,0.67,16.93,0.45l0.55,0.05c0.15,0.01,0.28-0.02,0.38-0.09
			c1.95-0.1,3.9-0.26,5.82-0.52c8.11-1.09,14.53-4.63,21.15-9.53c0.04-0.03,0.07-0.06,0.11-0.1c2.19-1.32,4.2-2.93,5.72-4.95
			c3.06-4.06,3.21-9.49-0.48-13.15c-3.76-3.73-9.53-5.44-14.59-6.42c0.2,0,0.41-0.07,0.61-0.23c0.7-0.58,1.34-1.21,1.93-1.89
			c10.43-0.37,20.83-3.89,29.17-10.43c3.11-2.15,5.97-4.68,8.18-7.56c2.49-3.25,4.27-7.09,5.22-11.14
			C130.49,50.25,130.9,46.31,130.37,42.3z M99.83,40.28c3.87-1.64,7.94-2.77,11.94-2.85c3.65-0.07,7.36,1.25,9.09,4.9
			c1.69,3.55,1.15,7.8-0.58,11.2c-3.26,6.41-9.84,11.05-15.95,14.03c-3.42,1.67-7.02,2.86-10.7,3.57c0-0.05,0-0.09,0-0.14
			c1.93-4.25,3.37-8.75,4.34-13.35C99.17,51.95,99.71,46.11,99.83,40.28z M20.1,12.88c1.88-0.78,3.8-1.4,5.75-1.89
			c-0.04,0.27,0.1,0.59,0.44,0.59c0.43,0,0.55-0.49,0.37-0.78c0.72-0.17,1.44-0.32,2.17-0.45c-0.07,0.11-0.12,0.25-0.12,0.41v0.17
			c0,0.39,0.32,0.76,0.7,0.74c0.38-0.02,0.7-0.33,0.7-0.74v-0.17c0-0.22-0.11-0.43-0.27-0.58c0.7-0.11,1.4-0.2,2.1-0.28
			c0.1,0.31,0.48,0.53,0.77,0.23c0.1-0.11,0.21-0.22,0.31-0.33c0,0,0-0.01,0.01-0.01c0.61-0.06,1.22-0.12,1.84-0.17v0.32
			c0,0.64,0.94,0.64,0.94,0V9.59c0-0.03-0.01-0.05-0.01-0.07c0.98-0.1,1.96-0.22,2.92-0.37c-0.14,0.16-0.25,0.36-0.31,0.58
			c-0.1,0.37,0.13,0.82,0.49,0.91c0.37,0.09,0.73-0.11,0.85-0.48c0.01,0,0.01,0,0.01,0c0.32,0.1,0.66,0.03,0.85-0.31
			c0.04-0.06,0.06-0.14,0.07-0.22c0.2,0.18,0.53,0.21,0.68-0.11c0.05-0.11,0.1-0.22,0.16-0.33c0.12-0.25,0.02-0.48-0.14-0.62
			c0.51-0.15,1.02-0.31,1.52-0.51c0.1-0.04,0.19-0.08,0.29-0.12c0,0.01,0,0.02,0,0.02c-0.19,0.07-0.37,0.14-0.56,0.21
			c-0.36,0.13-0.6,0.51-0.49,0.91c0.09,0.37,0.5,0.65,0.86,0.52c0.4-0.15,0.79-0.3,1.19-0.45C44.13,9.55,44.35,10,44.85,10
			c0.89,0,0.9-1.45,0.03-1.48c0.03-0.11,0.03-0.24,0-0.37c-0.09-0.37-0.5-0.65-0.86-0.52c-0.03,0.01-0.05,0.02-0.08,0.03
			c-0.02-0.01-0.04-0.03-0.07-0.03c1.05-0.49,2.06-1.08,2.97-1.83c0,0,0,0,0.01-0.01c-0.05,0.27,0.02,0.56,0.22,0.74l-0.22,0.11
			c-0.34,0.18-0.43,0.69-0.25,1.01c0.2,0.37,0.62,0.44,0.96,0.27l0.63-0.33c0.34-0.18,0.43-0.69,0.25-1.01
			c-0.08-0.14-0.19-0.23-0.32-0.28c0.19-0.44-0.01-1.09-0.61-1.09c-0.04,0-0.08,0.01-0.11,0.01c0.27-0.32,0.53-0.68,0.78-1.03
			c0.01,0.01,0.02,0.02,0.04,0.03c0.01,0.01,0.02,0.01,0.03,0.02c-0.02,0.07-0.04,0.15-0.04,0.23c0.02,0.4,0.31,0.74,0.7,0.74h0.02
			c-0.03,0.14-0.01,0.3,0.12,0.43l0.16,0.16c0.43,0.45,1.09-0.25,0.66-0.7l-0.06-0.06c0.17-0.14,0.28-0.35,0.27-0.58
			c-0.02-0.4-0.31-0.74-0.7-0.74h-0.2C49.15,3.67,49.09,3.6,49,3.55c-0.08-0.04-0.15-0.08-0.23-0.12c0.22-0.26,0.44-0.49,0.68-0.66
			c0.27-0.19,0.51-0.32,0.73-0.41c-0.05,0.18,0.01,0.36,0.13,0.49V3c0,0.64,0.94,0.64,0.94,0V2.84c0-0.1-0.03-0.17-0.06-0.24
			c0.06-0.1,0.07-0.2,0.05-0.3c0.94,0.39,1.22,2.1,1.88,3.21C53.06,5.52,53,5.56,52.95,5.62l-0.16,0.16
			c-0.43,0.45,0.24,1.15,0.66,0.7c0.05-0.05,0.1-0.11,0.16-0.16c0.04-0.04,0.06-0.08,0.08-0.13c0.28,0.26,0.59,0.47,0.91,0.65
			c-0.19,0.14-0.32,0.36-0.31,0.61c0,0.06,0.01,0.11,0.02,0.16h-0.1c-0.6,0-0.6,0.99,0,0.99h0.16c0.28,0,0.42-0.21,0.44-0.44
			c0.06,0.02,0.12,0.03,0.18,0.03h0.94c0.12,0,0.23-0.04,0.34-0.1c-0.01,0.06-0.02,0.12-0.02,0.18c0,0.58,0.78,0.63,0.91,0.14
			c0.25-0.08,0.35-0.36,0.3-0.6c0.6,0.14,1.21,0.27,1.82,0.38c0.02,0.04,0.03,0.07,0.07,0.11l0.16,0.17
			c0.25,0.26,0.57,0.13,0.72-0.11c0.32,0.05,0.63,0.1,0.95,0.14c-0.27,0.43-0.09,1.18,0.56,1.18h0.29c0.55,0,0.76-0.54,0.65-0.97
			c0.05,0.01,0.1,0.01,0.16,0.02c-0.02,0.26,0.13,0.54,0.45,0.54c0.27,0,0.41-0.2,0.44-0.42c1.53,0.2,3.07,0.38,4.59,0.62
			c-0.06,0.2-0.02,0.42,0.2,0.54l0.31,0.17c0.38,0.21,0.73-0.17,0.7-0.51c1.57,0.28,3.16,0.62,4.73,1.06
			c-0.01,0.02-0.02,0.03-0.03,0.06c-0.11,0.42,0.27,0.66,0.58,0.59c0.23,0.06,0.5-0.06,0.58-0.31c4.87,1.53,9.39,4.06,12.29,8.59
			c-12.15,4.46-24.86,6.93-37.63,7.42c-0.52,0.01-1.04,0.02-1.56,0.02c-6.61,0.04-13.21-0.43-19.77-1.21
			c-1.57-0.19-3.14-0.39-4.71-0.6c-4.62-0.82-9.21-1.9-13.74-3.26c-0.01-0.01-0.02-0.01-0.04-0.02
			C9.25,17.13,16.83,14.24,20.1,12.88z M95.85,91.09c1.89,1.24,3.7,2.98,4.27,5.34c0.75,3.06-0.65,6.18-2.63,8.35
			c-1.27,1.39-2.73,2.59-4.32,3.64c-0.11,0-0.24,0.04-0.36,0.13c-0.29,0.22-0.59,0.44-0.88,0.65c-6.03,3.54-13.61,5.04-19.99,5.7
			c-8.89,0.93-17.94,0.43-26.83-0.26c-10.07-0.78-19.92-2.77-29.17-7.15c-4.33-2.05-10.31-4.63-11.28-10.16
			c-1.17-6.63,4.53-11.25,10-12.41c0.21-0.04,0.34-0.16,0.42-0.3c2.63,2.76,5.61,5.15,8.84,7.09c-4.2,1.57-9.49,5.34-6.05,9.93
			c1.96,2.62,5.58,3.59,8.49,4.37c3.67,0.98,7.44,1.48,11.21,1.77c8.08,0.63,16.34,0.87,24.42,0.04c6.89-0.7,15.06-2.03,20.94-6.15
			c2.02-1.42,3.85-3.88,2.48-6.48c-1.35-2.57-5.06-3.64-7.77-4.61c1.83-1.21,3.59-2.58,5.24-4.14
			C87.31,87.26,91.99,88.56,95.85,91.09z M25.64,92.7c0.88,0.47,1.78,0.92,2.69,1.32c0.19,0.08,0.38,0.16,0.57,0.24
			c0.02,0.07,0.04,0.15,0.09,0.22c0.31,0.52,0.64,1,0.99,1.46c0.03,0.18,0.13,0.35,0.33,0.46c0.02,0.01,0.04,0.02,0.06,0.03
			c2.1,2.5,4.89,4.02,8.14,4.64c5.29,0.99,10.88,0.98,16.22,0.64c7.54-0.48,18.22-1.24,21.96-9.33c0.03-0.03,0.06-0.06,0.08-0.1
			c0.09-0.12,0.15-0.24,0.17-0.37c3.24,1.2,10.1,3.53,6.42,7.49c-2.48,2.68-6.87,3.83-10.19,4.8c-7.04,2.07-14.38,2.61-21.66,2.6
			c-7.39,0-15.03-0.11-22.3-1.64c-3.2-0.67-8-1.47-10.18-4.33C15.88,96.73,22.16,93.65,25.64,92.7z M85.68,81.44
			c-0.62,0.19-1.15,0.5-1.62,1.03c-0.34,0.2-0.67,0.42-0.99,0.65c0.04,0,0.09,0,0.13,0.01c-2.27,2.45-4.59,4.87-7.3,6.77
			c-3.17,2.22-6.72,2.86-10.17,4.35c-0.18,0.08-0.36,0.16-0.54,0.24c-3.66,0.87-7.43,1.26-11.18,1.42
			c-5.11,0.21-10.32,0.22-15.39-0.51c-1.91-0.27-3.78-0.7-5.6-1.26c-0.32-0.15-0.63-0.31-0.95-0.48c-3.25-1.73-6.49-3.52-9.55-5.6
			c-3.31-2.24-6.21-4.97-8.83-8.06c-0.84-0.99-1.87-2.11-2.88-3.3c-0.23-0.35-0.45-0.7-0.66-1.06c-0.21-0.36-0.41-0.72-0.6-1.09
			c0,0,0-0.01,0-0.01c-0.1-0.19-0.2-0.38-0.3-0.58c-1.35-2.78-2.21-5.8-3.1-8.77C5.1,61.7,4.11,58.18,3.4,54.62
			c-0.05-0.3-0.11-0.59-0.16-0.89C2.66,50.29,2.4,46.79,2.25,43.3c0-0.2,0-0.39,0.01-0.59c0-0.1-0.01-0.2-0.04-0.28
			c-0.07-1.86-0.12-3.72-0.16-5.57c-0.12-4.84-0.71-12.01,2.6-15.9c1.32-1.55,3.17-2.32,5.02-2.95c-0.58,0.92-0.93,1.95-0.94,3.1
			c-0.03-0.02-0.07-0.05-0.11-0.07c-0.75-0.54-1.45,0.74-0.71,1.28c0.02,0.02,0.04,0.03,0.07,0.04c0.03,0.09,0.09,0.18,0.2,0.25
			c0.34,0.2,0.68,0.39,1.03,0.56c0.07,0.07,0.16,0.13,0.27,0.17c0.08,0.02,0.16,0.05,0.24,0.07c0.84,0.42,1.73,0.72,2.64,0.93
			c1.06,0.28,2.14,0.49,3.23,0.68c17.09,4.24,34.88,4.76,52.13,1.61c0.55-0.08,1.1-0.16,1.65-0.24c6.27-0.99,12.78-2.1,18.46-5.22
			c0.14-0.05,0.28-0.1,0.42-0.15c0.06-0.02,0.12-0.06,0.17-0.09c0,0,0.01,0.01,0.01,0.01c0.08-0.1,0.16-0.19,0.26-0.27
			c0.11-0.07,0.22-0.13,0.33-0.19c0.22-0.14,0.26-0.37,0.19-0.57c0.05-0.07,0.09-0.13,0.15-0.18c-0.46-0.82-0.98-1.58-1.54-2.3
			c0.1-0.02,0.21-0.02,0.31-0.03c0.68,0.22,1.36,0.43,2.03,0.66c0.71,0.24,1.46,0.49,2.21,0.77c0.63,0.36,1.21,0.73,1.69,1.03
			c1.63,1.02,2.59,1.98,2.96,3.91c0.23,1.2,0.37,2.42,0.44,3.64c0.01,0.09,0,0.39,0,0.76c-0.04,0.11-0.06,0.23-0.06,0.37
			c0.09,3.68,0.17,7.36,0.26,11.05c-0.18,0.48-0.25,1.05-0.15,1.74c0.01,0.09,0.04,0.15,0.08,0.2c-0.08,1.06-0.17,2.13-0.25,3.19
			c-0.01,0.17,0.04,0.29,0.13,0.37c-0.49,4.52-1.08,9.02-1.77,13.51c-0.31,1.97-0.58,3.96-1.15,5.85c-0.15,0.45-0.3,0.9-0.46,1.34
			c-0.11,0.29-0.23,0.57-0.37,0.85c-0.6,1.25-1.24,2.39-1.66,3.64c-0.07,0.07-0.13,0.15-0.19,0.26
			C90.02,74.22,88.34,78.28,85.68,81.44z M105.65,77.17c-1.43,0.57-2.86,1.06-4.28,1.45c-4.17,1.13-8.54,2.27-12.85,2.47
			c-0.05,0-0.09,0-0.13,0.01c1.78-2.57,3.14-5.51,4.52-8.34c0.49-0.08,0.98-0.18,1.46-0.28c2.86-0.33,5.73-0.76,8.46-1.74
			c3.29-1.18,5.87-3.28,8.5-5.57c2.07-1.47,4-3.14,5.77-4.99c3.68-3.37,6.88-7.25,6.84-12.72c-0.02-2.77-1.01-5.14-2.58-7.01
			c-1.72-2.53-4.44-3.95-7.46-4.36c-0.24-0.05-0.48-0.1-0.72-0.14c-3.74-0.61-7.56,0.07-11.2,0.97c-0.83,0.2-1.71,0.45-2.48,0.82
			l-0.17-7.41c0.19-0.05,0.39-0.1,0.58-0.14c0.91-0.4,1.84-0.76,2.78-1.07c0.04-0.01,0.07-0.02,0.11-0.03
			c0.02-0.01,0.04-0.01,0.05-0.02c2.29-0.68,4.62-1.2,6.99-1.52c0.08-0.01,0.15-0.02,0.23-0.03c0.47-0.05,0.93-0.1,1.4-0.13
			c4.58-0.34,8.98,0.04,12.38,3.67c1.55,1.65,2.73,3.62,3.6,5.74c1.17,3.15,1.71,6.65,1.77,9.83
			C128.96,60.57,117.47,71.67,105.65,77.17z"/>
		<path class="st0" d="M50.94,8.27h0.16c0.6,0,0.6-0.99,0-0.99h-0.16C50.34,7.29,50.33,8.27,50.94,8.27z"/>
		<path class="st0" d="M68.1,11.41h0.16c0.6,0,0.6-0.99,0-0.99H68.1C67.49,10.42,67.49,11.41,68.1,11.41z"/>
		<path class="st0" d="M71.53,11.24c0.6,0,0.6-0.99,0-0.99C70.93,10.25,70.93,11.24,71.53,11.24z"/>
		<path class="st0" d="M73.56,11.9c0.6,0,0.6-0.99,0-0.99C72.95,10.91,72.95,11.9,73.56,11.9z"/>
		<path class="st0" d="M51.72,12.72v-0.16c0-0.64-0.94-0.64-0.94,0v0.16C50.78,13.36,51.72,13.36,51.72,12.72z"/>
		<path class="st0" d="M47.04,10.75c0.6,0,0.6-0.99,0-0.99C46.44,9.76,46.43,10.75,47.04,10.75z"/>
		<path class="st0" d="M44.54,12.72c0.6,0,0.6-0.99,0-0.99C43.94,11.74,43.94,12.72,44.54,12.72z"/>
		<path class="st0" d="M39.08,15.03c0.6,0,0.6-0.99,0-0.99C38.48,14.04,38.48,15.03,39.08,15.03z"/>
		<path class="st0" d="M54.84,14.54c0.6,0,0.6-0.99,0-0.99C54.24,13.55,54.23,14.54,54.84,14.54z"/>
		<path class="st0" d="M56.87,11.08c-0.6,0-0.6,0.99,0,0.99c0.24,0,0.38-0.16,0.43-0.35c0.25,0.02,0.51-0.13,0.51-0.47v-0.16
			C57.8,10.44,56.87,10.44,56.87,11.08z"/>
		<path class="st0" d="M61.21,12.37l-0.16,0.17c-0.43,0.45,0.24,1.15,0.66,0.7l0.16-0.16C62.3,12.62,61.64,11.92,61.21,12.37z"/>
		<path class="st0" d="M42.98,10.75h0.16c0.6,0,0.6-0.99,0-0.99h-0.16C42.38,9.76,42.38,10.75,42.98,10.75z"/>
		<path class="st0" d="M48.44,11.24h0.16c0.6,0,0.6-0.99,0-0.99h-0.16C47.84,10.25,47.84,11.24,48.44,11.24z"/>
		<path class="st0" d="M38.61,11.74h0.16c0.6,0,0.6-0.99,0-0.99h-0.16C38.01,10.75,38.01,11.74,38.61,11.74z"/>
		<path class="st0" d="M9.38,36.1c0.08-0.95-1.32-0.94-1.4,0c-0.58,6.9,0.05,13.76,1.86,20.42c0.25,0.92,1.6,0.53,1.35-0.39
			C9.42,49.59,8.82,42.88,9.38,36.1z"/>
		<path class="st0" d="M14.73,47.25c-0.03-0.95-1.43-0.96-1.4,0c0.11,3.64,0.73,7.16,1.88,10.59c0.3,0.89,1.66,0.51,1.35-0.39
			C15.45,54.14,14.84,50.76,14.73,47.25z"/>
		<path class="st0" d="M82.49,70.27c-0.82,5.68-3.26,10.76-7.14,14.8c-0.65,0.67,0.35,1.72,0.99,1.05c4.04-4.2,6.65-9.53,7.5-15.45
			C83.97,69.73,82.62,69.32,82.49,70.27z"/>
	</g>
</g>
</svg>
