<?xml version="1.0" encoding="utf-8"?>
<!-- Generator: Adobe Illustrator 25.0.0, SVG Export Plug-In . SVG Version: 6.00 Build 0)  -->
<svg version="1.1" id="Layer_1" xmlns="http://www.w3.org/2000/svg" xmlns:xlink="http://www.w3.org/1999/xlink" x="0px" y="0px"
	 viewBox="0 0 60 100" style="enable-background:new 0 0 60 100;" xml:space="preserve">
<style type="text/css">
	.st0{fill:#FFFFFF;stroke:#212121;stroke-width:0.25;stroke-miterlimit:10;}
	.st1{fill:#FFFFFF;}
</style>
<g>
	<g>
		<path class="st0" d="M59.7,61.7c-0.3-11.1-0.2-22.5-2.5-33.3C55.9,22.1,54.4,16,53,9.8c-0.1-0.6-0.9-0.4-0.7,0.3
			c2.5,10.8,5.5,21.5,6.1,32.9c0.6,11.2,0.8,22.5,0.8,33.7c0,6.6-0.2,13.1-0.5,19.6c0,0.7,0.7,0.7,0.7,0C60,84.8,60,73.2,59.7,61.7z
			"/>
		<path class="st0" d="M58.8,96.3c-7,3.1-14.2,2.8-21.4,2.6c-3.6-0.1-7.3-0.2-10.9-0.2c-1.8,0-3.6-0.1-5.5-0.1
			c-1.7,0-3.7,0.3-5.4-0.1c-1.4-0.3-1.6-1.2-1.8-2.8c-0.2-1.5-0.3-2.9-0.3-4.4c-0.1-2.4-0.1-4.8-0.1-7.2c-0.1-4.9-0.2-9.9-0.4-14.8
			c-0.5-9.6-1.3-19.1-2.5-28.6c-0.7-5.4-1.4-10.8-2.3-16c-0.4-2.2-1-4.2-1.8-6.2c-1-2.3-2.3-4.7-1.8-7.5C4.7,10.3,4,10,3.8,10.6
			C3,14.9,5.7,18.3,6.8,22C8.1,26.7,8.6,32,9.3,37c1.4,10.3,2.4,20.7,2.9,31.2c0.3,5.2,0.4,10.5,0.5,15.8c0,2.5,0,5,0.1,7.5
			c0.1,1.9,0,4.8,0.7,6.6c0.5,1.3,1.6,1.3,2.6,1.3c2.1,0.1,4.3,0.1,6.5,0.2c3.8,0.1,7.6,0.2,11.4,0.3c8.4,0.2,17,1.1,25.1-2.6
			C59.5,97.1,59.3,96.1,58.8,96.3z"/>
		<path class="st0" d="M14,98.2c-2.4-0.5-4.9-1-7.3-1.5c-1.1-0.2-2.2-0.3-3.3-0.7c-1.5-0.5-1.5-2.8-1.6-4.5
			c-0.4-6.3-0.7-12.7-0.9-19.1c-0.4-12.8-0.3-25.8,1-38.6c0.7-7.1,1.8-14.1,3.3-21c0.1-0.6-0.6-0.9-0.7-0.3
			C1.6,25.6,0.3,39.1,0,52.7c-0.2,6.8-0.1,13.6,0.2,20.4c0.2,6.8,0.4,13.7,1.1,20.4c0.3,3,1.5,3.5,3.6,3.9c3,0.6,6,1.3,9,1.9
			C14.3,99.3,14.5,98.3,14,98.2z"/>
		<path class="st0" d="M54.3,7.8c-0.2-1.6-0.7-3.2-1.3-4.6c-0.5-1.2-0.8-2.8-2.2-3c-1.7-0.3-3.5-0.1-5.2,0c-2,0.1-4,0.3-6,0.5
			c-3.5,0.5-7,1.1-10.5,1.8C20.9,4.2,12.6,6,4.1,5.8c-0.4,0-0.5,0.4-0.3,0.7C4.9,8,5.1,9.9,4.5,11.7c-0.3,0.1-0.4,0.5-0.1,0.8
			c0.1,0.2,0.3,0.3,0.5,0.2c3.2,1.3,7,0.9,10.3,0.9c3.7-0.1,7.5-0.3,11.2-0.7c7.4-0.7,14.9-1.6,22.3-2.2c0.8-0.1,1.7-0.1,2.5-0.2
			c0.8-0.1,1.8,0.1,2.5-0.2C54.6,9.9,54.4,8.8,54.3,7.8z M52.9,9.5c-0.7,0.2-1.6,0.1-2.3,0.1c-1,0.1-2,0.1-3,0.2
			c-6.8,0.6-13.5,1.4-20.3,2.1c-3.7,0.3-7.4,0.6-11.2,0.7c-3.5,0.1-7.6,0.6-10.9-0.7c0.6-1.8,0.5-3.7-0.4-5.3
			C18,6.8,30.6,2.2,43.7,1.2C45.4,1,47,1,48.7,1c0.8,0,1.7-0.2,2.4,0.4c0.8,0.6,1.2,2.1,1.6,3.1C53.1,5.7,54.4,9,52.9,9.5z"/>
		<path class="st0" d="M4.9,12.2c-0.5-1.6-1.3-4.3-0.4-5.9c0.3-0.4-0.4-0.9-0.7-0.4c-1.1,1.7-0.2,4.7,0.3,6.5
			C4.3,13,5,12.7,4.9,12.2z"/>
		<path class="st0" d="M24.8,3.2h-0.1c-0.2,0-0.4,0.2-0.4,0.4S24.5,4,24.7,4h0.1c0.2,0,0.4-0.2,0.4-0.4C25.2,3.3,25,3.2,24.8,3.2z"
			/>
		<path class="st0" d="M30.9,4.8c-0.5-1.3-1-2.2-2.3-2.5c-1.2-0.2-2.4-0.1-3.5,0.3c-0.7,0-1.5,0.1-2.2,0.2c-0.3,0-0.5,0.3-0.3,0.6
			c1.2,2.6,2.1,5.3,2.9,8.1c0.3,1.3,0.6,2.7,0.8,4c0.2,1,0.2,2.1,0.7,3c0.2,0.3,0.6,0.2,0.7-0.1c0.1-0.4,0.2-0.8,0.3-1.2
			c0.3,0.5,0.6,1,1,1.5c0.2,0.3,0.7,0.3,0.7-0.1c0.1-0.7,0.2-1.4,0.3-2.1c0.3,0.3,0.5,0.6,0.8,0.9c0.2,0.3,0.6,0.1,0.7-0.3
			c0-0.4,0-0.7,0-1.1c0.5,0.5,1,1.1,1.4,1.7c0.3,0.4,0.8,0.1,0.7-0.3C32.9,13.2,32.3,8.8,30.9,4.8z M31.2,14.8
			c-0.2-0.2-0.6,0.1-0.6,0.4l0,1c-0.2-0.3-0.5-0.5-0.7-0.8c-0.2-0.2-0.6-0.1-0.6,0.2L29,17.4c-0.3-0.5-0.6-0.9-0.9-1.4
			c-0.2-0.3-0.6-0.3-0.7,0.1l-0.2,0.9c-0.2-0.9-0.3-1.9-0.4-2.7c-0.2-1.4-0.6-2.7-0.9-4c-0.6-2.3-1.5-4.5-2.4-6.7c0.2,0,0.3,0,0.5,0
			c0.1,0.2,0.2,0.3,0.4,0.2c0.2-0.1,0.5-0.2,0.8-0.3c0.4,0,0.9,0,1.3-0.1c0.2,0,0.3-0.2,0.4-0.4c0.7-0.1,1.4-0.1,2,0.2
			c1.5,0.8,1.8,3.2,2.2,4.8c0.6,2.6,1.1,5.3,1.4,7.9C32.1,15.6,31.7,15.2,31.2,14.8z"/>
		<path class="st0" d="M31.8,11.9c0-0.1-0.1-0.1-0.2-0.2c0-0.2,0-0.3-0.1-0.5c-0.1-0.7-0.1-1.4-0.2-2.2c0-0.1,0-0.1,0-0.2
			c0-0.1,0-0.1,0-0.2c0-0.1,0-0.1,0-0.2c0-0.1,0-0.1-0.1-0.2c-0.1-0.4-0.2-0.8-0.3-1.2c-0.1-0.4-0.2-0.8-0.3-1.2c0,0,0-0.1,0-0.1
			c-0.2-1-0.5-2-0.7-3.1c-0.1-0.4-0.8-0.4-0.8,0c-0.1,0-0.2,0-0.3,0.1c0,0,0,0-0.1-0.1c0-0.2-0.1-0.4-0.4-0.3
			c-0.3,0-0.4,0.1-0.7,0.3c0,0,0,0,0,0.1c-0.1,0.1-0.2,0.3-0.2,0.5c-0.2-0.3-0.7-0.2-0.7,0.2l0,0c-0.1-0.2-0.2-0.3-0.3-0.5
			c-0.2-0.3-0.8-0.3-0.7,0.2c0,0.2,0,0.3,0,0.5c0-0.1-0.1-0.2-0.2-0.2c-0.3-0.4-0.7,0-0.6,0.4c0,0,0,0-0.1,0
			c-0.1-0.2-0.4-0.2-0.5-0.1c0-0.1-0.1-0.2-0.1-0.2c-0.2-0.4-0.9-0.1-0.7,0.3C23.7,4.6,23.8,5,24,5.5c0.3,0.7,0.6,1.5,0.9,2.2
			c0,0,0,0.1,0,0.1c0.4,2.5,1.1,4.9,1.9,7.2c0.1,0.4,0.5,0.4,0.7,0.1c0.1,0.2,0.1,0.4,0.2,0.6c0.1,0.4,0.8,0.4,0.8-0.1
			s0-1.1-0.1-1.6c0.1,0.4,0.2,0.9,0.3,1.3c0.1,0.4,0.8,0.4,0.8-0.1c0,0.1,0.1,0.2,0.1,0.4c0.1,0.4,0.8,0.4,0.8-0.1
			c0-0.1,0-0.2,0-0.2c0.1,0.1,0.3,0.1,0.5,0.2C32.7,15.6,32.2,13,31.8,11.9z M27.5,11.4c0,0.1,0.1,0.1,0.1,0.1c0,0.3,0,0.6,0,1
			c0-0.1-0.1-0.3-0.1-0.4C27.5,11.9,27.5,11.6,27.5,11.4z M29.2,9.9c0,0.3,0,0.5,0.1,0.8C29.2,10.4,29.2,10.1,29.2,9.9
			C29.2,9.9,29.2,9.9,29.2,9.9z M26.7,5.4c0.1,0.2,0.2,0.4,0.2,0.6C27,6,27,6,27,6.1c-0.1-0.1-0.1-0.2-0.2-0.3
			C26.8,5.6,26.7,5.5,26.7,5.4z"/>
		<path class="st0" d="M32.2,11.8c-0.1-0.7-0.3-1.4-0.4-2.1c0-0.3-0.3-0.4-0.5-0.3c-0.2-0.5-0.9-0.3-0.7,0.3c0.2,0.7,0.4,1.4,0.7,2
			l0,0.3c0,0.2,0.1,0.3,0.2,0.3C31.8,12.5,32.2,12.2,32.2,11.8z"/>
		<path class="st0" d="M30.8,4.4c-0.2-0.7-0.4-2-1-2.5c-0.7-0.5-2-0.1-2.8,0c-1.3,0.2-2.5,0.4-3.8,0.8c-0.5,0.1-0.3,1,0.2,0.8
			C24.2,3.2,25,3,25.7,2.9c0.8-0.2,2.1-0.5,2.9-0.3c1.7,0.4,1.9,4.2,2,5.8c0,0.6,0.8,0.6,0.8,0C31.3,7,31.1,5.7,30.8,4.4z"/>
		<path class="st0" d="M33.2,16c-0.2-0.5-0.3-1-0.4-1.5c0-0.3-0.1-0.7-0.2-1c-0.1-0.4-0.4-0.4-0.6-0.2c0-0.1-0.1-0.1-0.1-0.2
			c-0.1-0.2-0.5-0.3-0.7,0c-0.2,0.6-0.4,1.2-0.6,1.8c-0.1,0-0.3,0-0.3,0.1c0.3-0.4-0.8-0.8-1-0.7c-0.2,0-0.3,0.2-0.5,0.3
			c-0.1-0.1-0.2-0.1-0.3-0.1c-0.1-0.1-0.2-0.1-0.4,0c-0.1-0.2-0.2-0.4-0.2-0.5c0-0.8,0.1-1.6,0.1-2.4c0-0.6-0.8-0.6-0.8,0
			c0,0.6,0,1.1-0.1,1.7c-0.2-0.1-0.5,0.1-0.5,0.4c0,0.2,0,0.4,0,0.6c0,0,0,0.1,0,0.1c-0.1,0.9-0.1,1.8,0.2,2.6
			c0.1,0.5,0.8,0.4,0.8-0.1c0-0.2,0-0.4,0-0.6c0.3,0.3,0.5,0.4,0.9,0.4c0.1,0.3,0.2,0.6,0.3,0.9c0.2,0.4,0.7,0.2,0.7-0.2
			c0-0.6-0.1-1.1-0.2-1.7c0.1-0.2,0.2-0.4,0.4-0.4c0,0,0.2,0.4,0.2,0.4c0.2,0.1,0.4,0.2,0.5,0.2c0,0.1,0.1,0.1,0.1,0.2
			c0.1,0.3,0.6,0.2,0.7-0.1c0-0.3,0.1-0.5,0.2-0.8c0.3,0.4,0.6,0.8,0.9,1.2c0.1,0.1,0.2,0.1,0.3,0.1c0,0,0,0,0,0
			C33,16.7,33.4,16.3,33.2,16z"/>
		<path class="st0" d="M6.7,34.9c-1.3,4-2.2,8.1-2.9,12.2c-0.1,0.5,0.7,0.8,0.8,0.2c0.7-4.2,1.6-8.2,2.9-12.2
			C7.7,34.6,6.9,34.3,6.7,34.9z"/>
		<path class="st0" d="M6.6,46.7c-0.3,0.9-0.4,1.8-0.4,2.7c0,0.5,0.8,0.6,0.8,0c0-0.9,0.1-1.7,0.3-2.5C7.5,46.4,6.8,46.2,6.6,46.7z"
			/>
		<path class="st0" d="M54.3,74.6c-0.1-0.5-0.8-0.3-0.8,0.2c1.1,5.9,1.2,12,0.4,17.9c-0.1,0.5,0.7,0.8,0.8,0.2
			C55.5,86.9,55.4,80.7,54.3,74.6z"/>
		<path class="st0" d="M57.5,87.6c-0.1-0.5-0.8-0.3-0.8,0.2c0.2,1.2,0.2,2.4,0,3.7c-0.1,0.5,0.7,0.8,0.8,0.2
			C57.8,90.3,57.8,88.9,57.5,87.6z"/>
		<path class="st0" d="M50,42.3c0.3-0.3,0.3-0.9-0.1-1c-0.3-3.8-0.8-7.7-1.5-11.5c-1.1-6.5-2.6-12.9-4.3-19.3
			c-0.1-0.5-0.9-0.3-0.8,0.2c2.7,10.1,4.8,20.2,5.8,30.6c-9.8,1-19.5,1.5-29.3,1.4c-0.4-3.7-0.9-7.3-1.5-10.9
			c-1-6.2-2.4-12.4-4-18.4c-0.1-0.5-0.9-0.3-0.8,0.2c5.8,21.3,7.4,43.7,7.2,65.9c0,6.3-0.2,12.7-0.5,19.1c0,0.6,0.8,0.6,0.8,0
			c0.4-9.3,0.6-18.6,0.5-27.8c3.4,0.2,6.7,0.2,10,0.1c2.1,0.2,4.2,0.1,6.4-0.2c0.2,0,0.3-0.1,0.4-0.1c3.8-0.3,7.6-0.8,11.4-1.4
			c-0.1,3.5-0.3,7-0.5,10.5c-0.4,6.5-0.9,13-1.5,19.5c0,0.6,0.7,0.6,0.8,0C50,80.3,51.6,61.2,50,42.3z M27.8,52.9
			c0,0.1,0.1,0.2,0.1,0.3c-0.1,0.2-0.1,0.3-0.1,0.5c0,0,0,0.1,0,0.2c0,0-0.1,0-0.1,0C27.6,53.6,27.7,53.2,27.8,52.9z M46.2,65.4
			c0.3,0,0.6,0,0.9,0c0.1,0,0.2,0,0.2-0.1c0,0,0,0.1,0,0.1C47,65.4,46.6,65.4,46.2,65.4C46.2,65.4,46.2,65.4,46.2,65.4z M42.5,43.3
			c-0.5,0-1,0-1.5,0c0.6,0,1.1-0.1,1.7-0.1C42.6,43.2,42.6,43.2,42.5,43.3z M30.3,43.9c-0.1,0-0.2,0-0.3,0
			C30.1,43.8,30.2,43.8,30.3,43.9C30.3,43.8,30.3,43.8,30.3,43.9z M20.5,48.5c0,0.3,0,0.7,0,1c-0.1-0.7-0.1-1.5-0.2-2.2
			C20.4,47.7,20.5,48.1,20.5,48.5z M21.2,58.5c0,0,0,0.1,0,0.1c0,0.5,0,1-0.1,1.4c0,0,0,0,0,0c0-0.8-0.1-1.7-0.1-2.5
			C21.1,57.9,21.2,58.2,21.2,58.5z M26,69.7C26,69.7,26.1,69.8,26,69.7c-0.2,0.1-0.4,0-0.6,0C25.6,69.8,25.8,69.7,26,69.7z
			 M20.1,43.9c0,0,0,0.1,0,0.1c0,0,0,0,0,0c0-0.1,0-0.1,0-0.2C20,43.9,20,43.9,20.1,43.9z M49.6,68C49.6,68,49.6,68,49.6,68
			c0-0.2,0.1-0.4,0.1-0.7c0-1.1,0-2.2,0-3.4c0-0.1,0.1-0.1,0.2-0.2c0,1.4-0.1,2.8-0.1,4.2C49.7,68,49.6,68,49.6,68z"/>
		<g>
			<path class="st1" d="M28.5,66.7c-0.2-0.1-0.3-0.2-0.5-0.4c-0.1-0.2-0.2-0.4-0.3-0.7c-0.1-0.3-0.2-0.6-0.2-0.8
				c-0.1-0.5-0.2-1.2-0.2-2c0-0.2,0-0.5,0-1l0-0.8c0-0.2,0-0.5,0-0.7c0-0.5,0-0.9,0-1.2c0-0.1,0-0.3,0-0.4c0-0.5,0.1-0.9,0.5-1.2
				s0.8-0.5,1.3-0.5c0.2,0,0.4,0,0.5,0.2c0.2,0.1,0.3,0.3,0.3,0.4c0,0.1,0,0.2-0.1,0.2c-0.1,0-0.1,0.1-0.2,0.1c-0.1,0-0.2,0-0.2,0
				S29,57.8,29,57.7l-0.1,0v0c-0.3,0-0.5,0.1-0.7,0.2c-0.1,0.1-0.2,0.3-0.3,0.6c0,0.1,0,0.2-0.1,0.4c0,0.1,0,0.3,0,0.4
				c0,0.1,0,0.2,0,0.4l0,0.4l0,0.4c0,0.1,0,0.3,0,0.5c0,0.2,0,0.4,0,0.5l0,0.3c0,0.3,0,0.8,0.1,1.3c0,0.5,0.1,1,0.2,1.4
				c0.1,0.4,0.2,0.8,0.4,1.1c0.2,0.3,0.4,0.5,0.8,0.4c0.1,0,0.3-0.1,0.5-0.2c0.2-0.2,0.3-0.2,0.4-0.2c0.1,0,0.2,0.1,0.3,0.2
				c0,0.3-0.1,0.6-0.3,0.7c-0.2,0.2-0.4,0.3-0.7,0.3c-0.1,0-0.3,0-0.4,0C28.9,66.8,28.7,66.8,28.5,66.7z"/>
			<path class="st1" d="M32.3,66.6c-0.2-0.2-0.3-0.3-0.5-0.6c-0.2-0.4-0.4-1.1-0.5-1.8c-0.1-0.5-0.2-1.2-0.2-1.9l0-0.7l0-0.7
				c0-0.2,0-0.5,0-0.8c0-0.5,0-1,0-1.3c0-0.4,0.1-0.8,0.2-1.2c0.1-0.3,0.3-0.6,0.5-0.8c0.1-0.1,0.3-0.1,0.4-0.1c0.4,0,0.7,0.2,1,0.5
				c0.3,0.4,0.5,0.8,0.5,1.3c0.1,0.6,0.2,1.2,0.3,1.7c0,0.6,0.1,1.2,0.1,1.7l0,0.7c0,0.1,0,0.4,0,0.8c0,0.3,0,0.6,0,0.8v0.1
				c0,0.2,0,0.5,0,0.8c0,0.2,0,0.5-0.1,0.7c-0.1,0.3-0.2,0.5-0.4,0.7c-0.2,0.2-0.3,0.3-0.6,0.3C32.7,66.8,32.5,66.8,32.3,66.6z
				 M33.2,65.7c0.1-0.3,0.1-0.6,0.2-1c0-0.4,0-0.9,0.1-1.4c0-0.2,0-0.5,0-0.8l0-1.2c0-0.5-0.1-1-0.2-1.7C33.2,59,33,58.5,32.9,58
				c-0.1-0.2-0.2-0.4-0.3-0.5s-0.2-0.2-0.4-0.2c-0.2,0-0.3,0.2-0.4,0.5c-0.1,0.3-0.2,0.7-0.2,1.2c0,0.5,0,0.9,0,1.3v0.4
				c0,0.1,0,0.3,0,0.5v0c0,0.6,0.1,1.3,0.2,2.1c0.2,1.1,0.4,1.9,0.6,2.4c0.2,0.3,0.3,0.4,0.5,0.4C33,66.1,33.2,66,33.2,65.7z"/>
			<path class="st1" d="M35.7,65.6c0-1-0.1-2.5-0.3-4.7c-0.2-2.2-0.3-3.3-0.3-3.4c0-0.2,0.1-0.4,0.2-0.5c0.1,0,0.1-0.1,0.2-0.1
				c0.1,0,0.2,0,0.3-0.1c0,0,0.1,0,0.3,0c0.2,0,0.3,0,0.4,0.1s0.1,0.2,0.1,0.3c0,0.1,0,0.2-0.1,0.2c-0.1,0-0.1,0.1-0.2,0.1l-0.1,0
				l-0.2,0c-0.2,0-0.3,0.1-0.3,0.2c0,0.4,0.1,1,0.1,1.7c0.1,0.6,0.1,1.2,0.2,1.7c0,0,0.2,0,0.3-0.1c0.2,0,0.3-0.1,0.3-0.1
				c0.1,0,0.2,0,0.2,0.1s0.1,0.2,0.1,0.3c0,0.1,0,0.2-0.1,0.3c0,0,0,0-0.1,0.1c-0.1,0-0.1,0-0.2,0.1c-0.1,0-0.2,0-0.3,0l-0.1,0
				c0,0.5,0.1,1.2,0.2,2.1c0.1,0.9,0.2,1.6,0.2,2.1l0,0.1l0,0c0,0,0,0.1,0,0.2c0,0.1,0,0.2-0.1,0.3c-0.1,0.1-0.2,0.1-0.3,0.1
				C35.8,66.4,35.7,66.1,35.7,65.6z"/>
			<path class="st1" d="M38.7,65.4c0-1-0.1-2.5-0.3-4.7c-0.2-2.2-0.3-3.3-0.3-3.4c0-0.2,0.1-0.4,0.2-0.5c0.1,0,0.1-0.1,0.2-0.1
				c0.1,0,0.2,0,0.3-0.1c0,0,0.1,0,0.3,0c0.2,0,0.3,0,0.4,0.1s0.1,0.2,0.1,0.3c0,0.1,0,0.2-0.1,0.2c-0.1,0-0.1,0.1-0.2,0.1l-0.1,0
				l-0.2,0c-0.2,0-0.3,0.1-0.3,0.2c0,0.4,0.1,1,0.1,1.7c0.1,0.6,0.1,1.2,0.2,1.7c0,0,0.2,0,0.3-0.1c0.2,0,0.3-0.1,0.3-0.1
				c0.1,0,0.2,0,0.2,0.1S40,61,40,61.1c0,0.1,0,0.2-0.1,0.3c0,0,0,0-0.1,0.1c-0.1,0-0.1,0-0.2,0.1c-0.1,0-0.2,0-0.3,0l-0.1,0
				c0,0.5,0.1,1.2,0.2,2.1c0.1,0.9,0.2,1.6,0.2,2.1l0,0.1l0,0c0,0,0,0.1,0,0.2c0,0.1,0,0.2-0.1,0.3c-0.1,0.1-0.2,0.1-0.3,0.1
				C38.8,66.2,38.7,66,38.7,65.4z"/>
			<path class="st1" d="M41.7,66.1c-0.1,0-0.2-0.2-0.2-0.3l-0.2-7.4c0-0.1,0-0.4-0.1-0.6c-0.1-0.3-0.1-0.5-0.1-0.6v0
				c0.1-0.2,0.2-0.4,0.3-0.5c0.1,0,0.2,0,0.4-0.1c0.2,0,0.3-0.1,0.4-0.1s0.2,0,0.4,0.1s0.2,0.2,0.2,0.3c0,0.2-0.2,0.4-0.5,0.4
				l-0.2,0c0,0-0.1,0-0.2,0c-0.1,0-0.1,0-0.1,0c0,0.3,0,0.6,0.1,1l0,0.3l0,0.7c0,0.2,0,0.4,0,0.7v0.7l0.2,0c0.2-0.1,0.3-0.1,0.4-0.1
				c0.1,0,0.2,0,0.2,0.1s0.1,0.2,0.1,0.2c0,0.1,0,0.2-0.1,0.3c0,0.1-0.1,0.1-0.2,0.1l-0.1,0l-0.2,0c-0.1,0-0.2,0-0.2,0.1l0.1,3.9
				l0.6-0.1c0.4,0,0.7,0.1,0.7,0.3v0.1c0,0.1-0.1,0.2-0.2,0.3c-0.1,0.1-0.2,0.1-0.3,0.1l-0.4,0l-0.3,0
				C41.9,66.2,41.8,66.2,41.7,66.1z"/>
			<path class="st1" d="M44.8,66c-0.1,0-0.2-0.2-0.2-0.3l-0.2-7.4c0-0.1,0-0.4-0.1-0.6c-0.1-0.3-0.1-0.5-0.1-0.6v0
				c0.1-0.2,0.2-0.4,0.3-0.5c0.1,0,0.2,0,0.4-0.1c0.2,0,0.3-0.1,0.4-0.1s0.2,0,0.4,0.1s0.2,0.2,0.2,0.3c0,0.2-0.2,0.4-0.5,0.4
				l-0.2,0c0,0-0.1,0-0.2,0c-0.1,0-0.1,0-0.1,0c0,0.3,0,0.6,0.1,1l0,0.3l0,0.7c0,0.2,0,0.4,0,0.7v0.7l0.2,0c0.2-0.1,0.3-0.1,0.4-0.1
				c0.1,0,0.2,0,0.2,0.1s0.1,0.2,0.1,0.2c0,0.1,0,0.2-0.1,0.3c0,0.1-0.1,0.1-0.2,0.1l-0.1,0l-0.2,0c-0.1,0-0.2,0-0.2,0.1l0.1,3.9
				l0.6-0.1c0.4,0,0.7,0.1,0.7,0.3v0.1c0,0.1-0.1,0.2-0.2,0.3C46.2,66,46.1,66,45.9,66l-0.4,0l-0.3,0C45.1,66.1,45,66,44.8,66z"/>
		</g>
		<g>
			<path class="st1" d="M32.1,51.4c-0.4-1.3,0.2-3,1.2-4.1c1-1.1,2.3-1.7,3.6-1.7c0,0.1,0.1,0.2,0.2,0.2c0.1,0,0.2,0.1,0.3,0.2
				c0.2-0.2,0.3-0.3,0.5-0.4c-0.1-0.1-0.2-0.2-0.3-0.2c0-0.2-0.1-0.3-0.2-0.3c-1.9-0.2-3.9,0.8-5.1,2.9c-0.6,1.1-0.9,2.3-0.6,3.4
				C31.7,51.3,31.9,51.3,32.1,51.4z"/>
			<path class="st1" d="M38.2,46c-0.2,0.1-0.3,0.2-0.5,0.4c1.1,1.2,0.6,3.7-0.3,5.2c-1.1,1.8-3.5,2.2-4.8,0.9
				c-0.1-0.1-0.2-0.3-0.3-0.5c-0.2,0-0.5,0-0.7,0c0.2,0.7,0.7,1.2,1.3,1.6c1.9,1.1,4.3,0,5.3-2.4C39.1,49.4,39.2,47.2,38.2,46z"/>
			<path class="st1" d="M36.8,45.7c0.2,0,0.4,0.1,0.6,0.3c0.1-0.2,0.3-0.3,0.5-0.4c-0.2-0.3-0.6-0.5-1-0.6
				C36.5,45,36.4,45.7,36.8,45.7z"/>
			<path class="st1" d="M38.5,47.8c-0.1-0.6-0.2-1.2-0.4-1.7c-0.2,0.1-0.3,0.2-0.4,0.4c0.2,0.5,0.3,1,0.3,1.5
				C38,48.4,38.6,48.2,38.5,47.8z"/>
			<path class="st1" d="M32.5,50.9c0,0.2,0,0.3,0,0.4c1.2-0.1,2.3-0.7,3.1-2.3c0.7-1.4,1.2-2.8,2.4-3.6c-0.3-0.2-0.7-0.4-1.1-0.4
				c-0.2,0-0.3,0.2-0.3,0.3c-0.7-0.3-1.9,0.3-2.5,1.1c-0.1,0.1-0.2,0.2-0.3,0.2c-0.2,0.1-0.5,0.4-0.7,0.6c-0.3,0.3-0.5,0.7-0.6,1.1
				C32.2,49.4,32.1,50.4,32.5,50.9z"/>
			<path class="st1" d="M38.4,45.9c-1.8,1-2,3.7-3.4,5.1c0.3,0.5,0.8,0.5,1.3,0.1c0,0,0,0,0,0c0,0,0,0,0,0c-0.1,0.2,0.1,0.4,0.2,0.4
				C39,51.6,39.6,47.6,38.4,45.9z M36.6,49.4C36.6,49.4,36.6,49.4,36.6,49.4c-0.1,0.1-0.4,0.4-0.7,0.6c0,0,0-0.1,0-0.1
				c0.2-0.2,0.5-0.5,0.7-0.8c0.1,0,0.1-0.1,0.2-0.1C36.7,49,36.7,49.2,36.6,49.4z M37,50.8c0.1-0.2,0.1-0.4,0.2-0.5
				c0,0.2,0,0.3,0,0.5C37.1,50.8,37.1,50.8,37,50.8z M38.3,48c0-0.3,0-0.6,0-0.8c0-0.2-0.1-0.2-0.2-0.2c0-0.2,0-0.3,0-0.5
				c0.3,0.4,0.5,1,0.5,1.6C38.4,47.9,38.3,47.9,38.3,48z"/>
			<path class="st1" d="M32.9,52C33,52,33,52,33.1,52c0,0,0.1,0,0.1,0c0.1,0.1,0.2,0.1,0.3,0c0.1,0,0.1-0.1,0.2-0.2c0,0,0,0,0,0
				C33.5,51.9,33.2,52,32.9,52z"/>
			<path class="st1" d="M33.6,48.6c-0.2,0-0.3-0.1-0.5-0.1c-0.2,0-0.3,0-0.3,0.2c0,0.2,0,0.4,0.2,0.4c0.2,0,0.3,0.1,0.5,0.1
				c0.2,0,0.3,0,0.3-0.2C33.8,48.8,33.7,48.6,33.6,48.6z"/>
			<path class="st1" d="M32.1,51.4c0.2,0,0.3,0,0.5,0c0.2-0.2,0.3-0.5,0.3-0.8c0-0.1,0-0.2,0-0.3c0.1-0.3,0.2-0.6,0.3-0.8
				c0.2-0.4-0.4-0.6-0.5-0.2c-0.2,0.6-0.4,1.2-0.5,1.8C32.1,51.2,32.1,51.3,32.1,51.4z"/>
			<path class="st1" d="M32,50c-0.1,0.3-0.1,0.6,0,0.9c0,0,0,0.1,0,0.1c0,0,0,0.1,0,0.1c0,0.1,0,0.2,0.1,0.3
				c1.4,0.1,2.7-0.4,3.6-2.3c0-0.1,0.1-0.2,0.2-0.3c0,0,0,0,0,0c-0.1,0.1-0.2,0.2-0.2,0.3c-0.1,0-0.1,0-0.2,0
				c-0.2,0.1-0.5,0.3-0.7,0.7c-0.4,0-0.8,0.6-0.9,1.2c-0.3-0.2-0.6-0.5-0.9-0.5c0.1-0.4,0-0.7-0.1-1.1c0,0,0-0.1,0-0.1
				c0,0,0-0.1,0.1-0.1c0.1-0.1,0.1-0.3,0-0.3c0,0,0-0.1,0-0.1c0.1-0.4-0.4-0.6-0.5-0.2c0,0.2-0.1,0.4-0.1,0.6
				C32.1,49.4,32,49.7,32,50z"/>
			<path class="st1" d="M37.6,50.9c-0.1,0.1-0.2,0.2-0.3,0.2c0,0,0,0,0,0c0,0,0,0,0-0.1c0-0.1,0.1-0.2,0.1-0.3
				c0.1-0.1,0.2-0.3,0.2-0.4c0.2-0.3-0.1-0.6-0.3-0.5c-0.2,0.1-0.4,0.2-0.5,0.4c0.2-0.6,0.4-1.2,0.6-1.8c0.1-0.3-0.2-0.5-0.4-0.3
				c-0.1,0.1-0.2,0.2-0.3,0.3c-0.4,1-0.8,2-1.6,2.6c-0.8,0.7-1.7,1-2.6,0.9c0.2,0.3,0.4,0.5,0.7,0.7c0,0.1,0.1,0.3,0.2,0.4
				c0.3,0.3,0.9,0.4,1.5,0.2c0.3,0,0.6-0.1,0.9-0.2c0,0,0,0,0.1,0c0.1,0.1,0.1,0.1,0.2,0c0.4-0.2,0.9-0.5,1.1-0.9c0,0,0,0,0.1,0
				c0.1,0.1,0.3,0.1,0.4-0.1c0.2-0.3,0.3-0.5,0.4-0.9C38,51,37.8,50.7,37.6,50.9z"/>
		</g>
	</g>
</g>
</svg>
