<?xml version="1.0" encoding="utf-8"?>
<!-- Generator: Adobe Illustrator 25.0.0, SVG Export Plug-In . SVG Version: 6.00 Build 0)  -->
<svg version="1.1" id="Layer_1" xmlns="http://www.w3.org/2000/svg" xmlns:xlink="http://www.w3.org/1999/xlink" x="0px" y="0px"
	 viewBox="0 0 60 80" style="enable-background:new 0 0 60 80;" xml:space="preserve">
<style type="text/css">
	.st0{fill:#FFFFFF;}
</style>
<g>
	<path class="st0" d="M18.45,21.18c2.35-2.59,0.72-6.37-1.99-7.63c-1.91-0.89-4.23-0.8-5.99,0.34c-1.78,0.07-3.55,0.83-4.73,2.26
		c-1.86,2.25-1.98,5.86,0.02,8.06c1.97,2.16,6.06,2.35,8.15,0.26c0.36-0.36,0.63-0.78,0.82-1.24c0.33-0.2,0.62-0.44,0.89-0.73
		C16.62,22.49,17.63,22.08,18.45,21.18z"/>
	<g>
		<path class="st0" d="M23,18.91c-0.34-0.01-0.8-0.09-1.09,0.13c-0.09,0.06-0.11,0.16-0.1,0.25c-0.42,0.52-0.61,1.34-0.15,1.91
			c0.44,0.55,1.44,0.77,1.97,0.28c0.49-0.46,0.71-1.59,0.21-2.13C23.63,19.12,23.29,18.92,23,18.91z M23.42,20.98
			c-0.34,0.42-1.11,0.31-1.43-0.11c-0.36-0.47-0.04-1.12,0.33-1.45c0.02-0.01,0.03-0.03,0.04-0.05c0.32-0.05,0.77,0.06,0.95,0.17
			C23.78,19.82,23.76,20.57,23.42,20.98z"/>
		<path class="st0" d="M36.95,19.02c-0.28-0.21-0.62-0.18-0.93-0.19c-0.5-0.02-0.99-0.04-1.48-0.07c-0.95-0.05-1.9,0.05-2.85,0.05
			c-0.81,0-1.63-0.07-2.44,0c-0.54,0.05-1.22,0.24-1.44,0.95c-0.15,0.47-0.09,1.24,0.27,1.55c0.51,0.66,1.08,0.52,1.78,0.57
			c0.56,0.04,1.12,0.02,1.68-0.01c0.09,0.1,0.25,0.1,0.32-0.02c0.19-0.01,0.38-0.02,0.57-0.03c0.02,0,0.04,0,0.06,0
			c0.03,0,0.05,0,0.08,0c0.31-0.01,0.62-0.02,0.93-0.02c0.04,0.2,0.32,0.2,0.38,0c0.52-0.01,1.04-0.03,1.55-0.09
			c0.65-0.09,1.53-0.13,1.94-0.92C37.66,20.23,37.38,19.34,36.95,19.02z M28.42,21.01c-0.05-0.01-0.09-0.03-0.13-0.05
			c-0.01-0.01-0.03-0.02-0.04-0.03c-0.34-0.27-0.12-1.08,0.16-1.38l0.04,1.47C28.44,21.01,28.43,21.01,28.42,21.01z M28.86,21.36
			c0-0.01,0-0.02,0-0.03c-0.02-0.67-0.03-1.34-0.05-2.01c0.09-0.03,0.18-0.04,0.26-0.05c-0.05,0.72-0.03,1.44,0.04,2.16
			C29.03,21.42,28.94,21.39,28.86,21.36z M29.52,21.48c0-0.01,0-0.02,0-0.03c-0.08-0.73-0.09-1.47-0.04-2.2c0.01,0,0.01,0,0.02,0
			c0.11,0,0.23,0,0.34,0c-0.01,0.02-0.02,0.05-0.02,0.09c-0.03,0.72,0.01,1.44,0.12,2.15C29.8,21.49,29.66,21.49,29.52,21.48z
			 M30.35,21.46c-0.11-0.7-0.15-1.4-0.12-2.11c0-0.04-0.01-0.08-0.02-0.11c0.13,0,0.27,0,0.4,0c0.05,0.72,0.1,1.44,0.15,2.17
			c0,0,0,0.01,0,0.01C30.64,21.43,30.5,21.45,30.35,21.46z M31.16,21.4c-0.05-0.72-0.1-1.43-0.15-2.15c0.15,0,0.3,0,0.46,0.01
			c0,0,0,0,0,0c-0.02,0.71-0.02,1.42,0,2.13C31.37,21.39,31.26,21.39,31.16,21.4z M32.24,21.38c-0.12,0-0.24,0.01-0.37,0.01
			c-0.02-0.7-0.02-1.41,0-2.11c0,0,0,0,0-0.01c0.13,0,0.26,0,0.38,0L32.24,21.38z M33.04,21.32c-0.03,0-0.06,0-0.09,0.01
			c-0.1,0.01-0.21,0.02-0.31,0.03c0.01-0.7,0.01-1.39,0.02-2.09c0.11,0,0.22,0,0.33,0C33.05,19.95,33.07,20.64,33.04,21.32z
			 M33.52,21.3c-0.03,0-0.05,0-0.08,0c0.02-0.68,0-1.35-0.06-2.03c0.04,0,0.08,0,0.12,0c-0.02,0.04-0.03,0.07-0.02,0.12
			C33.56,20.02,33.57,20.66,33.52,21.3z M34.06,21.3c-0.05,0-0.09,0-0.14,0c0.04-0.67,0.03-1.34-0.04-2.01
			c0-0.01-0.01-0.01-0.01-0.02c0.06,0,0.13,0,0.19,0C34.07,19.94,34.07,20.62,34.06,21.3z M34.47,21.31c0-0.68,0-1.36,0.01-2.05
			c0.13,0,0.26,0,0.38,0l0.05,2.04C34.76,21.31,34.61,21.31,34.47,21.31z M35.62,21.24c-0.08,0.01-0.16,0.02-0.24,0.03
			c-0.02,0-0.04,0-0.06,0.01c-0.02-0.67-0.03-1.34-0.05-2.01c0.14,0,0.27,0.01,0.41,0.01l-0.07,1.89
			C35.6,21.2,35.61,21.22,35.62,21.24z M36.23,21.14c-0.07,0.02-0.15,0.04-0.22,0.05c0,0,0,0,0,0l0.07-1.9c0.05,0,0.1,0,0.15,0
			c0.02,0,0.04,0,0.05,0l-0.06,1.75C36.21,21.08,36.22,21.11,36.23,21.14z M36.68,20.94c-0.02,0.01-0.04,0.02-0.06,0.03l0.06-1.58
			c0.08,0.04,0.16,0.09,0.22,0.16C37.28,20.02,37.09,20.66,36.68,20.94z"/>
		<path class="st0" d="M49.63,19.18c-0.28-0.21-0.62-0.18-0.93-0.19c-0.5-0.02-0.99-0.04-1.48-0.07c-0.95-0.05-1.9,0.05-2.85,0.05
			c-0.81,0-1.63-0.07-2.44,0c-0.54,0.05-1.22,0.24-1.44,0.95c-0.15,0.47-0.09,1.24,0.27,1.55c0.51,0.66,1.08,0.52,1.78,0.57
			c0.33,0.02,0.66,0.03,0.98,0.02c0.04,0.01,0.09,0.01,0.13,0c0.53-0.01,1.07-0.05,1.6-0.07c0.95-0.04,1.92,0.01,2.87-0.12
			c0.65-0.09,1.53-0.13,1.94-0.92C50.34,20.39,50.06,19.5,49.63,19.18z M41,21.13c-0.01-0.01-0.02-0.01-0.03-0.02
			c-0.01-0.01-0.03-0.02-0.04-0.03c-0.32-0.25-0.15-0.98,0.11-1.32C41.02,20.22,41,20.67,41,21.13z M41.41,21.47
			c-0.01-0.65,0.01-1.3,0.05-1.95c0-0.01,0-0.01,0-0.01c0.07-0.02,0.14-0.04,0.21-0.05c-0.04,0.73,0.02,1.44,0.18,2.15
			C41.69,21.57,41.54,21.53,41.41,21.47z M42.27,21.64c-0.18-0.74-0.24-1.48-0.2-2.24c0.04,0,0.08,0,0.11,0c0.12,0,0.24,0,0.36,0
			c0.01,0.75,0.02,1.49,0.03,2.24C42.47,21.65,42.37,21.65,42.27,21.64z M42.97,21.62c-0.01-0.74-0.02-1.48-0.03-2.22
			c0.12,0,0.23,0,0.35,0c-0.02,0.73,0,1.46,0.04,2.19C43.22,21.6,43.1,21.61,42.97,21.62z M44.15,19.48l-0.07,2.07
			c-0.11,0-0.22,0-0.34,0.01c-0.04-0.72-0.05-1.44-0.04-2.16c0.15,0,0.3,0,0.45,0.01c0,0,0.01,0,0.01,0
			C44.15,19.43,44.15,19.45,44.15,19.48z M44.67,21.54c-0.07,0-0.13,0-0.2,0l0.07-2.05c0-0.03,0-0.05-0.01-0.07
			c0.06,0,0.13,0,0.19,0C44.74,20.13,44.72,20.83,44.67,21.54z M45.62,21.49c-0.18,0.02-0.36,0.03-0.54,0.04
			c0.05-0.7,0.06-1.4,0.05-2.1c0.19,0,0.38,0,0.56,0L45.62,21.49z M46.31,21.45c-0.09,0-0.19,0-0.28,0.01l0.07-2.03
			c0.07,0,0.15,0,0.22,0c-0.01,0.02-0.01,0.04-0.01,0.07C46.31,20.14,46.31,20.8,46.31,21.45z M46.85,21.46c-0.04,0-0.09,0-0.13,0
			c0-0.65,0-1.3,0-1.95c0-0.03-0.01-0.06-0.02-0.09c0.07,0,0.14,0,0.21,0l-0.07,1.99C46.84,21.43,46.84,21.44,46.85,21.46z
			 M47.48,21.44c0,0.01,0,0.02,0.01,0.03c-0.08,0-0.17,0-0.25,0c0-0.01,0.01-0.03,0.01-0.04l0.07-2c0.07,0,0.14,0,0.21,0
			C47.47,20.09,47.45,20.76,47.48,21.44z M48.05,21.42c-0.06,0.01-0.12,0.01-0.17,0.01c-0.02-0.67-0.01-1.34,0.04-2.01
			c0.05,0,0.11,0,0.16,0l0.17,1.88c0,0.04,0.02,0.07,0.03,0.09C48.21,21.41,48.13,21.41,48.05,21.42z M48.61,21.36
			c0.03-0.04,0.04-0.09,0.04-0.15c-0.05-0.59-0.11-1.18-0.16-1.77c0.11,0,0.21,0,0.32,0.01c-0.01,0.02-0.02,0.04-0.02,0.07
			c-0.03,0.58-0.02,1.17,0.02,1.75c0,0.02,0.01,0.03,0.01,0.05C48.75,21.33,48.68,21.35,48.61,21.36z M49.36,21.09
			c-0.05,0.03-0.1,0.06-0.15,0.09c-0.04-0.55-0.04-1.1-0.01-1.65c0-0.02,0-0.03-0.01-0.05c0.15,0.03,0.29,0.1,0.39,0.22
			C49.96,20.17,49.77,20.81,49.36,21.09z"/>
		<path class="st0" d="M59.38,70.46l0-0.13c0-0.28-0.09-0.54-0.24-0.79c-0.17-0.46-0.45-0.88-0.78-1.19
			c-0.45-0.75-1.72-0.92-2.64-0.87c-0.02-13.41-0.03-26.81-0.02-40.22c0-0.01,0-0.02,0-0.04c0.07-0.03,0.13-0.06,0.19-0.09
			c0.07-0.04,0.1-0.11,0.1-0.17c0.72-0.55,1.18-1.37,1.18-2.3l0.03-9.9c0-1.17-0.73-2.18-1.79-2.68c-0.15-0.03-0.3-0.09-0.45-0.17
			c-0.25-0.08-0.52-0.13-0.79-0.15c-0.06-3.52-0.4-8.91-3.93-10.3c-1.96-0.77-4.3-0.58-6.35-0.7c-2.37-0.14-4.75-0.27-7.12-0.4
			C27.55-0.14,18.16-0.45,9.07,1.7C7.46,2.09,5.55,2.6,4.56,4.18c-0.52,0.83-0.62,1.82-0.69,2.8c-0.11,1.56-0.21,3.12-0.31,4.68
			c-1.5,0.27-2.64,1.48-2.65,2.93l-0.03,9.9c0,1.53,1.26,2.8,2.88,2.99c0,0.2,0.01,0.4,0.01,0.6c0.04,0,0.08,0.01,0.11,0.02
			c-0.27,13.1-0.52,26.13,0.47,39.18c-0.49-0.01-0.95,0.03-1.44,0.14c-0.05,0.01-0.09,0.03-0.13,0.06C1.93,67.64,1.01,68,0.43,68.54
			c-0.32,0.3-0.49,0.7-0.57,1.14c-0.05,0.14-0.08,0.29-0.08,0.44l-0.02,7.13c0,1.16,1.48,2.11,3.32,2.17
			c0.39,0.06,0.76,0.09,1.08,0.1c0.34,0.04,0.68,0.08,1.03,0.11c0.39,0.03,0.68,0.01,1.01-0.03c0.57,0.07,1.16,0.05,1.77,0.04
			c1.26,0,2.51-0.08,3.75-0.19l5.2,0.02c0.42,0.03,0.86,0.02,1.29,0l15.59,0.05c0.98,0.03,1.95,0.06,2.93,0.1
			c3.49,0.16,7,0.24,10.49,0.28c0.61,0.01,1.22-0.02,1.82-0.06c0.05,0.04,0.11,0.07,0.19,0.08c1.36,0.14,2.72,0.03,4.08-0.04
			c1.39-0.07,2.87,0.02,4.24-0.22c0.85-0.14,1.29-0.66,1.51-1.34c0.2-0.27,0.31-0.57,0.31-0.89l0-0.61
			C59.98,74.91,59.77,72.3,59.38,70.46z M0.62,76.41c-0.03,0.04-0.06,0.09-0.08,0.14c-0.02-0.12-0.02-0.24-0.03-0.36
			C0.55,76.27,0.59,76.34,0.62,76.41z M0.41,77.45c0.04,0.08,0.08,0.15,0.12,0.22c0.03,0.07,0.06,0.14,0.09,0.21
			c0.01,0.03,0.02,0.06,0.03,0.08C0.53,77.8,0.45,77.63,0.41,77.45z M4.44,8.35c0.08-1.22,0.01-2.64,0.61-3.72
			c0.9-1.62,3.04-2.02,4.6-2.37c4.01-0.91,8.09-1.35,12.18-1.51c8.15-0.32,16.33,0.37,24.47,0.83c2.35,0.13,4.83,0.2,5.98,2.83
			c0.96,2.21,1.19,4.88,1.23,7.31l-30.77-0.1c-0.38-0.05-0.76-0.09-1.15-0.11c-1.19-0.04-2.39,0.1-3.58,0.07
			c-0.53-0.01-1.06,0-1.59,0.01l-9.58-0.03c-0.02,0-0.03-0.01-0.06-0.01c-0.08,0-0.15,0-0.22,0.01l-2.33-0.01
			C4.3,10.49,4.37,9.42,4.44,8.35z M31.78,12.2C31.78,12.2,31.78,12.19,31.78,12.2l7.92,0.02c-1.85,0.07-3.71,0.01-5.55,0.01
			C33.36,12.22,32.57,12.24,31.78,12.2z M1.51,24.76c0.04,0.1,0.08,0.21,0.11,0.31c0.05,0.15,0.09,0.3,0.14,0.45
			C1.63,25.29,1.54,25.03,1.51,24.76z M4.55,27.98c0.01,0,0.02-0.01,0.03-0.01c0-0.15,0-0.31,0-0.46c0.48,0.07,0.95,0.16,1.43,0.23
			c0.49,0.06,0.83-0.01,1.3-0.1c0.05-0.01,0.09-0.03,0.12-0.06c1.03,0,2.06-0.06,3.08-0.05c1.71,0.01,3.42,0.01,5.13,0.02
			c1.73,0.01,3.45,0,5.18,0.02c1.12,0.01,2.22,0.07,3.33,0.05c-0.09,0.48,0.02,1.19,0.02,1.51c0,1.58,0.02,3.16,0.04,4.74
			c0.02,1.49,0,3.04,0.14,4.52c0.11,1.17,0.77,2.07,1.57,2.67c0.61,0.46,1.28,0.71,1.97,0.84c-0.07,1.29,0.97,2.38,2.18,2.22
			c0.92-0.12,2.1-1.19,1.7-2.24c0.2-0.05,0.39-0.12,0.58-0.2c0.89-0.43,1.58-1.04,2.15-1.97c0.57-0.94,0.72-2.14,0.74-3.28
			c1.07,0.17,2.15,0.11,3.23,0.11c1.15,0,2.31,0.09,3.44-0.2c0.65-0.17,1.86-0.5,2.03-1.44c0.15-0.84-0.37-1.66-0.98-1.97
			c-0.81-0.41-1.8-0.26-2.65-0.26c-1.28-0.01-2.57,0.17-3.85,0.26c-0.42,0.03-0.85,0.06-1.27,0.09c-0.03-1.81-0.12-3.62-0.18-5.42
			l17.89,0.06c0.03,0.06,0.09,0.11,0.19,0.11c0.49,0,0.92-0.04,1.31-0.15c0.08-0.01,0.16-0.02,0.23-0.04l0,0.1
			c0.07,0.02,0.13,0.05,0.19,0.1c0.07,0.06,0.12,0.14,0.16,0.23c0.02,0,0.04,0,0.06,0c-0.01,12.44,0,24.88,0.02,37.32
			c-0.94,0-1.88-0.01-2.82-0.01c-0.02-2.47-0.04-4.94-0.06-7.4c0-0.37-0.54-0.38-0.54,0c0.02,2.47,0.04,4.93,0.06,7.4
			c-5.01-0.02-10.02-0.04-15.03-0.06c0.09-0.17,0.18-0.34,0.26-0.51c0.39-0.83,0.69-1.79,0.91-2.85c0,0,0.01,0,0.01,0
			c0.1,0.01,0.19,0.02,0.28,0.03c0.15,0.02,0.31,0.04,0.48,0.04c0.01,0,0.01,0,0.02,0c0.1,0,0.21,0,0.31,0c0.26,0,0.53,0,0.8-0.01
			c0.7-0.04,1.37-0.19,2.03-0.33c1.1-0.25,1.9-1.08,2.24-2.36c0.14-0.52,0.21-1.06,0.28-1.58c0.02-0.15,0.04-0.3,0.06-0.45
			c0.1-0.73,0.11-1.38,0.03-2.01c-0.14-1.06-0.33-2.51-1.53-3.1c-0.61-0.3-1.4-0.32-2.09-0.31c-0.71,0.01-1.48,0.06-2.35,0.17l0,0
			c-0.04,0-0.08,0.01-0.11,0.01c0-0.04,0-0.09,0-0.13c0-0.54,0-1.09,0-1.63c0-0.48,0-0.97,0-1.45c0.04-0.05,0.06-0.11,0.06-0.17
			c0-0.22-0.26-0.4-0.68-0.55c-0.13-0.09-0.27-0.19-0.42-0.26c-0.4-0.17-0.97-0.28-1.53-0.28c-0.01,0-0.02,0-0.02,0
			c-0.35,0-0.7-0.01-1.06-0.02c-0.23-0.01-0.45-0.01-0.68-0.01c-0.19,0-0.38-0.05-0.58-0.09c-0.13-0.03-0.27-0.06-0.41-0.08
			c-0.18-0.02-0.35-0.01-0.53-0.01c-0.08,0-0.17,0.01-0.25,0.01c-0.39,0-0.78,0-1.17-0.01c-0.87-0.01-1.77-0.02-2.66,0.03
			c-0.25,0.01-0.5,0.04-0.76,0.06c-0.03,0-0.06,0.01-0.09,0.01c-0.37,0.02-0.76,0.04-1.15,0.07l-0.12,0
			c-0.64-0.01-1.3-0.03-1.95,0.18c-0.22,0.07-0.47,0.12-0.7,0.16c-0.36,0.07-0.74,0.14-1.09,0.31c-0.12,0.06-0.34,0.19-0.37,0.4
			c-0.01,0.08,0.01,0.15,0.04,0.2c-0.01,0.03-0.02,0.06-0.02,0.1l-0.01,0.7c-0.03,1.61-0.05,3.28,0.07,4.91
			c0.03,0.37,0.07,0.76,0.13,1.2c0.03,0.23,0.04,0.47,0.06,0.7c0.01,0.22,0.03,0.46,0.05,0.69c0.05,0.42,0.07,0.85,0.09,1.27
			c0.02,0.45,0.04,0.91,0.1,1.36c0.23,1.7,0.76,3.43,1.44,4.61l0.1,0.18c0.24,0.42,0.48,0.85,0.79,1.17
			C18.3,66.06,11.6,66.1,4.91,65.7C4.05,53.14,4.29,40.59,4.55,27.98z M34.62,27.55c0.06,1.81,0.15,3.64,0.18,5.46
			c-0.13,0.01-0.25,0.02-0.38,0.03c-0.45,0.04-1.31,0.35-1.72,0.09c-0.01,0-0.01-0.01-0.02-0.01c-0.08-0.26-0.18-0.5-0.31-0.72
			c-0.14-0.46-0.39-0.86-0.72-1.12c-0.67-0.52-1.54-0.52-2.31-0.19c-0.02,0-0.04,0.01-0.06,0.01c-0.09,0.03-0.18,0.07-0.27,0.13
			c-0.25,0.09-0.48,0.25-0.65,0.47c-0.01,0.02-0.02,0.03-0.03,0.05c-0.21,0.2-0.4,0.43-0.53,0.68c-0.38,0.68-0.55,1.53-0.4,2.31
			c0.04,0.22,0.11,0.41,0.2,0.59c0.25,0.9,0.85,1.59,1.77,1.82c1.1,0.27,2.52-0.09,3.13-1.29c0.17,0.13,0.37,0.13,0.57,0.16
			c0.6,0.09,1.2,0.19,1.8,0.31c-0.01,1.13-0.16,2.32-0.77,3.23c-0.54,0.81-1.21,1.42-2.04,1.73c-0.2,0.07-0.41,0.12-0.62,0.16
			c-0.05,0-0.09,0.01-0.13,0.02c-0.69,0.11-1.42,0.07-2.09,0.05c-0.29-0.01-0.58-0.02-0.87-0.06c-0.04-0.02-0.08-0.02-0.13-0.02
			c-0.76-0.11-1.5-0.36-2.16-0.88c-0.45-0.36-0.84-0.81-1.08-1.4c-0.25-0.63-0.2-1.3-0.23-1.98c-0.05-1.21-0.09-2.4-0.12-3.61
			c-0.02-1.15-0.05-2.29-0.04-3.44c0-0.53,0.02-1.07,0-1.61c0-0.11-0.08-0.85-0.03-0.89c0.01-0.01,0.02-0.02,0.03-0.03
			c0.32-0.01,0.65-0.03,0.97-0.06L34.62,27.55z M35.07,35.87c-0.46-0.09-0.91-0.2-1.37-0.26c-0.14-0.02-0.61-0.02-0.86-0.1
			c0-0.11-0.06-0.21-0.14-0.24c0.14-0.54,0.17-1.09,0.1-1.6c0.55,0.13,1.24-0.11,1.75-0.16c1.03-0.09,2.05-0.14,3.08-0.21
			c1.06-0.07,2.1-0.18,3.17-0.18c0.78,0,1.91-0.18,2.49,0.61c1.12,1.52-1.3,2.12-2.12,2.23c-0.97,0.13-1.96,0.06-2.93,0.06
			C37.18,36.01,36.12,36.08,35.07,35.87z M29.74,43.53c-0.79-0.05-1.29-0.79-1.3-1.58c0.25,0.03,0.5,0.04,0.75,0.05
			c0.65,0.01,1.36,0.06,2.04-0.03C31.67,42.82,30.42,43.58,29.74,43.53z M38.51,52.33c0.14,0,0.29,0,0.43-0.01
			c0.04,0,0.08-0.02,0.11-0.05c0.99-0.08,2.01-0.13,2.97,0.03c0.62,0.11,1.11,0.45,1.4,0.98c0.23,0.42,0.31,0.94,0.39,1.44
			l0.04,0.24c0.2,1.17,0.01,2.38-0.21,3.63c-0.25,1.4-0.9,2.24-1.91,2.49c-0.61,0.15-1.34,0.31-2.09,0.35
			c-0.25,0.01-0.52,0.01-0.77,0.01l-0.21,0c-0.05,0-0.1,0-0.15,0c-0.11,0-0.21,0.01-0.31-0.01c-0.05-0.01-0.1-0.02-0.14-0.03
			c-0.05-0.01-0.1-0.02-0.15-0.02c0.04-0.25,0.08-0.52,0.12-0.78c0.01,0,0.01,0,0.01,0c0,0,0,0,0,0c0.55,0,1.04-0.04,1.52-0.12
			c0.42-0.07,0.96-0.18,1.41-0.35c0.08-0.03,0.15-0.06,0.23-0.09c0.31-0.11,0.62-0.22,0.85-0.48c0.25-0.29,0.42-0.69,0.5-1.21
			c0.05-0.36,0.05-0.73,0.05-1.08c0-0.1,0-0.19,0-0.29c0-0.14,0-0.28,0-0.42c0.01-0.37,0.01-0.75-0.02-1.12
			c-0.06-0.63-0.23-1.52-1.05-1.98c-0.4-0.22-0.93-0.25-1.4-0.25l-0.39,0c-0.49,0-0.99,0-1.48,0.04c0-0.28,0-0.57,0-0.85
			c0-0.03,0-0.05,0-0.08C38.35,52.33,38.43,52.33,38.51,52.33z M35.01,66.15c-0.07,0-0.14,0.03-0.19,0.09
			c-0.82,0.37-1.71,0.36-2.57,0.34c-0.36-0.01-0.73-0.01-1.09-0.01c-0.47,0-0.95-0.01-1.43,0.01c-0.47,0.02-0.9-0.08-1.35-0.19
			c-0.15-0.04-0.31-0.07-0.47-0.11c-0.7-0.14-1.22-0.32-1.75-0.6c-0.24-0.13-0.48-0.26-0.7-0.43c-0.22-0.17-0.35-0.4-0.5-0.66
			c-0.04-0.06-0.08-0.13-0.12-0.19c-0.71-1.16-1.2-2.47-1.58-4.25c-0.13-0.61-0.16-1.25-0.19-1.86c-0.02-0.31-0.03-0.64-0.06-0.96
			c-0.04-0.5-0.09-0.99-0.14-1.49c-0.04-0.39-0.08-0.79-0.12-1.18c-0.14-1.55-0.15-3.14-0.15-4.67c0-0.33,0-0.65,0-0.98
			c0.02,0,0.04,0,0.05,0c0.08,0.07,0.16,0.13,0.23,0.16c0.44,0.23,0.94,0.36,1.49,0.39c0.03,0,0.07,0,0.1,0
			c0.27,0.03,0.53,0.08,0.79,0.13c0.37,0.07,0.75,0.14,1.13,0.16c0.31,0.02,0.63,0.05,0.94,0.07c0.44,0.04,0.89,0.08,1.33,0.09
			c0.38,0.05,0.77,0.07,1.15,0.07c0.44,0,0.87-0.02,1.28-0.04c0.17-0.01,0.34-0.02,0.5-0.02c0.49-0.02,1.13-0.06,1.79-0.16
			c0.67-0.05,1.4-0.14,2.23-0.26c0.32-0.05,0.63-0.12,0.93-0.2c0.02,0,0.05-0.01,0.07-0.02c0.02-0.01,0.05-0.01,0.07-0.02
			c0.22-0.06,0.45-0.11,0.67-0.16c0.03-0.01,0.07-0.01,0.11-0.02c0.09-0.01,0.19-0.03,0.29-0.07c0,0.37,0,0.74,0,1.11l0,1.01
			c0,0.27-0.01,0.54-0.01,0.81c-0.01,0.57-0.03,1.15,0.01,1.71c0.01,0.14,0.03,0.28,0.05,0.42c0.03,0.22,0.06,0.42,0.06,0.64
			c0,0.22-0.01,0.44-0.01,0.67c-0.01,0.21-0.01,0.41-0.01,0.62c0,0.43-0.04,0.87-0.07,1.3c-0.02,0.3-0.05,0.59-0.06,0.89
			c-0.08,1.89-0.3,3.36-0.69,4.63C36.71,64.02,36.13,65.55,35.01,66.15z M28.03,66.98c0.23,0.05,0.46,0.1,0.69,0.15
			c0.28,0.07,0.57,0.09,0.85,0.09c0.19,0,0.37-0.01,0.56-0.02c0.18-0.01,0.36-0.02,0.54-0.01l2.16,0.01c0.13,0,0.26,0,0.39,0
			c-0.06,0.01-0.13,0.01-0.19,0.02c-0.08,0.01-0.16,0.02-0.23,0.02c-0.75,0.09-1.61,0.17-2.4,0.1c-0.32-0.03-0.65-0.04-0.97-0.05
			c-0.4-0.01-0.81-0.02-1.21-0.08l-0.08-0.01c-0.37-0.05-0.83-0.11-1.09-0.35c-0.05-0.05-0.1-0.1-0.15-0.16
			C27.28,66.82,27.66,66.9,28.03,66.98z M26.19,47.94c0.24,0.01,0.47,0.01,0.71,0.01c0.28-0.01,0.57-0.04,0.84-0.07
			c0.23-0.03,0.46-0.06,0.69-0.07c0.81-0.04,1.65-0.04,2.45-0.03l0.61,0c0.16,0,0.32-0.01,0.49-0.01c0.33-0.01,0.68-0.03,1,0.02
			c0.11,0.02,0.22,0.04,0.33,0.07c0.14,0.03,0.29,0.07,0.44,0.09c0.16,0.02,0.33,0.01,0.49,0.01c0.08,0,0.16-0.01,0.24-0.01
			c0.47,0,0.95,0.02,1.39,0.04c0.03,0,0.06,0,0.09,0.01c0.3,0.04,0.56,0.09,0.79,0.13c0.21,0.06,0.42,0.14,0.59,0.25l0.02,0.01
			c0.17,0.11,0.25,0.16,0.28,0.19c-0.04,0.03-0.14,0.08-0.45,0.13c-0.03,0.01-0.06,0.01-0.07,0.01l-0.03,0.01
			c-0.19,0.05-0.37,0.09-0.56,0.14c-0.17-0.05-0.35-0.1-0.53-0.16c-0.38-0.13-0.78-0.26-1.17-0.27c-0.23-0.03-0.45-0.05-0.68-0.08
			c-0.1-0.01-0.2-0.02-0.3-0.03c-0.22-0.02-0.45-0.05-0.67-0.06c-0.32-0.06-0.65-0.07-0.97-0.08c-0.1,0-0.19-0.01-0.29-0.01
			c-0.34-0.01-0.67-0.02-0.97,0.03l-0.06,0c-0.07,0-0.16,0-0.23,0c-0.35-0.03-0.64-0.05-0.92-0.04c-0.19,0-0.37,0-0.56,0
			c-0.36-0.01-0.72-0.01-1.09,0.02c-0.26,0.02-0.53,0.07-0.79,0.11c-0.26,0.04-0.53,0.09-0.79,0.11c-0.43,0.03-0.85,0.12-1.27,0.2
			l-0.01,0c-0.04,0-0.07,0.01-0.11,0.01l-0.01,0c-0.52-0.02-1.05,0.06-1.44,0.21c-0.03,0.01-0.06,0.04-0.09,0.06
			c-0.08-0.02-0.15-0.03-0.22-0.05c-0.03-0.01-0.07-0.02-0.1-0.04l-0.04-0.01c-0.24-0.09-0.34-0.13-0.33-0.3
			c0.01,0,0.03-0.01,0.04-0.01c0.04-0.01,0.08-0.02,0.11-0.03c0.15-0.05,0.29-0.07,0.45-0.1c0.08-0.01,0.17-0.03,0.25-0.05
			c0.19-0.04,0.37-0.09,0.55-0.14c0.35-0.1,0.67-0.19,1.03-0.2C25.62,47.93,25.91,47.94,26.19,47.94z M40.01,53.69
			c0.46,0,0.97,0,1.35,0.23c0.82,0.49,0.8,1.53,0.78,2.44c0,0.12,0,0.23,0,0.34c0,0.12,0,0.26,0.01,0.4
			c0.02,0.94,0.05,2.11-0.92,2.44c-1.16,0.4-2.16,0.59-3.13,0.59c0.04-0.42,0.07-0.85,0.09-1.27c0.02-0.45,0.04-0.91,0.1-1.36
			c0.1-0.92,0.11-1.88,0.11-2.7c0-0.24-0.03-0.48-0.06-0.71c-0.02-0.15-0.04-0.29-0.05-0.44c0.47,0.04,0.95,0.05,1.42,0.05
			L40.01,53.69z M11.3,76.5c0.01,0,0.01-0.01,0.02-0.01c0.08-0.02,0.16-0.05,0.24-0.07c0.02,0.03,0.05,0.07,0.08,0.09
			C11.53,76.51,11.41,76.5,11.3,76.5z M5.03,67.38C5,66.96,4.97,66.54,4.94,66.11c6.8,0.4,13.61,0.36,20.4-0.15
			c0.03,0,0.05-0.01,0.08-0.02c0.22,0.15,0.45,0.3,0.7,0.42c0.05,0.08,0.1,0.16,0.15,0.23c0.15,0.26,0.31,0.52,0.56,0.72
			c0.07,0.06,0.15,0.1,0.23,0.14L5.03,67.38z M16.83,68.49c-0.29-0.01-0.58-0.02-0.88-0.03l6.04,0.02
			C20.26,68.52,18.54,68.53,16.83,68.49z M50.73,73.29c0-0.01,0.01-0.02,0.01-0.03c0.09-0.01,0.19-0.01,0.28-0.02
			c0.01,0.04,0.01,0.07,0.02,0.1C50.94,73.33,50.83,73.31,50.73,73.29z M53.47,68.65c-0.11-0.03-0.22-0.05-0.33-0.07l0.48,0
			C53.58,68.6,53.52,68.63,53.47,68.65z M55.01,67.23c-0.02,0.08-0.07,0.15-0.12,0.22c-0.47,0-0.95,0.04-1.43,0.09l-19.25-0.06
			c0.05-0.02,0.11-0.05,0.16-0.08c0.3-0.15,0.5-0.33,0.68-0.59c0.3-0.14,0.57-0.31,0.81-0.52c0.22-0.19,0.41-0.43,0.57-0.68
			c5.09,0.02,10.18,0.04,15.28,0.06c0,0.01,0,0.01,0,0.02c0,0.37,0.54,0.38,0.54,0c0-0.01,0-0.01,0-0.02c0.94,0,1.88,0.01,2.82,0.01
			c0,0.33,0,0.66,0,0.99c0,0.03,0.01,0.06,0.01,0.09C55.07,66.92,55.06,67.08,55.01,67.23z M55.08,26.81c-0.14-0.05-0.32,0-0.4,0.14
			c-0.4,0.02-0.81,0.01-1.08,0.02c-0.85,0.03-1.69-0.03-2.54,0.01c-1.66,0.09-3.34,0.03-5.01,0.03c-3.33-0.01-6.67-0.02-10-0.04
			c-1.63-0.01-3.23-0.17-4.87-0.09c-1.13,0.05-2.26,0.06-3.39,0.09L7.1,26.92c-0.27,0.05-0.54,0.07-0.81,0.06
			c-0.07,0-0.14-0.03-0.2-0.06l-1.93-0.01c-0.49,0-0.94-0.12-1.34-0.33c-0.04-0.03-0.08-0.06-0.12-0.09
			c-0.35-0.3-0.4-0.77-0.53-1.17c-0.13-0.39-0.29-0.77-0.41-1.16c-0.16-0.52-0.15-1.04-0.15-1.58c0-1,0.06-2.02-0.03-3.03
			c-0.15-1.8-0.05-3.7,0.33-5.48c0.08-0.36,0.14-0.74,0.31-1.07c0.27-0.53,0.79-0.62,1.38-0.71c0.58-0.09,1.18-0.07,1.77-0.13
			c0.15-0.01,0.29-0.04,0.43-0.07l0.15,0c0.05-0.02,0.1-0.03,0.16-0.03c0.02,0,0.05,0,0.07,0c0.15,0.01,0.29,0.02,0.41,0.02
			c0.54,0,1.13,0.05,1.66,0.09c1.07,0.07,2.08,0.01,3.14-0.06c0.03,0,0.05,0,0.08,0l1.89,0.01c0.18,0,0.35,0,0.53,0l9.6,0.03
			c0.41,0.06,0.82,0.12,1.23,0.13c1.07,0.03,2.13,0.08,3.2,0.08c0.32,0,0.65-0.01,0.98-0.01c0.92,0.2,1.94,0.2,2.85,0.26
			c1.52,0.09,3.08,0.01,4.61,0.02c3.06,0.01,6.13-0.08,9.18-0.22c1.39-0.06,2.78-0.08,4.17-0.08c0.67,0,1.36-0.05,2.02-0.01
			c0.74,0.04,1.7,0.01,2.39,0.25c0.64,0.22,1.5,0.6,1.88,1.12c0.29,0.39,0.42,0.82,0.49,1.27c0,0.01,0.01,0.03,0.01,0.04
			c0.08,0.29,0.08,0.56,0.05,0.84c0.02,1.24-0.12,2.5,0.02,3.74c0.01,0.05,0.01,0.11,0.02,0.17l-0.01,3.81
			c-0.02,0.2-0.04,0.39-0.06,0.58c-0.09,0.78-0.41,1.38-0.85,2.04C55.49,26.45,55.3,26.65,55.08,26.81z"/>
		<path class="st0" d="M11.9,14.84c-0.08,0-0.14,0.04-0.17,0.1c-2.03-0.19-3.66,1.5-4.03,3.43c-0.16,0.85-0.06,1.62,0.25,2.28
			c0,0.03,0,0.07,0.01,0.11c1.15,3.61,5.49,4.63,7.76,1.58C18.25,18.93,15.43,14.97,11.9,14.84z M8.17,18.49
			c0.33-1.85,1.99-3.56,4.03-2.99c0.09,0.02,0.15,0,0.21-0.04c1.68,0.71,3,1.76,2.81,3.75c-0.19,2.05-1.83,3.92-4.1,3.31
			C9.17,21.99,7.81,20.53,8.17,18.49z M15.52,21.82c-1.61,2.45-4.72,2.32-6.35,0.29c0.51,0.38,1.13,0.68,1.82,0.87
			c2.38,0.67,4.29-1.14,4.67-3.34c0.22-1.29-0.09-2.28-0.74-3.05C16.26,17.85,16.81,19.86,15.52,21.82z"/>
		<path class="st0" d="M23.45,50.99l-0.03-0.06c-0.04-0.08-0.12-0.12-0.2-0.1c-0.08,0.02-0.15,0.08-0.16,0.17
			c-0.11,0.79-0.03,1.61,0.06,2.4c0.02,0.17,0.04,0.34,0.05,0.51c0.01,0.09,0.06,0.17,0.14,0.21c0.03,0.02,0.07,0.02,0.1,0.02
			c0.05,0,0.1-0.02,0.14-0.05c0.06-0.05,0.09-0.13,0.08-0.22c-0.1-0.95-0.18-1.82-0.19-2.7C23.48,51.12,23.48,51.05,23.45,50.99z"/>
		<path class="st0" d="M24.18,53c-0.01-0.11-0.09-0.19-0.18-0.19c-0.11,0-0.19,0.08-0.2,0.2c-0.04,0.47,0.06,0.96,0.3,1.54
			c0.04,0.09,0.11,0.14,0.19,0.15c0.01,0,0.01,0,0.02,0c0.07,0,0.15-0.04,0.19-0.11c0.05-0.07,0.05-0.16,0.01-0.25
			C24.33,53.93,24.22,53.5,24.18,53z"/>
		<path class="st0" d="M35.86,64.02c0.03,0.01,0.05,0.02,0.08,0.02c0.08,0,0.14-0.05,0.18-0.13c0.2-0.5,0.4-1.05,0.48-1.61
			c0.08-0.63,0.05-1.27,0.01-1.82c-0.01-0.11-0.09-0.18-0.2-0.18c-0.1,0.01-0.17,0.09-0.17,0.2c0.03,0.55,0.05,1.13-0.05,1.71
			c-0.07,0.43-0.21,0.82-0.37,1.23c-0.03,0.09-0.07,0.18-0.1,0.27C35.68,63.84,35.75,63.97,35.86,64.02z"/>
		<path class="st0" d="M35.54,62.58c-0.11-0.01-0.2,0.09-0.2,0.2c-0.01,0.45-0.13,0.85-0.27,1.26c-0.02,0.07-0.01,0.15,0.03,0.2
			c0.04,0.05,0.1,0.08,0.16,0.08c0.01,0,0.03,0,0.04,0c0.07-0.02,0.13-0.07,0.16-0.15c0.15-0.5,0.25-0.91,0.25-1.38
			C35.72,62.67,35.64,62.59,35.54,62.58z"/>
		<path class="st0" d="M51.07,64.63c-0.03-0.87-0.05-1.74-0.08-2.61c-0.01-0.37-0.55-0.38-0.54,0c0.03,0.87,0.05,1.74,0.08,2.61
			C50.55,65,51.08,65,51.07,64.63z"/>
		<path class="st0" d="M5.7,34.8c-0.05-1.87-0.03-3.74,0.06-5.61c0.01-0.26-0.37-0.26-0.38,0c-0.08,1.87-0.1,3.74-0.06,5.61
			C5.33,35.06,5.7,35.06,5.7,34.8z"/>
		<path class="st0" d="M7.31,35.77c-0.07-0.93-0.01-1.84,0.2-2.75c0.06-0.25-0.3-0.36-0.36-0.11c-0.22,0.94-0.29,1.89-0.22,2.86
			C6.95,36.03,7.33,36.03,7.31,35.77z"/>
		<path class="st0" d="M24.9,44.7c0.23,0.5,1.29,0.4,1.1,1.02c-0.07,0.25,0.29,0.36,0.36,0.11c0.15-0.52-0.11-0.94-0.56-1.1
			c-0.4-0.14-0.64-0.2-0.62-0.68c0.01-0.15,0.04-0.3,0.05-0.45c0.01-0.33-0.04-0.59-0.24-0.84c-0.16-0.2-0.42,0.09-0.27,0.29
			C25.08,43.49,24.67,44.19,24.9,44.7z"/>
		<path class="st0" d="M32.57,45.38c0.16-0.74,1.13-0.71,1.4-1.4c0.26-0.67-0.22-1.61,0.38-2.11c0.19-0.16-0.08-0.45-0.27-0.29
			c-0.56,0.48-0.34,1.15-0.39,1.81c-0.09,1.07-1.27,0.92-1.48,1.88C32.16,45.52,32.52,45.63,32.57,45.38z"/>
		<path class="st0" d="M34.48,46.45c0.14,0.22,0.46,0.01,0.33-0.2c-0.13-0.21,0.41-0.39,0.5-0.46c0.12-0.08,0.22-0.19,0.3-0.31
			c0.19-0.29,0.24-0.61,0.19-0.95c-0.03-0.26-0.4-0.15-0.36,0.11c0.03,0.26-0.04,0.52-0.21,0.71c-0.16,0.18-0.38,0.21-0.56,0.35
			C34.42,45.87,34.31,46.18,34.48,46.45z"/>
	</g>
</g>
</svg>
