<?xml version="1.0" encoding="utf-8"?>
<!-- Generator: Adobe Illustrator 25.0.0, SVG Export Plug-In . SVG Version: 6.00 Build 0)  -->
<svg version="1.1" id="Layer_1" xmlns="http://www.w3.org/2000/svg" xmlns:xlink="http://www.w3.org/1999/xlink" x="0px" y="0px"
	 viewBox="0 0 130 100" style="enable-background:new 0 0 130 100;" xml:space="preserve">
<style type="text/css">
	.st0{fill:#BF9261;}
	.st1{fill:#2D635E;}
	.st2{fill:#FFFFFF;}
	.st3{fill:#21242B;}
</style>
<g>
	<g>
		<g>
			<path class="st0" d="M109.5,67.1c-0.1,0-0.3,0-0.4,0c-0.4,0-0.9,0-1.3,0.1c-0.2,0-0.4,0-0.7,0c0.1,0,0.1,0.1,0.2,0.1
				c-0.1,0.2-0.2,0.4-0.2,0.5c-0.1,0.1-0.2-0.3-0.2-0.6c0,0,0,0,0.1,0c-0.5,0-0.9,0-1.3-0.2c-0.1,0-0.1-0.1-0.2-0.1
				c-0.5,1.2-1.1,2.4-1.8,3.6c0,0,0,0,0,0c0,0.1,0.1,0.2,0.1,0.3c-0.1,0-0.1-0.1-0.1-0.1l0,0.1c0.1,0.1,0.3,0.1,0.4,0.2
				c-0.1,0.1-0.2,0-0.2,0.2c-0.2,0-0.2-0.1-0.3-0.2c-0.9,1.5-1.8,3-2.9,4.5c-0.2,0.3-0.5,0.7-0.8,1c0.1,0.1,0.2,0.1,0.3,0.1
				c0,0-0.1,0.1,0,0.1c-0.2,0.1-0.3,0.1-0.5,0.1c-0.4,0.5-0.8,1-1.2,1.5h0c0,0.2,0.1,0.2,0.1,0.4c-0.2-0.1,0,0.2-0.1,0.1
				c-0.2,0-0.2-0.2-0.1-0.3c-0.3,0.3-0.6,0.6-0.9,0.9c0,0,0,0,0,0c-0.1,0.1-0.2,0.1-0.1,0.2c-0.1,0-0.1,0-0.1-0.1
				c-0.1,0,0,0.1-0.1,0.1c0,0,0,0,0-0.1c0,0-0.1,0.1-0.1,0.1c0,0,0,0.1,0.1,0.1c0,0.1-0.1,0-0.1,0.1c0-0.1-0.1-0.1-0.1,0
				c0,0,0.1,0,0.1,0c0.2,0.2-0.1,0.3-0.2,0.2c0-0.1-0.1-0.1-0.1-0.1c0,0,0,0,0,0C95,82,93,83.7,90.9,85.2c0.1,0,0.2,0,0.3,0v0.3
				c0.2-0.2,0-0.3-0.1-0.4c0.3,0.1,0.3,0,0.5-0.1c0.2,0.1,0.3,0.1,0.5,0.2c-0.2,0.3-0.6,0.1-0.7,0.5c-0.2,0-0.1,0-0.3,0
				c-0.1,0,0,0.2-0.1,0.2C91,85.6,90.9,85.7,91,86c-0.1,0-0.2-0.1-0.3-0.2c0-0.2,0.1-0.3,0.1-0.4c-0.2,0.1-0.3,0.2-0.5,0.4
				c0,0.2-0.1,0.3-0.2,0.3c0-0.1,0.1,0,0.1-0.1c0,0-0.1-0.1-0.1-0.1c-0.1,0.1-0.2,0.2-0.3,0.2c0.1,0,0.1,0.1,0.2,0.1
				c-0.1,0.1-0.2,0-0.3,0c-0.3,0.2-0.7,0.4-1,0.7c0,0.1,0,0.1-0.2,0.1c-0.7,0.4-1.4,0.8-2.1,1.2c0,0.1,0,0.1,0.2,0.2
				c0.1,0,0.2-0.1,0.3-0.1c0.2,0,0,0.1,0,0.1c0.2,0.2,0.7,0.1,0.8,0.4c0.1-0.1,0.3,0,0.5,0.1c0,0.1-0.2,0.1-0.1,0.2
				c-0.3-0.2-0.9-0.1-1.1-0.4c-0.2,0-0.2,0-0.3,0.1c0.1,0.3,0.1,0.4,0.2,0.7c-0.2,0-0.2-0.1-0.4,0c-0.3-0.3-0.2-0.7-0.3-1.1
				c-0.1,0.1-0.2,0.1-0.4,0.2c0,0,0.1,0,0.1,0c0,0.1-0.1,0-0.1,0.1c0,0.1,0.1,0,0.1,0.1c-0.1,0.1-0.2,0.1-0.2,0
				c-2.2,1.1-4.4,2.1-6.7,2.8c-4.4,1.4-8.9,2.1-13.6,2.1c-1.7,0-3.5-0.1-5.2-0.3c0,0.1,0,0.1,0,0.2c0,0.1-0.3-0.1-0.1,0.1
				c-0.3,0-0.5,0.1-0.8-0.1c0.2,0.1,0.2-0.1,0.4-0.1c0-0.1-0.1-0.1-0.1-0.1c0,0,0.1,0,0.2-0.1c-0.1,0-0.3,0-0.4-0.1
				c0.1,0.1,0.1,0.2,0,0.3c-0.2,0.1-0.1-0.1-0.2-0.1c0-0.1,0-0.1,0-0.2c-2.5-0.3-5-0.9-7.3-1.7c-4.4-1.4-8.5-3.5-12.2-6.2
				c-3.7-2.7-7-6-9.7-9.7c-1.6-2.2-3-4.5-4.1-6.9c0,0,0,0.1-0.1,0.1c-0.1,0-0.1-0.2,0-0.3c0-0.1-0.1-0.2-0.2-0.3
				c-0.2,0-0.3,0.1-0.5-0.1c-0.3,0.3-0.2,0.6-0.5,0.9c-0.1-0.4-0.3-0.8,0.2-1.2l0.4,0.3c0.2-0.1,0.1-0.2,0-0.3
				c0.1-0.1,0.2-0.1,0.3-0.1c-0.1-0.2-0.1-0.3-0.2-0.5c-0.2,0.1-0.4,0.1-0.6,0.1c-0.5,0-1.1-0.3-1.7-0.3c0,0.1-0.2,0.1-0.2,0
				c0,0,0,0,0,0c-0.2,0-0.4,0-0.6,0.1c-0.1,0-0.2,0.1-0.3,0.1c0,0,0.1,0.1,0.1,0.1c0.2,0.4-0.2,0.2-0.4,0c0,0,0,0,0,0
				c-0.2,0.1-0.4,0.2-0.5,0.3c0,0.1,0.1,0.1,0.1,0.1c0.1,0.1,0.3,0.2,0.4,0.3c0.2,0.1,0.5,0.1,0.9,0.1c-0.1,0.2-0.2,0.4-0.3,0.5
				c0.1,0.1,0.2,0.2,0.2,0.3c0.4-0.5,0.8-0.1,0.8,0.3c-0.1,0.1-0.3,0.1-0.4,0.1c0.3,0.3,0.5,0.7,0.7,1.1c0.1-0.1,0.3-0.1,0.4,0.2
				l-0.2,0.2c0,0.1,0.1,0.2,0.1,0.2c0.2,0.4,0.4,0.8,0.5,1.2c0,0,0,0,0,0c0,0.1,0,0.2,0,0.3c0.8,2.2,0.7,4.3-0.4,5.5
				c0.3,0.4,0.6,0.8,0.9,1.3c0.3,0.4,0.6,0.8,0.9,1.2c0.1-0.1,0.3-0.1,0.4-0.1c0-0.1,0-0.1,0.1-0.1c1.3-0.3,3,0.2,4.6,1.4
				c0,0,0,0,0,0v0c0.5,0.3,0.9,0.7,1.4,1.2c0.9,0.9,1.6,2,2.1,3c0.3,0.1,0.4,0.7,0.4,0.8c0,0-0.1,0-0.1,0.1c0.3,1,0.3,1.9,0,2.7
				c0.4,0.3,0.8,0.6,1.2,0.9c0.4,0.3,0.8,0.6,1.3,0.9c0.5-0.4,1.1-0.7,1.8-0.8c-0.1-0.1-0.2-0.2-0.3-0.3l0.5-0.5
				c0,0.2,0.1,0.5,0.3,0.7c0,0,0,0,0,0c1.4-0.1,3,0.3,4.6,1.1c2.7,1.4,4.5,3.5,4.3,5.5c0.5,0.2,1,0.3,1.5,0.5c0.5,0.2,1,0.3,1.5,0.5
				c1-1.7,3.7-2.4,6.7-1.9c3,0.5,5.4,2,5.8,3.9l1.5,0l1.5,0c0.1-0.6,0.4-1.1,0.9-1.6c-0.2-0.1-0.2-0.4-0.5-0.4
				c-0.1-0.4-0.5-0.5-0.6-0.8c0.2-0.1,0.5-0.1,0.8-0.1c-0.2,0.2,0.2,0.7,0.6,0.7c0,0.2-0.1,0.3-0.1,0.5l0,0c1.1-1,2.8-1.8,4.7-2.1
				c0.5-0.1,1-0.1,1.5-0.1c0-0.1,0-0.1-0.1-0.2c0.1-0.1,0.2-0.1,0.1-0.3c0,0,0.1,0.1,0.1,0.1c0,0.2,0,0.3,0.1,0.4
				c-0.1,0-0.1,0-0.1,0.1c2.3,0,4.3,0.7,5.1,2c0.5-0.2,1-0.3,1.5-0.5c0.5-0.2,1-0.3,1.5-0.5c0-0.1,0-0.2,0-0.3c0,0,0,0.1,0,0.1
				c-0.2,0-0.2-0.2-0.5-0.1c-0.1,0.1-0.1,0.3-0.3,0.3c-0.1-0.2-0.3-0.1-0.3-0.3c0.1,0,0.1,0.1,0.1,0.1c-0.1-0.2,0-0.2-0.1-0.3
				c0.1-0.1,0.1,0,0.2,0c0,0,0-0.1-0.1-0.1c0.1-0.1,0.2,0,0.2-0.1c0.2,0.1,0.3,0.4,0.7,0.4c0-0.2,0-0.3,0.1-0.5c0,0,0,0-0.1,0
				c0,0,0-0.1,0.1-0.1c0-0.1,0.1-0.2,0.1-0.4c-0.1,0-0.2-0.1-0.2-0.3c0.2,0,0.2-0.1,0.3-0.1c0,0,0,0,0,0.1c0.1-0.2,0.2-0.3,0.2-0.5
				c0,0,0-0.1,0-0.1c0,0,0,0,0,0c-0.1-0.1-0.3,0-0.3-0.2c0.1,0,0.2,0,0.4,0.1c0.2-0.2,0.3-0.5,0.6-0.7c0,0,0,0,0,0
				c0.1-0.1,0.2-0.2,0.1-0.3c0.1,0,0.2,0,0.2,0c0.5-0.5,1.1-0.9,1.7-1.4c0,0,0,0,0-0.1c0.1,0,0.1,0,0.1,0c0.3-0.2,0.6-0.3,0.8-0.5
				c0.2-0.1,0.4-0.2,0.6-0.3c0-0.1,0.1-0.2,0.1-0.2c0.1,0.1,0.1-0.1,0.2,0.1c0.1,0-0.1-0.2,0.1-0.2c-0.1,0.1,0,0.1,0,0.2
				c0.5-0.2,1-0.3,1.5-0.4c0-0.2-0.2-0.5-0.1-0.7c0.1,0,0.3,0.2,0.3,0.1c0.1,0.1,0.1,0.3,0.1,0.5c0.9-0.2,1.8-0.1,2.5,0.1
				c0.1-0.1,0.1-0.2,0-0.3h0.3c0,0.2,0,0.3,0.1,0.3c0,0.1,0,0.1,0,0.1c0.1,0,0.1,0,0.1,0.1c0.2-0.1,0.4,0,0.6-0.3
				c0.2,0.1,0.1,0.1,0.3,0.1c0,0.1-0.1,0.1-0.1,0.2c-0.2,0-0.4,0-0.4-0.1c0,0,0,0.1-0.1,0.2c0.1,0,0.1,0.1,0.2,0.1
				c0,0-0.1-0.1-0.1-0.1c0.1-0.1,0.2,0.1,0.4,0.1c0-0.1-0.1-0.1-0.1-0.2c0-0.1,0.1,0,0.1,0c0.1,0,0.2,0,0.1-0.1c0.1,0,0,0.1,0.1,0.1
				c0,0.1-0.1,0-0.1,0c-0.1,0.1,0,0.1,0,0.3c-0.1,0-0.1,0.1-0.1,0.1c0,0-0.1,0-0.1,0c0.1,0.1,0.1,0.1,0.2,0.1
				c0.4-0.3,0.8-0.6,1.3-0.9c0.2-0.2,0.5-0.4,0.7-0.6c-0.2,0-0.4,0-0.7,0.1c0.1-0.2-0.2,0-0.3-0.1c-0.1,0.1,0,0.2-0.1,0.2
				c0-0.1-0.1-0.2-0.2-0.2c0-0.1,0.2-0.2-0.1-0.1c0-0.1,0.1-0.1,0.1-0.2c0.1,0,0.1,0.1,0.3,0.1v0.2c0.1,0.1,0.1-0.2,0.1,0
				c0.1-0.1,0.2-0.2,0.1-0.3c-0.1,0,0,0.1-0.1,0.1c-0.2,0-0.3-0.3-0.5-0.1c-0.3,0,0.1-0.3-0.2-0.3c0.1-0.2-0.1-0.5,0.2-0.7
				c0-0.1-0.1-0.1-0.2-0.1c0.1-0.2,0.2,0.1,0.4,0.1c-0.1,0.2,0.1,0.3,0.1,0.5c0.2,0,0.3,0.1,0.4,0.2c-0.1,0.1-0.1,0.1-0.1,0.2
				c0.1-0.2,0.4,0.1,0.5-0.1c0.1,0,0.1,0.2,0.2,0.2c0,0.2,0,0.4,0,0.4c0.2-0.1,0.3-0.2,0.5-0.3c0,0,0,0,0,0s0,0,0,0c0,0,0,0,0,0
				c-0.1-0.2-0.2-0.4-0.2-0.7c-0.2,0-0.3,0.1-0.5,0c0-0.1,0.2,0,0.1-0.1c0.1,0,0.2,0,0.3-0.1c-0.1-1.2,0.4-2.6,1.3-4
				c0-0.1,0-0.1,0-0.2c0.1,0,0.2,0,0.2-0.1c0.1-0.1,0.2-0.2,0.2-0.3c-0.1-0.1-0.1-0.2-0.1-0.4c0.1,0,0.1,0.1,0.2,0.1
				c0-0.2-0.2-0.1-0.2-0.3c0.1,0,0.1,0,0.3,0c0,0.2-0.1,0.3-0.1,0.4c0.2-0.3,0.5-0.6,0.8-0.8c1.5-1.5,3.2-2.4,4.8-2.6
				c0.2-0.2,0.4-0.4,0.6-0.8c-0.1-0.1-0.2-0.1-0.1-0.2c0.2-0.1,0.4-0.2,0.5-0.3c0.2,0,0.2,0.2,0.3,0.2c-0.1,0.3-0.2,0.4-0.5,0.6
				c-0.1,0.3,0.2,0.2,0.2,0.5c0.1,0,0-0.1,0-0.2c0.1,0,0.1,0.1,0.2,0.1c-0.2,0.1,0,0,0,0.2c0,0,0,0,0,0c0.1-0.2,0.6-0.2,0.6,0
				c0.3-0.3,0.2-0.7,0.1-1.1h0.2c-0.1-0.1-0.1-0.1-0.1-0.2c0.3,0,0.4-0.1,0.7,0.1c-0.1,0.2-0.1,0.5-0.2,0.7c0,0,0,0,0,0
				c0.1-0.2,0.3-0.4,0.4-0.5c0.2-0.2,0.3-0.4,0.4-0.6c0,0,0,0,0,0c0,0,0,0,0,0c0,0,0,0,0-0.1c0,0,0,0,0,0c0-0.1,0-0.1,0.1,0
				c0.1-0.2,0.2-0.3,0.3-0.5c-1.3-1.4-1.1-4.3,0.2-6.9c0.7-1.3,1.6-2.5,2.6-3.2c0,0-0.1,0-0.1,0c0.1-0.1,0-0.1,0-0.2
				c0.2,0,0.5,0,0.5-0.2l0,0C109.7,67.2,109.6,67.2,109.5,67.1z M22.4,68c-0.3-0.8,0.9-0.7,1.2-0.2C23.2,68.5,22.8,67.5,22.4,68z
				 M25,77.6c-0.2-0.4,0.2-0.2,0.4,0C25.5,78,25.2,77.8,25,77.6z M24.8,71.5c0-0.3,0.5-0.2,0.5-0.2C26.4,71,24.8,71.7,24.8,71.5z
				 M29.2,77.6c-0.4-0.6,0.5-0.6,0.7,0C29.7,77.8,29.5,77.4,29.2,77.6z M30.8,81.6c-0.2-0.2,0.1-0.3,0.2-0.2
				C31.1,81.7,30.9,81.7,30.8,81.6z M30.6,79.3c-0.4-0.3-0.3-0.6-0.5-0.9c0.4-0.3,0.7-0.1,1,0.3L30.6,79.3z M32.4,81.4
				c-0.3-0.3,0.5-0.7,0.3-1.1c-0.2-0.2-0.5,0.2-0.7,0.3c0.2-0.8,0-1-0.9-1.6C32.4,78.9,34.1,81.1,32.4,81.4z M34.1,85.3
				c-0.5-0.3,0.1-0.6-0.2-0.9C34.5,84.1,34.6,85.1,34.1,85.3z M35.3,89.3c-0.3-0.1-0.4-0.3-0.5-0.5c0.1,0,0.2-0.1,0.3-0.1
				C35.1,89,35.5,89.1,35.3,89.3z M34.3,83.7c0.4-0.5,0.8-0.1,1.2,0.2C35.1,84.4,34.7,84.2,34.3,83.7z M36.4,85.2
				c0-0.1-0.1-0.1,0-0.2c0.1-0.1,0.3,0,0.4,0.1C36.7,85.1,36.6,85.2,36.4,85.2z M52.3,94.1c-0.3,0-0.4,0.2-0.4,0.5
				c-0.1,0-0.2,0-0.1,0.1c-0.2-0.2,0.2-0.5,0-0.6c0.3,0.1,0.5-0.4,0.4-0.7c0.1,0.1,0.2,0.1,0.3,0C52.4,93.8,52.3,93.9,52.3,94.1z
				 M61.5,96.9c-0.2-0.1-0.1-0.3,0-0.4c0,0.1,0.1,0.1,0.1,0.2C61.4,96.6,61.4,96.8,61.5,96.9z M65.3,96.1c-0.2-0.1-0.2,0-0.3-0.1
				c0-0.2,0-0.3,0-0.4c0-0.1,0.3,0,0.1-0.1c0.2-0.1,0.1,0.3,0.3,0.3C65.4,96.1,65.2,96,65.3,96.1z M65.9,96.4c0.1,0,0.1-0.1,0.3-0.1
				C66.6,96.6,66,96.8,65.9,96.4z M80.8,92c0-0.1,0.2,0,0.2-0.1c0-0.1,0-0.2,0.1-0.2c0-0.1-0.2-0.1-0.2-0.3c0.2,0,0.1-0.2,0.2-0.2
				c0.2,0.2,0.3-0.1,0.6,0.1c0-0.1-0.1-0.1-0.2-0.1c0-0.2,0.4,0,0.5,0.1c-0.2,0.4-0.1,0.7-0.2,1.2c0-0.1-0.2-0.1-0.1-0.2
				c-0.2,0-0.2,0.2-0.4,0.2c0-0.1,0.2,0,0.1-0.2c-0.1,0.1-0.2,0.2-0.2,0.3c-0.1,0-0.2-0.1-0.3,0C80.7,92.3,80.9,92.1,80.8,92z
				 M81.3,92.9c0.1,0,0.3,0.2,0.4,0.1c0.1,0.1,0,0.3-0.1,0.4c-0.1-0.1-0.3-0.1-0.3-0.1C81.3,93.1,81.2,93,81.3,92.9z M74.2,95.2
				C74,95.2,74.1,95,74,95c0-0.1,0.1-0.1,0.1-0.1c-0.1-0.1,0-0.3-0.2-0.3c0.1-0.1,0.4-0.2,0.4,0.1c-0.3,0,0,0.3,0,0.3
				C74.3,95.1,74.1,95,74.2,95.2z M74.6,93.6c-0.1,0.2-0.2,0.2-0.3,0.3c-0.1,0,0.1-0.2-0.1-0.2c0-0.1,0.2,0,0.2-0.1
				c-0.2,0,0-0.2-0.3-0.1c0-0.2,0.2-0.1,0.1-0.2c0.1,0,0.2,0.1,0.4,0.1C74.5,93.2,74.5,93.6,74.6,93.6z M76.9,95.5
				c-0.2,0.1-0.2-0.1-0.3-0.1c0-0.2,0.2-0.3,0.4-0.1C76.9,95.3,76.9,95.4,76.9,95.5z M78,95.3c-0.2,0-0.4-0.1-0.2-0.3
				c0.2-0.1,0.1,0.1,0.3,0.1C78,95.2,77.9,95.2,78,95.3z M78.4,92.7c0-0.1,0.1-0.1,0-0.1c0.1,0,0.4,0,0.4,0.2
				C78.6,92.8,78.6,92.6,78.4,92.7z M79.5,97.6c-0.2,0-0.1-0.2-0.1-0.3C79.4,97.3,79.6,97.4,79.5,97.6z M78.9,95.1
				c-0.1-0.2-0.1-0.3-0.1-0.5c0.2,0.1,0.2,0,0.4-0.1c0,0.1,0.1,0.2,0.2,0.1C79.2,94.7,79.4,95,78.9,95.1z M79.6,91.6
				c0-0.1,0.4-0.2,0.2-0.2c0.1-0.1,0.4-0.1,0.5,0.1C80.1,91.3,80,91.6,79.6,91.6z M80.6,96.3c0-0.2-0.2-0.2-0.2-0.3
				c0.1-0.1,0.2,0.1,0.3-0.1c0,0.1,0,0.1,0.1,0.1C80.8,96.2,80.7,96.2,80.6,96.3z M81.6,94.9c-0.1-0.2-0.1-0.1-0.3,0
				c0-0.1,0.1-0.1,0.1-0.2c-0.1,0-0.1,0.1-0.2,0.1c0,0-0.1-0.2-0.1-0.1c-0.1,0,0-0.2-0.2-0.2c0.2-0.1,0.4,0,0.6-0.1
				c0.1,0.1,0.1,0.2,0,0.2c0.1,0,0.1-0.1,0.1-0.1C81.6,94.6,81.7,94.7,81.6,94.9C81.6,94.8,81.6,94.9,81.6,94.9z M82,94.6
				c-0.1-0.1-0.2-0.1-0.3-0.1c0-0.3,0.3,0.2,0.3-0.1C82.1,94.3,82,94.5,82,94.6z M86,90.3C86,90.3,85.9,90.3,86,90.3
				c-0.1,0.2,0,0.2,0,0.4C85.8,90.8,85.8,90.2,86,90.3z M83.4,93.3c0,0.1-0.1,0.1-0.1,0.2c0-0.1-0.1-0.1-0.3-0.1
				c-0.1-0.1-0.2-0.3-0.3-0.4c0-0.1,0,0,0,0c0.1-0.2,0.3-0.3,0.2-0.7c0.1,0.2,0.2,0,0.3,0.1c0,0.1,0,0.1-0.1,0.1
				c0.2,0.2,0.2,0.6,0.3,0.7C83.4,93.2,83.2,93.3,83.4,93.3z M84.5,91.4c-0.1,0-0.1-0.1-0.2-0.1c0-0.2-0.1-0.2-0.1-0.3
				c-0.1,0-0.2,0-0.2,0.1c-0.1,0,0-0.2-0.1-0.1c0.2-0.2-0.2-0.4,0.1-0.6c-0.2-0.1-0.2,0.2-0.3,0.1c0.1-0.1-0.2-0.1-0.1-0.3
				c0.1,0.1,0.3,0,0.5-0.1c0.2,0.1,0,0.2,0.2,0.2c-0.1,0.1,0.2,0.3,0,0.4c0.1,0.1,0.3,0.2,0.5,0.2c0,0.2,0.3,0.2,0.2,0.4
				C84.7,91.2,84.5,91.2,84.5,91.4z M84.6,89.7c0.1-0.2,0.4-0.2,0.6-0.3c0-0.2,0-0.3-0.1-0.4c0.1-0.2,0.1,0.1,0.3,0.1
				c0.1,0,0-0.1,0-0.1c0.1,0.1,0.2,0,0.2-0.1c0.2,0.1,0.1,0.2,0.3,0.1c-0.1,0.1,0.1,0.5-0.2,0.5c0.2,0.1,0,0.2,0.1,0.2
				c-0.2,0-0.3,0.1-0.4,0C85.2,89.8,84.8,89.7,84.6,89.7z M85.3,90.9c0-0.1,0.2-0.1,0.1-0.1c0-0.1,0.1,0,0.2,0
				c-0.1,0.1,0.1,0.1,0.1,0.3C85.5,91,85.5,90.9,85.3,90.9z M86.6,91.1c-0.2,0,0-0.2-0.1-0.2c-0.1,0.2-0.4,0-0.6,0.2
				c-0.1,0,0-0.2-0.1-0.2c0-0.1,0,0,0,0c0.3,0,0-0.1,0.1-0.2c0.1,0,0.4,0.1,0.5,0c0.2,0,0.2,0.2,0.3,0.3
				C86.6,91,86.6,91.1,86.6,91.1z M87.4,90.4c-0.1,0-0.1-0.1-0.2-0.1v-0.2c-0.1,0-0.1,0-0.1,0.1c0,0.3-0.2-0.1-0.3-0.3
				c-0.2-0.2-0.3-0.2-0.4-0.3c0-0.2,0.3,0,0.1-0.1c0-0.1,0.2,0,0.1,0.1c0.1,0,0-0.2,0.1-0.2c0.2,0.1,0.3,0.4,0.5,0.3
				c0.1,0,0,0.3,0.1,0.2c0,0.1-0.1,0-0.2,0.1c0.1,0.1,0.1,0.2,0.2,0.3c0.1,0,0-0.1,0-0.1C87.5,90.2,87.5,90.3,87.4,90.4z M88,88.9
				c0.1-0.2,0.4,0.1,0.5-0.1c0.1,0.1-0.1,0.2-0.1,0.4c-0.1,0-0.2,0-0.2,0.1C88,89.3,88.2,88.9,88,88.9z M88.4,89.8
				c-0.2,0-0.1,0.1-0.2,0c0.2-0.1,0.3,0,0.6,0c-0.1,0.1,0.1,0.1,0.1,0.2C88.6,90.2,88.4,90,88.4,89.8z M88.6,89.1
				c-0.1-0.2,0.1-0.2,0.1-0.3c0,0.1,0.2,0.1,0.2,0.2C88.7,88.9,88.8,89.1,88.6,89.1z M89.1,89.2c0.2,0,0.6,0.1,0.5,0.4
				C89.4,89.6,89.1,89.6,89.1,89.2z M90.5,86.2c0,0.2,0.1,0.3,0.1,0.4c-0.1,0-0.3,0-0.5,0C90,86.6,90,86.3,90,86.2
				C90.2,86.1,90.3,86.2,90.5,86.2z M90.6,89.7c-0.1-0.3-0.5-0.1-0.4-0.4C90.2,89.4,90.7,89.3,90.6,89.7
				C90.6,89.7,90.6,89.7,90.6,89.7z M90.7,88.4c0.2,0,0.2-0.3,0.4-0.3c0,0.1,0,0.1,0.1,0.1c0.1,0.1,0.1,0.2,0.2,0.4
				c-0.2-0.1-0.2,0.1-0.2,0.1c0,0.1,0.1,0.1,0.1,0.1c0,0.1,0,0,0,0c-0.1,0-0.2-0.1-0.2,0.1C90.7,88.8,90.8,88.6,90.7,88.4z
				 M91.4,90.2c0-0.3-0.3-0.4-0.5-0.4c0-0.1,0.1-0.1,0.1-0.2c0.1,0,0.2,0.2,0,0.1c0,0,0.1,0,0.1,0.1c0.2-0.1,0.3,0,0.6-0.1
				c0,0.1,0,0.2,0.1,0.1C91.7,90,91.4,90,91.4,90.2z M92.5,84.9c0.1-0.1,0.3-0.1,0.4-0.1c0,0.1,0,0.2-0.1,0.1c0,0.1,0.1,0.1,0.1,0
				C93,85.2,92.6,85.2,92.5,84.9z M95.1,87.4c0,0.1,0.1,0,0.1,0.1C95.2,87.5,95.1,87.5,95.1,87.4c0.1,0.2,0,0.2,0.1,0.3
				c-0.1,0.1-0.1,0-0.2,0c0,0.1,0.1,0.2,0.2,0.2c0,0.1-0.1-0.1-0.1,0.1c-0.2-0.2-0.1-0.9-0.1-1.2c0,0.1,0.2,0.1,0.3,0.1
				c0,0.2,0,0.2,0.1,0.4C95.2,87.4,95.2,87.4,95.1,87.4z M95.6,83.4c0.1,0.2-0.1,0.1-0.1,0.3c-0.1-0.1-0.2-0.2-0.2-0.4
				C95.4,83.3,95.5,83.4,95.6,83.4z M95.7,84.6c-0.2,0,0-0.2-0.1-0.3c0.1-0.1,0.4,0,0.4,0.1C95.8,84.5,95.7,84.4,95.7,84.6z
				 M96.3,83.6c-0.2-0.2,0.1-0.3,0.2-0.2C96.6,83.6,96.4,83.7,96.3,83.6z M97,81.3C97,81.2,96.9,81.2,97,81.3
				C96.9,81,97.2,81,97,80.9c0-0.1,0.2,0,0.2,0C97.3,81.2,97.2,81.3,97,81.3z M97.3,81.9c0-0.2,0.1-0.2,0.2-0.4
				c0.1,0.1,0.2,0,0.1-0.1c0.1-0.2,0.3,0.1,0.4-0.2c0.1,0,0.1,0,0.2,0.1C97.8,81.5,97.7,81.8,97.3,81.9z M98.1,80.8h-0.2
				c0.1,0.1,0.1,0.2,0.1,0.3c-0.1,0-0.1,0-0.1-0.1v0.1c-0.1-0.2,0-0.6,0.2-0.7C98.2,80.6,98.1,80.7,98.1,80.8z M105.4,70.8
				c0.1,0,0,0.2,0.1,0.2c-0.1,0.1-0.1,0.1-0.2,0.1c0-0.1,0-0.1,0-0.3C105.3,70.9,105.2,70.8,105.4,70.8z M104.6,71.7
				C104.6,71.7,104.7,71.7,104.6,71.7c0.2,0.1,0.1,0.1,0.2,0.3c-0.1,0.1-0.2,0-0.2,0.1c0,0,0,0-0.1-0.1c0,0,0-0.1-0.1-0.1
				C104.6,72,104.6,71.9,104.6,71.7z M103.8,71.3c0.3,0,0.1,0.4,0.3,0.5c0,0.1,0,0.2-0.1,0.2c-0.1,0-0.1,0-0.2-0.1
				c0.1-0.2-0.1-0.3,0.1-0.4c0-0.1-0.1,0.1-0.2,0C103.8,71.5,104,71.5,103.8,71.3z M104.2,72.5C104.1,72.4,104.1,72.4,104.2,72.5
				c-0.1,0.1-0.1,0-0.1,0H104c0.1-0.1,0.1-0.3,0.1-0.4C104.2,72.2,104.1,72.4,104.2,72.5z M104,72.7c-0.1,0.3,0.1,0.6,0.3,0.9
				c0.1,0,0.1,0.1,0.2,0c-0.1,0.1,0.1,0.3,0.3,0.3c0,0.1,0,0.2,0.1,0.2c-0.1,0.1-0.2,0-0.3,0c0.1,0.1,0.1,0.2,0.1,0.3
				C103.8,75.1,103.4,73.1,104,72.7z M103.5,73.2c0.1-0.1-0.1,0.1-0.1,0.2c-0.1,0-0.3,0-0.3-0.2C103.2,73.1,103.4,73.4,103.5,73.2z
				 M98.3,79.2c0.2,0,0.2,0.2,0.2,0.3c0,0,0,0-0.1,0c-0.1,0,0,0.1,0,0c-0.1,0.1-0.2-0.1-0.4,0C98.3,79.4,98.4,79.5,98.3,79.2z
				 M98.7,80.9c-0.1,0-0.2,0-0.2,0.2c-0.1-0.1-0.2-0.1-0.2-0.1c0.1-0.2,0.4-0.1,0.4-0.3C98.8,80.8,98.6,81,98.7,80.9z M101.1,79.5
				C101.1,79.5,101.1,79.6,101.1,79.5c-0.2,0-0.3,0-0.4,0c0,0.1,0.1,0.1,0.1,0.3c-0.2,0-0.3,0.1-0.3,0.3c-0.1-0.1-0.2,0.1-0.3,0.1
				c-0.5-0.3-0.8,0.5-1.2,0.4c0.1-0.1,0.2-0.2,0.1-0.2c0.1-0.2,0.3-0.2,0.2-0.5c0.1,0.1,0.1,0,0.2-0.1c0.1,0.1,0.2,0,0.2,0.2
				c0.4-0.5,1-0.6,1.2-1.1c0.2,0.1,0.3,0.2,0.4,0.4C101,79.4,101.1,79.3,101.1,79.5z M100.2,77.8c0.2,0,0.1-0.2,0.2-0.3
				c0.2,0.1,0.2,0.2,0.4,0.4c-0.1,0.1-0.2,0-0.3,0.1C100.6,77.7,100.5,77.9,100.2,77.8C100.4,77.8,100.3,77.8,100.2,77.8z
				 M101.1,77.2c-0.2-0.2-0.6-0.2-0.9-0.3c0.1-0.2,0-0.5-0.1-0.4c0-0.2,0.4-0.1,0.4-0.3c0.2,0.2,0.3,0,0.6,0
				c0.1,0.1,0.1,0.2,0.2,0.2c-0.1,0.3,0.3,0.2-0.1,0.5c0,0.1,0.1,0.1,0.2,0.1C101.3,77.1,101.2,77.1,101.1,77.2z M100.9,75.3
				c0.2-0.2,0.3-0.1,0.5,0.1c0,0.1,0,0.3-0.2,0.3c0,0.1,0.1,0,0.1,0.1C101.2,75.9,101,75.4,100.9,75.3z M102,79.7
				c-0.2,0-0.3,0-0.4-0.2c-0.1,0.1-0.1,0-0.1,0.1c0-0.1,0.3-0.3,0.5-0.3C101.9,79.3,102,79.6,102,79.7z M103.2,78.2
				c-0.2,0-0.3,0.1-0.5,0.1c0-0.1-0.1-0.1-0.1-0.2c0.1,0.1,0.1,0.1,0.3,0.1c0.1,0,0-0.2,0.1-0.2h0.2C103.3,78.1,103.2,78,103.2,78.2
				z M104,76c-0.4,0-0.6,0.2-0.6,0.6c0.1,0,0.1,0.1,0.1,0.2c0,0,0,0.1,0,0.1c-0.2,0.1-0.2,0.2-0.6,0.1c0.1-0.2-0.1-0.1-0.1-0.3
				c0.1,0.1,0.2-0.1,0.1-0.1c-0.1-0.1,0.1,0,0.1,0.1v-0.1c0-0.1-0.1,0-0.2-0.1c-0.1-0.2,0.4,0.1,0.5-0.1c-0.1-0.1-0.2-0.2-0.4-0.2
				c0.1-0.1,0.1-0.2,0.1-0.3c0.3,0,0.4,0,0.7,0.1c0-0.1-0.1-0.1-0.1-0.2c0.1,0.1,0.2,0,0.3,0C103.9,75.8,103.9,75.8,104,76z
				 M104.9,75.7c-0.1,0.7-0.2-0.1-0.1-0.2c-0.1,0-0.2,0-0.2,0c0.2,0.3-0.2,0.1-0.3,0.2c0-0.2-0.2-0.4-0.4-0.6c0.2-0.1,0-0.2,0.1-0.4
				c0.2,0,0.3,0.2,0.7,0.2c0.1,0.2,0.3,0.4,0.4,0.4c0,0.2-0.1,0.2-0.2,0.2C104.9,75.5,104.9,75.5,104.9,75.7z M105.6,78.4
				c-0.1,0.2-0.3-0.1-0.5,0.1v-0.2c0,0,0.1-0.1,0.1-0.1c0.2,0.1-0.1,0-0.1,0.1C105.2,78.4,105.4,78.3,105.6,78.4
				C105.6,78.4,105.5,78.4,105.6,78.4C105.4,78.4,105.5,78.4,105.6,78.4z M105.9,77.7c-0.2,0.2-0.5,0.1-0.7,0c0,0,0.1,0,0.1-0.1
				c0,0,0-0.1-0.1-0.1c-0.2,0.1,0,0.2-0.2,0.3c0-0.3,0.1-0.4,0.2-0.6c0,0,0-0.2,0.1-0.2c-0.1,0,0.3-0.1,0.3-0.1
				C105.8,77.1,105.8,77.5,105.9,77.7z M105.6,69.4c0-0.2,0-0.2-0.1-0.5c0.2,0.2,0.1-0.2,0.4-0.2c0,0-0.1,0.1,0,0.1
				c0.2,0.1,0.1-0.2,0.2-0.1c0,0.1,0.1,0.1,0,0.2c-0.1,0.1-0.2,0-0.3-0.1c-0.1,0.2-0.1,0.3-0.1,0.5
				C105.7,69.4,105.6,69.3,105.6,69.4z M106.2,71.5c-0.2,0-0.2,0.1-0.4,0c0,0,0.1-0.1,0.1-0.2c0.1,0,0.1-0.1,0.2,0
				c0-0.1-0.2,0-0.2-0.1c0.1-0.1,0.2-0.1,0.4-0.1C106.2,71.3,106.1,71.3,106.2,71.5z M107,68.5c-0.2-0.1,0.1-0.2-0.1-0.4
				c0.1,0,0,0.1,0.1,0.1c0.1,0,0.1,0,0.1-0.1C107.3,68.2,107.1,68.4,107,68.5z"/>
		</g>
		<g>
			<path class="st0" d="M87.1,91C87.2,91,87.2,91,87.1,91C87.2,90.9,87.2,90.9,87.1,91C87.1,90.9,87.1,90.9,87.1,91z"/>
		</g>
		<g>
			<path class="st0" d="M91.9,90.4C91.9,90.4,91.9,90.4,91.9,90.4C92,90.4,92,90.4,91.9,90.4C91.9,90.4,91.9,90.4,91.9,90.4z"/>
		</g>
		<g>
			<path class="st0" d="M104.3,80.3c0.1,0,0.2,0,0.2,0.1c0,0,0.1-0.1,0.1-0.1C104.6,80.2,104.5,80.2,104.3,80.3
				C104.3,80.2,104.3,80.3,104.3,80.3z"/>
		</g>
		<g>
			<path class="st0" d="M105.1,79.9C105.1,79.9,105.1,79.8,105.1,79.9c0.1-0.1,0.1-0.1,0.1-0.1C105,79.8,105,79.9,105.1,79.9z"/>
		</g>
		<g>
			<path class="st0" d="M89.1,90.4C89.1,90.4,89.1,90.4,89.1,90.4C89.1,90.4,89.1,90.4,89.1,90.4C89.1,90.4,89.1,90.4,89.1,90.4z"/>
		</g>
		<g>
			<path class="st0" d="M81.6,96.3c-0.1,0-0.1-0.1-0.2-0.1C81.3,96.4,81.6,96.4,81.6,96.3z"/>
		</g>
		<g>
			<path class="st0" d="M59.1,93.1L59.1,93.1C59,93.2,59.1,93.3,59.1,93.1z"/>
		</g>
		<g>
			<path class="st0" d="M23.9,69.9C23.8,70.9,23.8,68.9,23.9,69.9L23.9,69.9z"/>
		</g>
		<g>
			<path class="st0" d="M25,69.5c0.2,0,0.1,0.3,0,0.3C24.8,69.9,24.9,69.5,25,69.5z"/>
		</g>
		<g>
			<path class="st0" d="M26.2,72.5c-0.2,0-0.1-0.3,0-0.3C26.4,72.2,26.3,72.5,26.2,72.5z"/>
		</g>
		<g>
			<path class="st0" d="M35.2,82.8c0.2,0,0.1,0.3,0,0.3C35,83.2,35.1,82.8,35.2,82.8z"/>
		</g>
		<g>
			<path class="st0" d="M36.6,86.9c-0.1,0-0.1-0.1-0.2,0c0-0.1,0-0.2,0.1-0.3C36.7,86.7,36.5,86.8,36.6,86.9z"/>
		</g>
		<g>
			<path class="st0" d="M49.1,92.1c0,0,0-0.1,0-0.2c0.1,0.1,0.2-0.1,0.2,0.2C49.3,92,49.3,92.1,49.1,92.1z"/>
		</g>
		<g>
			<path class="st0" d="M51.9,93.2c0.2,0,0.1,0.3,0,0.3C51.7,93.5,51.8,93.2,51.9,93.2z"/>
		</g>
		<g>
			<path class="st0" d="M55,93.4c0-0.1,0-0.1,0-0.2c0.1,0,0.1,0.1,0.2,0.1C55.3,93.5,55.2,93.5,55,93.4z"/>
		</g>
		<g>
			<path class="st0" d="M60.1,93.6c-0.1,0-0.1-0.2-0.1-0.2C60.1,93.4,60.2,93.5,60.1,93.6C60.2,93.6,60.1,93.6,60.1,93.6z"/>
		</g>
		<g>
			<path class="st0" d="M80.9,93.2c0.2-0.1,0.1,0.2,0.2,0.2c0,0.1-0.2,0-0.2,0C81,93.4,80.9,93.4,80.9,93.2z"/>
		</g>
		<g>
			<path class="st0" d="M74.8,95c-0.1,0-0.2-0.1-0.3-0.1c0-0.1,0.2-0.1,0.2,0c0,0,0-0.1,0.1-0.1C74.9,94.8,74.9,94.9,74.8,95z"/>
		</g>
		<g>
			<path class="st0" d="M75.4,93c0,0-0.1-0.1-0.1-0.1c0-0.1,0-0.1,0.1-0.1c0,0,0,0-0.1,0c0-0.1,0.1,0,0.1,0
				C75.5,92.9,75.4,92.9,75.4,93z"/>
		</g>
		<g>
			<path class="st0" d="M75.9,93h0.1c0,0.1,0,0.1,0.1,0.1C76.1,93.3,75.9,93.2,75.9,93z"/>
		</g>
		<g>
			<path class="st0" d="M78.8,95.5c0.1,0,0.2,0,0.2,0.2C78.8,95.7,78.7,95.8,78.8,95.5z"/>
		</g>
		<g>
			<path class="st0" d="M78.9,97c0,0,0.1-0.1,0.1-0.1c0.1,0,0.2,0.1,0.3,0.1C79.1,97,78.9,97.1,78.9,97z"/>
		</g>
		<g>
			<path class="st0" d="M80.3,91.8c0.1,0,0.3,0.1,0.3,0.2C80.4,92,80.3,92,80.3,91.8z"/>
		</g>
		<g>
			<path class="st0" d="M80.3,94.7c0.1,0,0.2-0.1,0.2-0.2c0.1,0,0.1,0.1,0.2,0.1c0,0.1-0.1,0.2-0.2,0.2c0.1,0.1,0.1,0,0.1,0.1
				C80.6,94.9,80.3,94.8,80.3,94.7z"/>
		</g>
		<g>
			<path class="st0" d="M82.1,94.2c-0.2-0.1,0.2-0.1,0.1-0.2c0-0.1,0.2,0.1,0.1,0.1C82.2,94.2,82.2,94.1,82.1,94.2z"/>
		</g>
		<g>
			<path class="st0" d="M82.4,94.9h-0.1c0-0.2,0.2-0.1,0.1-0.2C82.5,94.6,82.4,94.8,82.4,94.9z"/>
		</g>
		<g>
			<path class="st0" d="M83.9,89.8c0,0,0.1,0.1,0.1,0c0.1,0.1-0.1,0.2-0.2,0.2C83.8,89.9,83.8,89.9,83.9,89.8z"/>
		</g>
		<g>
			<path class="st0" d="M88.5,88.5c0.1,0,0.1,0.1,0.1,0.1c0,0.1-0.1,0.1-0.2,0.1C88.3,88.6,88.5,88.6,88.5,88.5z"/>
		</g>
		<g>
			<path class="st0" d="M88.2,90.5c-0.1,0,0-0.1-0.1-0.1c0-0.1,0.1,0,0.1-0.1C88.4,90.3,88.3,90.4,88.2,90.5z"/>
		</g>
		<g>
			<path class="st0" d="M90.1,89.6c-0.1-0.1-0.2-0.1-0.3,0c0.1-0.1,0.2-0.1,0.3-0.1V89.6z"/>
		</g>
		<g>
			<path class="st0" d="M91.9,85.7c-0.1,0.1-0.2,0-0.3-0.1C91.7,85.5,91.8,85.7,91.9,85.7z"/>
		</g>
		<g>
			<path class="st0" d="M91.6,89.4c0.1,0.1-0.1,0.2,0,0.3c-0.1,0-0.2-0.1-0.1-0.2C91.5,89.4,91.6,89.4,91.6,89.4z"/>
		</g>
		<g>
			<path class="st0" d="M91.7,88.1c-0.2,0-0.1-0.3,0-0.3C91.9,87.8,91.8,88.1,91.7,88.1z"/>
		</g>
		<g>
			<path class="st0" d="M91.9,87.6c-0.2,0-0.1-0.3,0-0.3C92.1,87.2,92,87.6,91.9,87.6z"/>
		</g>
		<g>
			<path class="st0" d="M92.1,86.1C92.1,86.1,92.1,86.1,92.1,86.1c0-0.1-0.1-0.1,0-0.2c0.2,0,0.2,0.1,0.3,0.1
				C92.5,86.1,92.1,86.1,92.1,86.1z"/>
		</g>
		<g>
			<path class="st0" d="M92.4,88.8c0,0-0.1-0.1-0.1-0.1c0-0.1,0.1-0.1,0.1-0.2C92.4,88.6,92.5,88.8,92.4,88.8z"/>
		</g>
		<g>
			<path class="st0" d="M92.3,85.9c0,0,0.1-0.1,0.1-0.1c-0.1-0.1,0.2,0.1,0.1,0.2C92.3,86,92.3,85.9,92.3,85.9z"/>
		</g>
		<g>
			<path class="st0" d="M92.8,90.2c-0.1,0-0.1-0.1-0.1-0.3c0.2,0,0.2,0.1,0.2,0.2C92.8,90.1,92.8,90.1,92.8,90.2z"/>
		</g>
		<g>
			<path class="st0" d="M94.4,89.8c0.1,0.1,0.1,0.1,0.2,0.1c0,0.1-0.1,0.2-0.2,0.1c0-0.1,0-0.1,0.1-0.1C94.4,90,94.4,90,94.4,89.8
				C94.3,89.9,94.4,89.9,94.4,89.8z"/>
		</g>
		<g>
			<path class="st0" d="M94,85.4c-0.1,0-0.1-0.1-0.1-0.1c0.1-0.1,0.2-0.2,0-0.2c0-0.1,0.2,0,0.2-0.1C94.2,85.1,94.1,85.3,94,85.4z"
				/>
		</g>
		<g>
			<path class="st0" d="M94.4,84.2c0,0-0.1-0.1-0.1-0.1c0-0.1,0.1-0.1,0-0.1c0-0.1,0.1,0.1,0.2,0C94.5,84.2,94.4,84.2,94.4,84.2z"/>
		</g>
		<g>
			<path class="st0" d="M95,85.7c0.1,0,0.1-0.1,0.2-0.1c0,0.1,0,0.1,0,0.2c-0.1-0.1-0.1,0-0.2,0C95.1,85.8,95,85.8,95,85.7z"/>
		</g>
		<g>
			<path class="st0" d="M105.6,70.9c0.1,0,0,0.2,0.1,0.1c0,0.1-0.2,0-0.2,0.1C105.4,71.1,105.6,71,105.6,70.9z"/>
		</g>
		<g>
			<path class="st0" d="M99.3,79.3c0,0.1,0.1,0.1,0,0.2c-0.1,0-0.1-0.1-0.2-0.1C99.1,79.3,99.2,79.3,99.3,79.3z"/>
		</g>
		<g>
			<path class="st0" d="M98.9,77.8c0.2,0.1-0.1,0.3-0.1,0.1C98.8,77.8,98.9,77.9,98.9,77.8z"/>
		</g>
		<g>
			<path class="st0" d="M98.7,80.7c0-0.1,0.1-0.1,0.1-0.1c0.1,0,0.2,0,0.1,0.1C98.9,80.8,98.9,80.7,98.7,80.7z"/>
		</g>
		<g>
			<path class="st0" d="M104,78c0-0.1,0.1-0.1,0.1-0.2c0,0,0.1,0.1,0.1,0c0.1,0,0.1,0.2,0.1,0.3C104.1,78.1,104.1,78,104,78z"/>
		</g>
		<g>
			<path class="st0" d="M105.8,71.7c-0.1,0-0.2,0-0.2-0.1c0.2-0.1,0.1-0.3-0.1-0.2c0.1-0.1,0.1-0.1,0-0.3c0.1,0,0.1,0,0.1-0.1
				c0.1,0.1,0,0.2,0,0.3c0.1,0.1,0,0.2,0.2,0.2L105.8,71.7L105.8,71.7z"/>
		</g>
		<g>
			<path class="st0" d="M59.8,93.2c0,0-0.1,0-0.1,0C59.7,93.2,59.7,93.2,59.8,93.2z"/>
		</g>
	</g>
	<g>
		<g>
			<path class="st0" d="M70.8,4.9c0.2,0.9,1.5-0.2,0.7,0.7c0.6,0.5,1.3-1.9,1.9-0.9c-0.8,0.3-0.6,0.6-1.2,1.2c0,0.3,0,0.5,0,0.8
				c0.5,0.1,1,0.2,1.5,0.3c-0.3-0.4-0.5-1-0.8-1.4c1.2-0.2,0.8,1.2,1.9,1.6c0,0-0.1,0-0.1,0c0.1,0,0.3,0.1,0.4,0.1
				c0.2-0.1,0.5-0.1,0.7,0.2c0.9,0.2,1.9,0.5,2.8,0.8c0.4,0.1,0.7,0.3,1.1,0.4c0-0.3,0.1-0.5,0.4-0.8c0.1,0.3,0.2,0.7,0.2,1
				c1.3,0.5,2.5,1,3.7,1.6c0.2-0.7,0.2-1.3,0.6-2c-0.5-0.1-0.9-1.2-1.8-1.8c-0.1-0.2,0.2-0.5,0.4-0.8c-0.2-0.2-0.3-0.4-0.4-0.6
				c0,0.1-0.1,0.2-0.1,0.2c0,0,0,0,0,0c0.1,0.2,0.2,0.3,0.4,0.2C82.9,6,82.7,5.7,82.6,6c-0.1,0-0.2-0.1-0.2-0.2
				c-0.1,0.1-0.2,0.1-0.3,0.2c0.2-0.6,0.4-0.9,0.5-0.9c-0.4-0.7-0.6-1.5-0.5-2.2c-0.5-0.2-1-0.3-1.5-0.5s-1-0.3-1.5-0.5
				c-0.8,1.4-2.7,2-5,2C74.1,4.1,74,4.2,74,4.2c-0.2-0.1-0.2-0.1-0.3-0.2c-0.3,0-0.6,0-0.9-0.1c0,0-0.1,0.1-0.1,0.1
				c-0.1,0-0.1-0.1-0.1-0.1c-0.1,0-0.1,0-0.2,0c-0.3,0-0.6-0.1-0.8-0.2C71.9,4.3,70.7,4.2,70.8,4.9z M81.4,6.3
				c0.2,0.3,0,0.6,0.2,0.9c-0.2,0.2-0.5-0.2-0.7-0.3L81.4,6.3z M80.3,3.5c0.2,0.3-0.2,0.5-0.3,0.3C80,3.6,80.1,3.3,80.3,3.5z
				 M80.3,5.6c-0.3,0.2-0.6,0-0.9,0.2C79.1,5.3,80.1,5.1,80.3,5.6z M77.3,5.1c-0.2,0.2-0.5-0.2-0.7,0C76.2,4.5,77.2,4.5,77.3,5.1z
				 M76.8,5.6c-0.2-0.2,0.1-0.3,0.2-0.2C77.2,5.7,76.9,5.7,76.8,5.6z M76.8,6.3l0.5,0.5C77.1,7.6,76,6.6,76.8,6.3z M75.9,5.4
				c0.2,0.3-0.2,0.1-0.3,0.3C75.4,5.5,75.8,5.3,75.9,5.4z M75.4,4.2c0.1,0.2,0.1,0.5,0.3,0.7c-0.2,0.4-0.5,0.2-0.7,0
				c-0.2,0.1-0.1,0.2,0,0.3c-0.1,0.2-0.2,0.1-0.3,0l-0.3-0.3C74.7,4.3,75.1,4.7,75.4,4.2z M74.2,5.1l0.5,0.5
				C74.4,6.4,73.4,5.4,74.2,5.1z"/>
		</g>
		<g>
			<path class="st0" d="M69.8,4.2c0.5-0.2,1-0.5,1.4-0.6c-1.3-0.4-2.5-1-3.3-1.7c0,0,0,0,0,0c0,0-0.1-0.1-0.1-0.1
				c-0.5-0.5-0.9-1-1-1.6c-0.1,0-0.1,0-0.2,0c0-0.1,0-0.1,0-0.2c-0.5,0.4-0.5,1.7-1.3,1c0.7-0.2,0.5-1.2,0.9-0.9
				c0.1-0.1,0.1-0.1,0.1-0.2l-1,0l-1.5,0c-0.2,1.1-1.1,2-2.4,2.8c0,0.4-0.5,0.5-0.9,0.4c-0.2,0.1-0.4,0.2-0.6,0.2
				c0,0.4-0.4,0.3-0.9,1c-0.2,1,1.2,0.8,1.6,1.2c-0.5,0.8-0.9-0.6-1.4,0c-0.2-0.9-1.4-0.9-0.6-1.8c-0.1,0-0.3,0.1-0.4,0.1
				C57.3,4,56.7,4,56.1,4c-0.1,0.1-0.2,0.1-0.4,0.2c-0.1-0.1-0.1-0.1-0.1-0.2c-0.4,0-0.8-0.1-1.2-0.2l0,0c0.7,0.2,0.5,1.2,0.9,0.9
				c0.1,1.3-1-0.7-1-0.3C54.1,4.2,54.1,4,54,3.8c-1.3-0.3-2.4-0.9-2.9-1.8c-0.5,0.1-1,0.3-1.5,0.4c-0.5,0.2-1,0.3-1.5,0.5
				C48.5,4.9,46.6,7,44,8.4c-1.8,0.9-3.6,1.3-5,1.1l-0.4,0.4c-0.2-0.2-0.2-0.3-0.2-0.5C37.8,9.2,37.4,9,37,8.6
				c-0.2,0.1-0.4,0.3-0.6,0.4c0,0,0,0,0.1,0c0,0.1-0.2,0.2-0.1,0.2c0-0.1,0.2-0.1,0.2,0c0.2,0.2-0.1,0.3-0.2,0.2c0,0,0,0,0-0.1
				c0,0-0.1,0-0.1,0c0.1,0,0,0.2,0.2,0.2c0,0.1,0,0.2-0.1,0.2c0,0,0,0.2,0.1,0.1c0,0.1,0,0.3-0.1,0.4c-0.1,0-0.2,0-0.1-0.2
				c-0.3,0.2-0.4,0.1-0.7,0.1c0-0.2,0-0.2,0.1-0.3c0.2,0.1,0.3,0,0.5,0c0-0.3-0.1-0.5-0.3-0.6c0,0-0.1,0.1-0.1,0.1
				c-0.4,0.3-0.8,0.6-1.2,0.9c0.8,1.8-0.3,4.4-2.4,6.5c-2.1,2.1-4.8,3.2-6.5,2.4c-0.3,0.4-0.6,0.8-0.9,1.2c-0.3,0.4-0.6,0.8-0.9,1.3
				c1.3,1.4,1.1,4.3-0.2,6.9c-0.2,0.4-0.4,0.7-0.6,1c0.2,0,0.4,0,0.6-0.1c0.4,0.6-0.5,0.2-0.7,0.7c-0.1-0.1-0.1-0.2-0.1-0.3
				c-0.7,1-1.4,1.7-2.2,2.3c0,0.1,0,0.2-0.1,0.2c0,0,0,0-0.1,0c0,0-0.1,0-0.2,0.1c0.1,0,0.3,0.1,0.5,0.2c0.4,0.1,0.9,0.1,1.3,0.1
				c0.7,0,1.4-0.1,2.1-0.1c0.3,0,0.5,0,0.7,0.1c0.8-1.9,1.8-3.8,2.9-5.6c-0.1-0.1-0.2-0.2-0.3-0.3c0.2-0.1,0.4-0.2,0.6-0.1
				c0.4-0.6,0.7-1.1,1.1-1.6c-0.1-0.1,0-0.3,0.1-0.3c0,0,0.1,0,0.1,0.1c0,0,0,0,0-0.1c0,0,0,0,0,0c0,0,0,0,0,0c0,0,0,0,0-0.1
				l-0.2-0.2l0.4-0.4l0.1,0.1c1.1-1.5,2.3-2.9,3.5-4.2c-0.6-0.5,0.5-1,0.5-1.6c0.1-0.3-0.2-0.6,0.2-0.9l0.8,0.9
				c1.5-1.4,3-2.7,4.6-3.9c3.7-2.7,7.8-4.8,12.2-6.2c4.4-1.4,9-2.1,13.5-2.1c2.2,0,4.3,0.2,6.4,0.5C71.1,5.8,70.1,5,69.8,4.2z
				 M26.3,21c0-0.1-0.4-0.4-0.2-0.4c0-0.1-0.2,0-0.3,0c0.1-0.2,0.4-0.3,0.5-0.5c0.2,0.2,0,0.6,0.1,0.7C26.4,20.9,26.2,20.8,26.3,21z
				 M27.4,20.7c-0.2-0.1-0.3-0.4-0.4-0.6c0.1,0,0.1,0.1,0.1,0.2c0.1,0,0.1-0.2,0.2-0.1c0,0.1,0,0.1,0,0.1
				C27.3,20.4,27.4,20.5,27.4,20.7z M28,22.1c0.2-0.1,0.3,0.1,0.3-0.1c0.1,0.2,0.3,0.3,0.3,0.6c-0.3,0-0.3,0-0.5-0.1
				C28.1,22.3,27.9,22.3,28,22.1z M28.9,23.3C28.8,23.3,28.8,23.3,28.9,23.3c0,0.2,0.1,0.4,0,0.7c-0.1-0.2-0.3-0.2-0.5-0.1
				c-0.2,0-0.2-0.1-0.2-0.3c0.1,0,0.1-0.1,0.2-0.1c0.1-0.3-0.1-0.4-0.1-0.7c0.1,0,0.1-0.1,0.2,0c0,0.1,0,0.1-0.1,0
				c0.1,0.1,0.1,0.3,0.2,0.4c0-0.1,0-0.3,0.1-0.3C29,23,29,23.3,28.9,23.3z M34.1,15.3c-0.2-0.2,0.1-0.4,0.2-0.5
				C34.5,14.9,34.2,15.1,34.1,15.3z M35.7,15.8c-0.2-0.4,0.2-0.2,0.3,0C36.2,16.1,35.9,16,35.7,15.8z M40.6,12.3
				c0.3-0.4,0.7,0.3,1,0C42,12.7,40.4,13.1,40.6,12.3z M41.4,12.1c0-0.2,0-0.2,0.1-0.3c0.2,0,0.2,0.2,0.3,0.2
				C41.7,12.2,41.6,12.3,41.4,12.1z M44.3,11.1c-0.2-0.2,0.1-0.4,0.2-0.5C44.7,10.7,44.4,10.9,44.3,11.1z M67.3,2.5
				c-0.3,0.1-0.7,0-1.1-0.3C66.6,1.9,67,2,67.3,2.5z M64.5,1.8c0,0,0.6-0.4,0.5-0.2C65,1.9,63.8,2,64.5,1.8z M61.7,4.9
				c-0.4-0.5-0.2-0.9-0.9-0.5c-0.1-1.4,1.8,0.4,1.8-1C63.3,3,62.2,4,62.8,4.2C62.4,4.7,62,4.3,61.7,4.9z M63.8,6
				c-0.2-0.2,0.1-0.3,0.2-0.2C64.2,6,63.9,6.1,63.8,6z M64.7,6.2c-0.2-0.3,0.2-0.5,0.3-0.3C65.2,6.1,64.9,5.9,64.7,6.2z M66.4,5.7
				c-0.1,0-0.1,0.1-0.2,0.1c0,0,0,0,0,0.1c0,0,0,0-0.1,0c0,0,0,0,0,0c-0.1-0.2-0.2-0.4-0.1-0.6C66.4,5.1,66.4,5.4,66.4,5.7z
				 M64.5,4.9c-1-1.1-0.8,0-1.8,0.7c-0.9-0.7,0.5-1.4,1-2.1c0.1-0.3-1.1-0.7,0-1.4c0.4,0.3,0.3,0.6,0.5,0.9c0.3,0.1,0.6,0.1,0.9-0.2
				c0,1,0.7,0,1.2,0.9C65.8,4,65.2,4.3,64.5,4.9z M65.6,2.5c0.2,0.1,0.2,0.2,0.2,0.4c-0.2,0-0.4-0.1-0.4-0.1
				C65.2,2.7,65.5,2.6,65.6,2.5c-0.1,0-0.2,0-0.2,0.1c-0.2-0.3,0.3-0.2,0.5-0.5c0.3,0.3,0.2,0.6,0.5,0.9C66.2,3.5,65.9,2.6,65.6,2.5
				z M67,4.2c0.8-0.3,0.4,0.8,1.1,1C67.6,5.6,67,4.5,67,4.2z M68.4,4.6c-0.2-0.2,0.1-0.3,0.2-0.5C68.7,4.2,68.5,4.4,68.4,4.6z
				 M69.9,3.7c0.1,0,0.6-0.4,0.5-0.2C70.4,3.8,69.2,4,69.9,3.7z"/>
		</g>
		<g>
			<path class="st0" d="M108.1,32.7c0.1,0.1,0.2,0.1,0.2,0.2c0,0,0.1,0,0.3-0.1c0.5-0.1,0.9-0.3,1.4-0.4c-1.2-0.7-2.4-2-3.3-3.7
				c-0.8-1.6-1.2-3.2-1.1-4.6c-0.2,0.1-0.4,0-0.7-0.2c-0.1,0-0.1,0.1-0.2,0c0.2,0.1,0,0.2-0.1,0.1c0.1-0.1,0.1-0.2,0.2-0.2
				c0,0-0.1-0.1-0.1-0.1c0-0.1,0.2-0.2,0.1-0.2c0.2,0,0.3,0,0.6,0c0-0.1,0-0.2-0.1-0.2c0-0.1,0.2,0,0.1-0.1c0.1,0.1,0.1,0.3,0.3,0.2
				c0,0.1,0,0.1,0,0.2c0.1-0.7,0.4-1.4,0.8-1.8c-0.3-0.4-0.5-0.7-0.8-1.1c-0.1,0-0.3,0-0.4-0.1c-0.1,0,0.1,0.1,0,0.2
				c-0.1,0-0.2,0-0.1-0.1c-0.3,0.3-0.5-0.1-0.8,0c0-0.1,0.1-0.1,0.1-0.2c-0.2,0.1-0.4,0-0.4,0.1c-0.1-0.1-0.2,0-0.4-0.1
				c0.2-0.1-0.1-0.3,0-0.5c0.1,0,0,0.1,0.1,0.1c0.1-0.1,0.3-0.1,0.5,0c0.1,0,0-0.2,0.2-0.2c0,0.1,0,0.2,0.1,0.2
				c-0.1,0-0.1,0.2-0.2,0.2c0,0.2,0.2,0,0.2,0.1c0.1,0,0-0.1,0.1-0.2c0.2,0.1,0.1,0.1,0.2,0.3c0.1-0.3-0.2-0.3,0-0.6
				c0,0-0.4,0.1-0.4-0.1c0.1,0,0.1,0.1,0.2,0.1c0-0.1-0.1-0.2-0.2-0.2c0-0.1,0-0.2,0-0.3c-1.1,0.3-2.4,0-3.8-0.7c-0.1,0-0.1,0-0.1,0
				c0,0,0-0.1,0-0.1c-0.2-0.1-0.4-0.2-0.7-0.4c0,0,0,0.1,0,0.2c0.1,0.1,0.3,0.1,0.2,0.3c-0.1,0-0.1,0-0.1,0c0,0.1-0.2,0-0.1,0.1
				c-0.2,0-0.3-0.1-0.3,0.1c-0.2,0-0.2-0.3-0.3-0.4c-0.1,0.1-0.2-0.1-0.4-0.1c0.2,0,0.2,0,0.4-0.1c-0.1-0.3-0.1-0.3-0.2-0.5
				c-0.3,0.1-0.6-0.1-0.6-0.3c0.1-0.1,0.2-0.1,0.2-0.1c-0.2-0.1-0.3-0.3-0.4-0.4c-0.1-0.1-0.2-0.2-0.2-0.3c0,0,0,0.1,0,0.1
				c-0.1,0.2-0.3-0.2-0.3,0c-0.1-0.2-0.1-0.3,0-0.5c-0.1-0.1-0.2-0.2-0.3-0.4c0,0,0,0,0,0c0,0-0.1-0.1-0.2-0.1c0-0.1,0-0.1,0-0.2
				c-0.2-0.2-0.3-0.4-0.5-0.7c-0.1,0.1,0,0.2,0,0.4c-0.1,0.1-0.1-0.1-0.2-0.1c-0.1-0.5-0.4-0.8-0.2-1.2c0,0,0,0,0,0
				c-0.1-0.1,0-0.1-0.1-0.1l0,0c0,0,0,0-0.1-0.1c0,0,0,0,0.1,0c-0.5-1.1-0.7-2.3-0.3-3.2c0,0-0.1,0-0.1,0c0.1,0.1-0.1,0.3-0.2,0.5
				c-0.1-0.1-0.1-0.1,0-0.2c-0.1,0-0.1,0-0.2,0c0-0.2,0.2-0.3,0.4-0.3c-0.1-0.1-0.2-0.2,0-0.4c-0.1,0-0.1-0.1-0.2-0.1
				c0-0.1,0.1,0,0.1,0c0,0,0,0,0.1,0c-0.3-0.2-0.6-0.4-0.9-0.7c-0.4-0.3-0.8-0.6-1.3-0.9c-0.4,0.4-1,0.6-1.6,0.8
				c0.1,0.3,0.3,0.7,0.6,0.9c0.1-0.1,0.1-0.1,0.2-0.1c0-0.2,0-0.7,0-0.9c0.1,0,0.1,0.1,0.1,0.1c0-0.1-0.1-0.1-0.1-0.3
				c0.1,0,0.2,0.2,0.2,0.1c0.1,0-0.1,0.1,0.1,0.1c-0.2,0.1,0,0.3,0.1,0.5c-0.1,0.1-0.2,0.2-0.2,0.3c0.1,0.1,0,0.2-0.1,0.2
				c0,0.1,0,0.1,0,0.2c-0.1,0,0-0.1,0-0.1c-0.1-0.1-0.1,0.1-0.2,0.1c0.1,0,0.1,0.1,0.1,0.1c0,0,0,0,0,0c0,0,0,0,0,0.1
				c-0.1,0-0.2,0-0.2-0.1c-0.4-0.1-0.8-0.6-1.2-0.7c0.1-0.1,0.1-0.2,0.1-0.4c-0.6,0.1-1.3,0.1-2-0.1c0,0.1-0.1,0-0.2,0
				c0.1,0.1,0,0.2,0.1,0.3c-0.1,0.1-0.2-0.1-0.3,0c0-0.1,0.1,0,0.1-0.1C89,9.5,89,9.4,89,9.3c-0.7-0.1-1.5-0.4-2.2-0.8c0,0,0,0,0,0
				c-0.9,0.8-1.3,1.7-1.7,2.4c0.2,0.1,0.5,0.3,0.7,0.4c0.2,0,0.2,0,0.3,0.2c1.4,0.8,2.8,1.6,4.2,2.6c0.1-0.3-0.1-0.5-0.4-0.4
				c-0.1-0.1,0-0.1-0.1-0.3c0.2-0.1,0.4,0.2,0.5-0.1c0.1,0.2,0.1,0.5,0.5,0.5c-0.1,0.2-0.2,0.4-0.2,0.6c0.1,0.1,0.1,0.1,0.2,0.1
				c0.5,0.4,0.9,0.7,1.4,1.1c0,0,0,0,0,0v0c0.4,0.3,0.7,0.6,1.1,0.9c0.4,0.2,0.9,0.8,1.3,0.7c0,0.2-0.1,0.3-0.3,0.3
				c0.3,0.2,0.5,0.5,0.8,0.7c0.1,0,0.2-0.1,0.3-0.1c-0.1,0.1-0.1,0.1-0.2,0.2c0,0,0.1,0.1,0.1,0.1c0.1,0,0.1,0,0.2,0
				c0.2,0-0.1,0.2,0.1,0.1c0,0.1,0,0.1-0.1,0.1c1.8,1.8,3.5,3.6,5,5.7c0.6,0.8,1.2,1.7,1.7,2.5c0-0.1,0.1-0.1,0-0.2h0.3
				c0,0-0.1,0-0.1,0c0,0.1,0.1,0.1,0.1,0.2c0.1,0.1,0.2,0,0.3,0.1c-0.2,0.1-0.3-0.1-0.5-0.1c1.2,2,2.3,4,3.2,6.1h0.8
				C106.8,32.5,107.5,32.3,108.1,32.7z M107.6,31.1c0.1,0,0.1,0.1,0.1,0.2c-0.1,0-0.1,0.1-0.3,0c0-0.1-0.1-0.1,0-0.2
				C107.4,31.1,107.6,31.2,107.6,31.1z M86.3,11.2c-0.1-0.5-0.3-1.1,0.2-1.6C87,10.2,86.6,10.7,86.3,11.2z M87.5,11
				c-0.1-0.1-0.2,0.1-0.4,0.1c0-0.1-0.1-0.1-0.1-0.1c0-0.2,0-0.3-0.2-0.3c0-0.2,0.2-0.1,0.3-0.1c-0.2,0.2,0.1,0.1,0,0.4
				c0.2-0.1,0.1-0.2,0.2-0.4c0.1,0.1,0.3,0,0.3,0.1C87.6,10.9,87.5,10.9,87.5,11z M88.8,10c-0.1-0.1-0.1-0.2-0.3-0.3
				c0,0.1-0.1,0.1-0.1,0.1c-0.2,0-0.1-0.4,0-0.4c0,0,0,0,0.1,0c0,0,0,0,0,0c0.2,0.1,0.3,0.2,0.6,0.2C88.9,9.8,88.9,9.9,88.8,10z
				 M89.9,11.4c0.1-0.1-0.2,0-0.2-0.2c-0.1,0,0,0.1-0.1,0.1c-0.1-0.1-0.1-0.2-0.3-0.1c0,0,0.1-0.1,0.1-0.1c0-0.1-0.2-0.2,0.1-0.2
				c0,0.1,0.1,0.1,0,0.2c0-0.1,0.2-0.1,0.3-0.1c0.1,0.1-0.1,0-0.1,0c0.2,0,0.2,0.4,0.4,0.3C90.2,11.4,89.9,11.4,89.9,11.4z
				 M90.1,10.4c-0.1-0.1-0.3,0.1-0.6,0.1c0,0,0.1,0,0.1-0.1c0-0.1-0.1-0.1-0.1-0.1c0.4,0.1,0.2-0.3,0.5-0.6c0.1,0,0.1,0,0.2,0.1
				c0,0.2-0.1,0.2,0.1,0.3C90.1,10.1,90,10.2,90.1,10.4z M90.9,13.2c-0.1-0.2,0.1-0.3,0.1-0.4C91.3,12.9,91.2,13.1,90.9,13.2z
				 M91.9,11.4c-0.1-0.1-0.1-0.1-0.1,0.1c-0.1,0,0-0.1,0-0.1c0-0.2-0.2-0.2-0.2-0.4c0.3,0.1,0.2,0,0.4,0.2
				C91.9,11.3,91.9,11.3,91.9,11.4z M95.1,11.1c0,0.1,0.1,0.2,0,0.3C94.8,11.3,94.9,11.1,95.1,11.1z M93.1,15.9
				c-0.3,0,0-0.2-0.3-0.2c0-0.2-0.1-0.1,0-0.3c0.1,0.1,0.2,0,0.3-0.1c0.1,0,0,0.1,0.1,0.1C93.2,15.6,93.1,15.7,93.1,15.9z
				 M93.2,14.7c0,0.1-0.2,0-0.3,0c0.1-0.1,0.4-0.1,0.3-0.3c0.1,0,0.2-0.1,0.3,0C93.4,14.6,93.2,14.7,93.2,14.7z M94.2,15.1
				c0-0.2,0.1-0.1,0.1-0.3c0.1,0,0.2,0.2,0.1,0.4C94.3,15.2,94.2,15.1,94.2,15.1z M95.1,15.1c0-0.1-0.1-0.3-0.1-0.5
				c0,0-0.1-0.1-0.1-0.1c-0.2,0.2-0.6,0.1-0.6-0.2c0.2,0,0.4,0.1,0.5,0.2c0.1,0,0.1-0.1,0.2-0.1c0-0.1-0.1-0.3-0.1-0.4
				c0,0,0,0-0.1,0c0-0.1,0-0.1,0.1-0.1c0-0.1,0-0.1-0.1-0.2c-0.1,0.1-0.2,0.1-0.2,0.3h-0.2c0.1-0.2,0-0.1-0.2-0.1
				c0.1-0.2,0.1-0.3,0.1-0.6c0,0.1,0.3,0.1,0.2,0c0-0.1,0.1,0,0.2,0c0,0.1-0.1,0.1-0.1,0.1c0.1,0.1,0.1-0.1,0.2-0.1
				c0-0.1-0.1-0.1-0.1-0.2c0,0-0.1,0-0.2,0c0,0,0.1-0.1,0.1-0.1c-0.1-0.2-0.2-0.4-0.4-0.6c-0.9-0.5-1.2-0.4-1.8-1.4
				c0.9,0.2,1.8,1.3,2.6,0.5c-0.4,0.7-0.1,1.3,0.1,2c0-0.1,0-0.1,0-0.2c0.1-0.1,0.2,0,0.3-0.1c0,0.1,0,0.1,0.1,0.1
				c-0.1,0.2-0.1,0.1,0,0.2c-0.1,0-0.1,0-0.1,0.1c0,0-0.1-0.1-0.1-0.1c0,0.1,0,0.2,0,0.2c0,0,0,0,0,0.1c0,0.1,0.1,0.1,0.2,0.2
				c-0.1,0-0.1,0.1-0.1,0.1C95.3,14.5,95.2,14.8,95.1,15.1z M95.6,17.9c0,0-0.1,0-0.2,0c0.1-0.2,0-0.3,0-0.6c0,0,0.2,0,0.1-0.1
				c0.3,0.1,0.1,0.5,0.4,0.5C95.8,17.7,95.6,17.7,95.6,17.9z M95.7,17.7c0.2-0.1,0.4,0.1,0.5-0.1c0.1,0,0.1,0.1,0.1,0.1
				c-0.2,0.1,0,0.2,0,0.3c0,0-0.1,0-0.1,0.1c-0.2-0.2-0.3,0-0.5-0.2C95.6,17.9,95.7,17.8,95.7,17.7z M96.3,18.2
				c-0.1,0.1-0.1,0.1-0.2,0.2c0,0.1,0.1,0,0.2,0c0,0-0.1,0.1,0,0.2c-0.2,0-0.4-0.1-0.6-0.2v-0.2c0.2,0,0.3,0,0.3,0.1
				C96.1,18.2,96.3,18,96.3,18.2C96.4,18.2,96.4,18.2,96.3,18.2z M96.5,17.2c-0.2-0.2,0.1-0.3,0.2-0.2
				C96.8,17.2,96.6,17.3,96.5,17.2z M97.1,17.7c-0.1-0.1-0.4-0.1-0.4,0c-0.1,0.1,0-0.3-0.1-0.3c0.1-0.1,0.2-0.1,0.5-0.1
				c0,0.1-0.2,0.3,0.1,0.2C97.2,17.6,97.1,17.7,97.1,17.7z M100.4,19.8c-0.1-0.1-0.2,0-0.3-0.1c-0.1,0-0.1,0.1-0.1,0.1
				c0,0.1,0.1,0.1,0.1,0.1c-0.2,0.1-0.2,0.1-0.1,0.4c-0.1,0-0.2-0.1-0.4-0.1c0.1-0.1,0.1-0.2-0.1-0.2c0.1-0.3,0.3-0.1,0.4-0.3
				c-0.1,0-0.1,0.1-0.3,0c0,0,0.1-0.1,0.1-0.1c0.2,0,0.1-0.1,0.2,0c0.1,0,0-0.2,0.1-0.2c-0.1-0.1-0.3,0-0.3-0.2c-0.2,0,0,0.2,0,0.2
				c0,0.1-0.1,0-0.2,0c0-0.3-0.1-0.3-0.1-0.5c0,0.1,0.3,0.1,0.1,0c0.2-0.1,0.1,0.3,0.3,0.4c0-0.1,0.2,0,0.2-0.1
				c0.1,0.2,0.1,0.1,0.3,0.2V19.8z M104.7,21.8c0.2,0,0.2,0,0.4,0c0.1,0.1-0.1,0.2,0.1,0.2c0,0.1-0.2,0.1-0.2,0.2
				c0,0.1,0.2,0.1,0.1,0.3c0,0.1-0.2,0-0.2,0.1c-0.1,0,0-0.2-0.1-0.2c0,0-0.1,0.1-0.1,0.1C104.5,22.3,104.8,22.1,104.7,21.8z
				 M104.7,25.9C104.7,25.8,104.7,25.8,104.7,25.9c0-0.2,0.1-0.2,0.2-0.1c0-0.1,0-0.1-0.1-0.1c-0.1-0.1,0.3,0.2,0.4,0.2
				c0,0.3-0.1,0.3-0.2,0.6c-0.1,0-0.2-0.1-0.3,0c-0.1-0.1-0.3-0.1-0.4-0.2C104.4,26,104.6,26,104.7,25.9z M104.1,23
				c-0.2,0-0.5-0.2-0.7,0c-0.2,0-0.3-0.1-0.3-0.3c0.1,0,0.1-0.1,0.1-0.1C103.7,22.5,103.8,22.8,104.1,23z M102.9,20.5
				c0.3,0,0.3,0,0.6,0c-0.1,0.2,0.2,0.3,0,0.5c-0.2-0.1-0.4-0.2-0.7-0.4C102.9,20.6,102.9,20.5,102.9,20.5z M101,19.3
				c0.2,0.4-0.2,0.2-0.3,0C100.5,18.9,100.9,19.1,101,19.3z M101.1,21.3c-0.2,0-0.2,0.1-0.3,0.1c-0.1-0.1-0.3-0.1-0.3-0.3
				c0.1,0,0.1,0,0.1,0c0.1-0.2-0.1-0.2-0.1-0.4c0.1,0,0.3,0,0.5-0.1c0.2-0.1,0,0.1,0.2,0.1C101.1,20.9,101.1,21.1,101.1,21.3z
				 M101.4,20.4c-0.1-0.2-0.2,0-0.2,0.2c0,0.1-0.2,0-0.2,0.1c0-0.1-0.1-0.2-0.1-0.4c0.1,0,0.4-0.1,0.5,0
				C101.5,20.3,101.4,20.3,101.4,20.4z M101.7,20.4c0.2,0,0.2,0.2,0.3,0.1c-0.1,0.3,0.4,0.2,0.3,0.4c0.4,0,0.5,0.3,0.9,0.4
				c0,0.1,0.1,0.3,0.3,0.3v0.2c-0.1-0.1-0.2,0-0.4,0c0.1-0.2-0.3-0.3-0.4-0.5c0,0.1-0.1,0-0.1,0.1c-0.1-0.1-0.2-0.2-0.2-0.4
				c0,0-0.1,0-0.1,0C102.2,20.6,101.8,20.8,101.7,20.4z M102.5,23.5c-0.2,0-0.3-0.2-0.2-0.4c0.1,0,0.1,0.2,0.3,0.2
				C102.6,23.4,102.4,23.3,102.5,23.5z M102.6,24.6c0-0.2,0.2-0.1,0.1-0.3c0.1,0,0.1,0,0.1-0.1c0.3,0.1,0,0.3,0.3,0.3
				c-0.2,0.1,0,0.2-0.1,0.3C102.8,24.7,102.7,24.6,102.6,24.6z M103.1,25.8c-0.2,0-0.3-0.2-0.1-0.3C103,25.5,103.1,25.6,103.1,25.8
				c0-0.1,0-0.1,0.1-0.2c0-0.1-0.1-0.2-0.1-0.3c0-0.1,0.4,0,0.4-0.1c0.3,0.1-0.2,0.4,0.1,0.4C103.5,25.8,103.1,25.5,103.1,25.8z
				 M104.5,26.9c0-0.1-0.2,0.1-0.2-0.1c-0.1,0,0,0.2-0.2,0.2c-0.1-0.1-0.2-0.3-0.4-0.2c0-0.1,0.2,0,0.1-0.2c-0.2,0-0.2-0.2-0.3-0.3
				c0,0,0.1,0,0.1-0.1c0.1,0,0.1,0.3,0.2,0.1c0.1,0,0.1,0.1,0.1,0.2c0.1,0,0.1-0.1,0.3,0c-0.1,0.2,0,0.1,0.1,0.2
				c0.1-0.1,0.2-0.1,0.4-0.1c0,0-0.1-0.1-0.1-0.1c0-0.1,0.2-0.1,0.2-0.1c0,0.1,0,0.1-0.1,0.1c0.3,0.2-0.1,0.5,0.1,0.7
				C104.7,27.3,104.3,27,104.5,26.9z M104.8,27.6c0.4-0.1,0.2,0.3,0.2,0.4c0,0.1-0.1,0-0.2,0C104.8,27.9,104.8,27.7,104.8,27.6z
				 M104.9,29.3c0-0.1,0.3-0.2,0.3,0H104.9z M105.6,27.4c-0.1-0.2,0-0.1-0.3-0.1c0-0.2,0.1-0.4,0.4-0.3c-0.1,0,0,0.2-0.1,0.2
				c0,0.1,0.1-0.1,0.2,0C105.7,27.2,105.6,27.2,105.6,27.4z"/>
		</g>
		<g>
			<path class="st0" d="M83.5,9.3c0,0.1,0,0.2,0.1,0.2c0,0.1-0.1-0.1-0.2-0.1C83.5,9.4,83.3,9.3,83.5,9.3z"/>
		</g>
		<g>
			<path class="st0" d="M81.9,7.6c0.2,0,0.1,0.3,0,0.3C81.7,7.9,81.8,7.6,81.9,7.6z"/>
		</g>
		<g>
			<path class="st0" d="M81.7,8.8c0.2,0,0.1,0.4,0,0.4C81.5,9.1,81.6,8.8,81.7,8.8z"/>
		</g>
		<g>
			<path class="st0" d="M80.5,7.9C80.4,6.7,81.6,7.8,80.5,7.9L80.5,7.9z"/>
		</g>
		<g>
			<path class="st0" d="M75.1,6.3c-0.2,0-0.1-0.3,0-0.3C75.2,6,75.2,6.3,75.1,6.3z"/>
		</g>
		<g>
			<path class="st0" d="M98.7,17.6c0.1,0,0.1,0,0.2,0c-0.1,0-0.1-0.1-0.2-0.2C98.7,17.5,98.7,17.5,98.7,17.6
				C98.7,17.6,98.7,17.6,98.7,17.6z"/>
		</g>
		<g>
			<path class="st0" d="M102.9,22c-0.2,0,0.1-0.2-0.1-0.2c0,0,0.1,0,0.1-0.1c0,0.1,0.3,0,0.3,0.1c-0.1,0-0.1,0-0.1,0
				c-0.1,0,0,0.1-0.1,0.1C103,21.8,102.9,21.9,102.9,22z"/>
		</g>
		<g>
			<path class="st0" d="M104.2,24.4c-0.1,0.1-0.2,0-0.3,0C104,24.3,104,24.3,104.2,24.4C104.2,24.4,104.2,24.4,104.2,24.4z"/>
		</g>
		<g>
			<path class="st0" d="M102.5,20c0.1,0,0,0.3,0.1,0.2c0,0.1-0.2,0-0.2,0c0-0.1,0-0.2-0.1-0.2C102.3,20,102.4,20,102.5,20z"/>
		</g>
		<g>
			<path class="st0" d="M93.8,13.4c-0.1-0.1-0.2-0.3,0-0.3c0,0-0.1,0-0.1,0.1c0,0,0.1,0,0.1,0.1C93.7,13.3,93.7,13.3,93.8,13.4
				c0.1-0.1,0.2-0.2,0.2,0C93.8,13.4,93.8,13.2,93.8,13.4z"/>
		</g>
		<g>
			<path class="st0" d="M94.2,14c0-0.1,0.1-0.1,0.1-0.1c0,0.1,0.3,0.3,0.1,0.3c0,0,0,0,0-0.1C94.4,14,94.3,14,94.2,14z"/>
		</g>
		<g>
			<path class="st0" d="M95.8,16.2c0.1,0,0.1,0.1,0.1,0.2C95.8,16.4,95.8,16.3,95.8,16.2z"/>
		</g>
		<g>
			<path class="st0" d="M94.4,9.6c0.2-0.1,0.1,0.1,0.2,0.1C94.6,9.8,94.3,9.8,94.4,9.6z"/>
		</g>
		<g>
			<path class="st0" d="M105.7,23.8c0,0.1-0.1,0.2,0,0.2C105.7,24,105.7,23.9,105.7,23.8z"/>
		</g>
		<g>
			<path class="st0" d="M95.5,10.8C95.5,10.8,95.5,10.8,95.5,10.8C95.5,10.8,95.5,10.8,95.5,10.8C95.5,10.8,95.5,10.8,95.5,10.8z"/>
		</g>
		<g>
			<path class="st0" d="M36.9,16C36.6,15.2,38.1,15.2,36.9,16L36.9,16z"/>
		</g>
		<g>
			<path class="st0" d="M35.2,14.2c0.2,0,0.1,0.4,0,0.4C35,14.6,35.1,14.2,35.2,14.2z"/>
		</g>
		<g>
			<path class="st0" d="M34.7,14.4c0.2,0,0.1,0.4,0,0.4C34.5,14.7,34.6,14.4,34.7,14.4z"/>
		</g>
		<g>
			<path class="st0" d="M32.9,18.6c0.2,0,0.1,0.4,0,0.4C32.7,18.9,32.8,18.6,32.9,18.6z"/>
		</g>
		<g>
			<path class="st0" d="M28.2,23.3c-0.2,0-0.1-0.4,0-0.4C28.3,23,28.3,23.3,28.2,23.3z"/>
		</g>
		<g>
			<path class="st0" d="M27.8,21.2c0.2,0,0.1,0.4,0,0.4C27.6,21.6,27.7,21.2,27.8,21.2z"/>
		</g>
		<g>
			<path class="st0" d="M22.5,31.7C23.5,31.8,21.5,31.8,22.5,31.7L22.5,31.7z"/>
		</g>
		<g>
			<path class="st0" d="M21.8,31.4c0.2,0,0.1,0.4,0,0.4C21.7,31.7,21.7,31.4,21.8,31.4z"/>
		</g>
	</g>
	<g>
		<path class="st1" d="M101.6,66.8c-0.1,0-0.2,0-0.2,0c-0.2,0.1-0.5,0.1-0.7,0.2c-0.1,0-0.4,0.2-0.4,0.1c-0.1,0-0.2,0.1-0.2,0.1
			C93.6,80,80.4,88.7,65.2,88.7c-15.3,0-28.6-8.9-34.9-21.7c-0.3-0.1-0.7-0.2-1-0.3h-0.5c-0.2,0.1-0.4,0.3-0.5,0.5
			C34.9,80.9,49,90.5,65.2,90.5c16.1,0,30-9.3,36.6-22.8C101.6,67.5,101.6,67.2,101.6,66.8z"/>
	</g>
	<g>
		<path class="st1" d="M100.3,32.6c0.1,0.1,0.3,0.2,0.4,0.3h1.1c0.1,0,0.1-0.1,0.2-0.2c-0.1-0.2-0.2-0.5-0.2-0.7
			C95.2,18.5,81.3,9.2,65.2,9.2c-16,0-29.8,9.2-36.5,22.6c0,0,0,0,0,0c0.1,0.4-0.2,0.2,0.3,0.3c0.3,0.1,0.7,0.1,1-0.1
			c0.6-0.5,1.1-1.2,1.6-1.8c0,0,0,0,0,0c6.8-11.5,19.3-19.3,33.6-19.3c15.1,0,28.3,8.7,34.7,21.3C100.1,32.5,100.2,32.6,100.3,32.6z
			"/>
	</g>
	<g>
		<path class="st2" d="M109.6,47.1L109.6,47.1C109.5,47.1,109.5,47.1,109.6,47.1C109.5,47.1,109.5,47.1,109.6,47.1z"/>
	</g>
	<g>
		<path class="st3" d="M109.4,50.2c-0.1,0,0-0.2-0.2-0.2c0.1-0.2,0,0,0.2,0C109.5,50.1,109.4,50.1,109.4,50.2z"/>
	</g>
	<g>
		<g>
			<path class="st0" d="M17.5,49l-0.3,0c0,0,0,0,0,0.1c-0.1,0-0.1,0-0.1-0.1l-0.6,0c0,0.1,0,0.1,0.1,0.1c0,0.1-0.1,0.1-0.1,0.2
				c0,0,0-0.1-0.1-0.1c-0.1,0-0.1,0.1,0,0.1c0,0-0.1,0-0.1,0.1c0-0.1-0.1-0.3-0.2-0.4l-0.3,0c0,0,0,0,0,0c-0.1,0-0.1,0-0.1,0v0.2
				c-0.1,0-0.1,0-0.1,0c-0.1,0.1-0.1,0.2-0.1,0.3c-0.2,0-0.3-0.2-0.4-0.5c0,0,0,0,0.1,0l-0.8,0l-0.2-0.5c0,0,0,0,0,0.1c0,0,0,0,0,0
				c0,0-0.1,0-0.1,0c0.1,0.1,0.1,0.3-0.1,0.4c0.1,0.1,0.1,0,0.1,0c-0.1,0.1,0.1,0.2,0,0.3c0,0,0,0,0.1,0c0,0.1,0,0.1,0,0.2
				c-0.1,0-0.1,0-0.1,0.2c-0.1-0.1-0.2-0.3-0.3-0.4c-0.1,0-0.1,0.1-0.1,0.1c0.1,0,0-0.1,0-0.2c-0.1,0-0.2,0-0.3,0.1
				c0,0,0.1,0,0.1,0.1c-0.1,0-0.1-0.2-0.3-0.2c0.1-0.1,0-0.3,0.2-0.3c0-0.1-0.1-0.1-0.2-0.2c0-0.1,0.1,0,0.1-0.2c0.1,0,0.1,0,0.1,0
				c0,0,0-0.1,0-0.1c0,0-0.1-0.1-0.1-0.1c0.1,0,0.1,0,0.2-0.1c0,0.1,0.1,0.2,0,0.3c0.1,0.1,0.1,0.1,0.1,0.1c0.1,0,0.1,0,0.1-0.1
				c0.2,0.1,0.2-0.2,0.4-0.2l0,0c-0.1,0-0.3,0-0.3-0.2c0.1,0,0.2,0,0.2,0l-0.3-0.9c0,0,0,0-0.1,0c0,0,0,0,0,0l-0.5-1.4L13.1,46
				c0,0,0,0,0,0c0.1,0.2-0.1,0.2,0,0.2c-0.1,0-0.1,0-0.1,0l-0.1,0.4c0.1,0,0.2,0.1,0.2,0.2c0,0,0,0,0,0c0,0,0,0,0,0
				c0,0-0.1,0-0.1,0.1c-0.1,0-0.1-0.1-0.2-0.1l-0.6,1.7c0,0,0,0,0,0c0,0,0,0,0,0L12,48.9l-0.6,0c0.2,0.1,0.1,0.5,0.4,0.5
				c-0.1,0.1-0.1,0.2,0.1,0.2c-0.1,0-0.1,0.1-0.2,0.1c0,0,0.1,0,0.1,0c-0.1-0.1-0.4-0.2-0.5-0.1c-0.2-0.1,0-0.3-0.2-0.3
				c0,0,0.2-0.1,0.1,0c0.1,0,0-0.1,0.1-0.2c0.1,0,0.1-0.1,0.2-0.1L8.7,49l2.6,2l-0.9,3c0,0,0,0,0,0.1c0,0,0,0,0,0l0,0.1l2.4-1.6
				c-0.1,0-0.2-0.1-0.2-0.2c0.1,0,0.2,0,0.4,0.1l0.2-0.2l0.2,0.1c0.1,0,0.2,0.1,0.4,0.2c0,0,0,0,0,0.1l0.2,0.1c0.1,0,0.1,0,0.1,0.1
				l0.4,0.3c0,0,0-0.1,0.1,0c0,0,0.1,0,0.1-0.1c0,0-0.1,0-0.1,0c0-0.1-0.1-0.1,0-0.2c0.1,0,0.3,0,0.4,0.1c0,0.1-0.1,0.1-0.1,0.2
				c0.1,0,0.1,0.3,0.2,0.3c0-0.2,0.2-0.2,0.3,0c0,0.1,0,0.1-0.1,0.2l0.2,0.1c0,0,0,0,0.1,0c0,0,0,0,0,0.1l0.2,0.1c0,0,0,0-0.1,0
				c0.1,0,0.1-0.1,0.1-0.2c0,0,0,0,0,0l-0.3-1c0,0,0,0-0.1,0c0,0,0.1,0,0.1,0l-0.1-0.2c0,0,0,0,0,0l0,0l-0.1-0.5c0,0,0,0,0,0
				c-0.1,0-0.1-0.1-0.1-0.2c0,0,0.1,0,0.1,0l-0.2-0.8c0,0,0,0-0.1,0c0-0.1-0.1-0.2,0-0.2c0,0,0,0,0,0c0,0,0,0,0.1,0l0-0.1
				c0,0,0,0,0,0c0,0,0,0-0.1,0c0-0.1,0-0.1,0-0.2c-0.1,0-0.1,0.1-0.2,0.1c-0.1-0.1-0.1-0.2,0-0.3c-0.1-0.2-0.3-0.1-0.4-0.3
				c0,0-0.1,0-0.1,0s0,0.2-0.1,0.2c0,0,0.1,0,0.1,0c0,0.1-0.1,0-0.1,0.1c0.1,0,0,0.1,0.1,0.3c0.1-0.1,0.1,0,0.1-0.1
				c0.1,0.1,0.1,0.2,0.2,0.2c-0.2,0-0.1,0.2-0.2,0.3c-0.2-0.1-0.3,0.1-0.5,0.2c-0.1-0.1-0.1,0-0.1-0.1c-0.1,0,0,0.1-0.1,0.1
				c-0.1,0-0.1,0-0.2,0c0-0.1,0-0.1,0-0.2h0.1c-0.1,0-0.2-0.2-0.1-0.3c0-0.1-0.1,0-0.1-0.1c0-0.1,0.1-0.1,0-0.2
				c-0.1,0-0.1-0.1-0.2-0.1c0-0.1-0.1-0.1,0-0.2c-0.2,0-0.1-0.2-0.3-0.3c0,0,0.1,0,0.1,0c0-0.1-0.1-0.1-0.1-0.1c0,0-0.1,0-0.1,0.1
				c-0.1,0-0.1,0-0.2,0c0-0.2,0.1-0.2,0.1-0.3c0.1,0,0.1,0.1,0.1,0c0,0.1,0,0.1,0.1,0.1c-0.1,0.1-0.1,0,0,0.1c0.1,0,0.1,0,0.1-0.1
				c0,0.1,0.1,0.1,0.1,0.2c0.1-0.1,0.2,0,0.3-0.1c0-0.1-0.1,0,0-0.1c0.1,0,0.1,0.1,0,0.2c0.1,0.1,0.2-0.2,0.3-0.2
				c0.1,0.1,0.2,0,0.3,0.1c0.2-0.2-0.1-0.5,0.2-0.5c0.1,0.1,0,0.1,0,0.2c-0.1,0-0.1,0-0.1,0.1c0.1,0.1,0.1,0,0.2-0.1
				c0,0,0.1,0.1,0.1,0.1c-0.1,0.1,0.1,0.1,0,0.2c0.1,0,0.3,0,0.4-0.2c0-0.1-0.1,0-0.1-0.2c0.1,0.1,0.2,0,0.4,0c0-0.2-0.1,0-0.1-0.1
				c0.1,0,0.2,0,0.1-0.1c0.1,0.1,0.2-0.1,0.2,0c-0.1-0.2,0.2-0.3,0.2-0.4c0,0,0,0.2,0,0.2c0.1,0,0.1,0,0.1-0.1c0.1,0,0,0.2-0.1,0.2
				c0.1,0.2,0.3,0.5,0.5,0.3c0,0,0,0,0,0.1l0.2-0.2c0,0-0.1,0-0.1,0c0-0.1,0-0.1-0.1-0.1c0-0.1,0.1-0.1,0.1-0.1
				c0,0.1,0.1,0.1,0.1,0.1c0,0,0,0,0,0l0.8-0.6c0,0,0,0,0,0C17.4,49.1,17.4,49.1,17.5,49z"/>
		</g>
	</g>
	<g>
		<g>
			<path class="st0" d="M120.9,49l-0.3,0c0,0,0,0,0,0.1c-0.1,0-0.1,0-0.1-0.1l-0.6,0c0,0.1,0,0.1,0.1,0.1c0,0.1-0.1,0.1-0.1,0.2
				c0,0,0-0.1-0.1-0.1c-0.1,0-0.1,0.1,0,0.1c0,0-0.1,0-0.1,0.1c-0.1-0.1-0.1-0.3-0.2-0.4l-0.3,0c0,0,0,0,0,0c-0.1,0-0.1,0-0.2,0v0.2
				c-0.1,0-0.1,0-0.1,0c-0.1,0.1-0.1,0.2-0.2,0.3c-0.2,0-0.3-0.2-0.3-0.5c0,0,0,0,0.1,0l-0.8,0l-0.2-0.5c0,0,0,0,0,0.1c0,0,0,0,0,0
				c0,0-0.1,0-0.1,0c0.1,0.1,0.1,0.3-0.1,0.4c0.1,0.1,0.1,0,0.2,0c-0.1,0.1,0.1,0.2,0,0.3c0,0,0,0,0.1,0c0,0.1,0,0.1,0,0.2
				c-0.1,0-0.1,0-0.1,0.2c-0.1-0.1-0.2-0.3-0.3-0.4c-0.1,0-0.1,0.1-0.2,0.1c0.1,0,0-0.1,0-0.2c-0.1,0-0.2,0-0.3,0.1
				c0,0,0.1,0,0.1,0.1c-0.1,0-0.1-0.2-0.3-0.2c0.1-0.1,0-0.3,0.2-0.3c0-0.1-0.1-0.1-0.2-0.2c0-0.1,0.1,0,0.1-0.2c0.1,0,0.1,0,0.2,0
				c0,0,0-0.1,0-0.1c0,0-0.1-0.1-0.1-0.1c0.1,0,0.1,0,0.2-0.1c0,0.1,0.1,0.2,0,0.3c0.1,0.1,0.1,0.1,0.2,0.1c0.1,0,0.1,0,0.1-0.1
				c0.2,0.1,0.2-0.2,0.4-0.2l0,0c-0.1,0-0.3,0-0.3-0.2c0.1,0,0.2,0,0.2,0l-0.3-0.9c0,0,0,0-0.1,0c0,0,0,0,0,0l-0.5-1.4l-0.1,0.2
				c0,0,0,0,0,0c0.1,0.2-0.1,0.2,0,0.2c-0.1,0-0.1,0-0.1,0l-0.1,0.4c0.1,0,0.2,0.1,0.2,0.2c0,0,0,0,0,0c0,0,0,0,0,0
				c0,0-0.1,0-0.1,0.1c-0.1,0-0.1-0.1-0.2-0.1l-0.6,1.7c0,0,0,0,0,0c0,0,0,0,0,0l-0.1,0.4l-0.6,0c0.2,0.1,0.1,0.5,0.4,0.5
				c-0.1,0.1-0.1,0.2,0.1,0.2c-0.1,0-0.1,0.1-0.2,0.1c0,0,0.1,0,0.1,0c-0.1-0.1-0.4-0.2-0.5-0.1c-0.2-0.1,0-0.3-0.2-0.3
				c0,0,0.2-0.1,0.2,0c0.1,0,0-0.1,0.1-0.2c0.1,0,0.1-0.1,0.2-0.1l-2.7,0.1l2.6,2l-0.9,3c0,0,0,0,0,0.1c0,0,0,0,0,0l0,0.1l2.4-1.6
				c-0.1,0-0.2-0.1-0.2-0.2c0.1,0,0.2,0,0.4,0.1l0.2-0.2l0.2,0.1c0.1,0,0.2,0.1,0.4,0.2c0,0,0,0,0,0.1l0.2,0.1c0.1,0,0.1,0,0.1,0.1
				l0.4,0.3c0,0,0.1-0.1,0.1,0c0,0,0.1,0,0.1-0.1c0,0-0.1,0-0.1,0c0-0.1-0.1-0.1,0-0.2c0.2,0,0.3,0,0.4,0.1c0,0.1-0.1,0.1-0.1,0.2
				c0.1,0,0.1,0.3,0.2,0.3c0-0.2,0.2-0.2,0.3,0c0,0.1,0,0.1-0.1,0.2l0.2,0.1c0,0,0,0,0.1,0c0,0,0,0,0,0.1l0.2,0.1c0,0,0,0-0.1,0
				c0.1,0,0.1-0.1,0.2-0.2c0,0,0,0,0,0l-0.3-1c0,0,0,0-0.1,0c0,0,0.1,0,0.1,0l-0.1-0.2c0,0,0,0,0,0l0,0l-0.1-0.5c0,0,0,0,0,0
				c-0.1,0-0.1-0.1-0.1-0.2c0,0,0.1,0,0.1,0l-0.2-0.8c0,0,0,0-0.1,0c0-0.1-0.1-0.2,0-0.2c0,0,0,0,0,0c0,0,0,0,0.1,0l0-0.1
				c0,0,0,0,0,0c0,0,0,0-0.1,0c0-0.1,0-0.1,0-0.2c-0.1,0-0.1,0.1-0.2,0.1c-0.1-0.1-0.1-0.2,0-0.3c-0.1-0.2-0.3-0.1-0.3-0.3
				c0,0-0.1,0-0.1,0s0,0.2-0.1,0.2c0,0,0.1,0,0.1,0c0,0.1-0.1,0-0.1,0.1c0.1,0,0,0.1,0.2,0.3c0.1-0.1,0.1,0,0.1-0.1
				c0.1,0.1,0.1,0.2,0.2,0.2c-0.2,0-0.1,0.2-0.2,0.3c-0.2-0.1-0.3,0.1-0.5,0.2c-0.1-0.1-0.1,0-0.1-0.1c-0.1,0,0,0.1-0.1,0.1
				c-0.1,0-0.1,0-0.2,0c0-0.1,0-0.1,0-0.2h0.1c-0.2,0-0.2-0.2-0.1-0.3c0-0.1-0.1,0-0.2-0.1c0-0.1,0.1-0.1,0-0.2
				c-0.1,0-0.1-0.1-0.2-0.1c0-0.1-0.1-0.1,0-0.2c-0.2,0-0.2-0.2-0.3-0.3c0,0,0.1,0,0.1,0c0-0.1-0.1-0.1-0.2-0.1c0,0,0,0-0.1,0.1
				c-0.1,0-0.1,0-0.2,0c0-0.2,0.1-0.2,0.2-0.3c0.1,0,0.1,0.1,0.1,0c0.1,0.1,0,0.1,0.1,0.1c-0.1,0.1-0.1,0,0,0.1c0.1,0,0.1,0,0.1-0.1
				c0,0.1,0.1,0.1,0.2,0.2c0.1-0.1,0.2,0,0.3-0.1c0-0.1-0.1,0,0-0.1c0.1,0,0.1,0.1,0,0.2c0.1,0.1,0.2-0.2,0.3-0.2
				c0.1,0.1,0.2,0,0.3,0.1c0.2-0.2-0.1-0.5,0.2-0.5c0.1,0.1,0,0.1,0,0.2c-0.1,0-0.1,0-0.2,0.1c0.1,0.1,0.2,0,0.2-0.1
				c0,0,0.1,0.1,0.1,0.1c-0.1,0.1,0.1,0.1,0,0.2c0.2,0,0.3,0,0.3-0.2c0-0.1-0.1,0-0.1-0.2c0.1,0.1,0.2,0,0.4,0c0-0.2-0.1,0-0.1-0.1
				c0.1,0,0.2,0,0.2-0.1c0.1,0.1,0.2-0.1,0.2,0c-0.1-0.2,0.2-0.3,0.2-0.4c0,0,0,0.2,0,0.2c0.1,0,0.1,0,0.1-0.1c0.1,0,0,0.2-0.1,0.2
				c0.1,0.2,0.3,0.5,0.5,0.3c0,0,0,0,0,0.1l0.2-0.2c0,0-0.1,0-0.1,0c0-0.1,0-0.1-0.1-0.1c0-0.1,0.1-0.1,0.2-0.1
				c0,0.1,0.1,0.1,0.1,0.1c0,0,0,0,0,0l0.8-0.6c0,0,0,0,0,0C120.9,49.1,120.9,49.1,120.9,49z"/>
		</g>
	</g>
	<g>
		<path class="st1" d="M53,32.8C53.1,32.9,53.1,32.9,53,32.8l23.8,0.1v0H77v0h2.4c0,0,0,0,0,0c-0.1-0.1-0.2-0.1-0.3-0.2
			c0,0-0.1-0.1-0.1-0.1c-0.1-0.2-0.3-0.3-0.3-0.6c-0.1-0.2-0.4-0.2-0.3-0.5c0-0.1,0-0.1,0.1-0.1c0,0-0.1,0-0.1,0c0,0,0,0,0,0
			c-0.2,0-0.3-0.1-0.4-0.2c0-0.1,0-0.1,0-0.2c-0.2-0.1-0.3-0.2-0.5-0.3c0,0-0.1,0-0.1,0c-0.2,0-0.3-0.1-0.4-0.2c0-0.1,0-0.1,0-0.1
			c-3.4-2-7.3-3.1-11.5-3.1c-4.1,0-7.9,1.1-11.2,3c0.1,0.3,0,0.8-0.3,0.9c-0.3-0.2-0.1-0.4,0-0.7c-1.2,0.7-2.3,1.5-3.3,2.4L53,32.8
			C53,32.9,53,32.9,53,32.8z M64.6,32.3c-0.1-0.1,0.1-0.2,0.1-0.1C64.8,32.2,64.6,32.3,64.6,32.3z M76.8,31.2c0.1,0,0.2,0.1,0.3,0.3
			c0.2,0,0.2-0.2,0.3-0.2c0.2,0,0.1,0.3,0.1,0.5H77c-0.2,0-0.3-0.2-0.5-0.3C76.5,31.2,76.7,31.2,76.8,31.2z M75.3,30.9
			C75.3,30.9,75.2,31,75.3,30.9C75.2,30.9,75.3,30.9,75.3,30.9z M72.5,31.4c0.1,0.2-0.2,0.5-0.3,0.4C72.2,31.6,72.3,31.3,72.5,31.4z
			 M70.1,30.3h0.3v0.3h-0.3V30.3z M68.4,32.4c0.1-0.1,0.3-0.1,0.4,0c0,0.2-0.1,0.3-0.3,0.3c0-0.1-0.1,0-0.1-0.1L68.4,32.4L68.4,32.4
			z M68.2,29c0.3-0.4-0.2,0.5-0.1,0.4C67.6,29.6,68.2,29,68.2,29z M66.4,29.1c0.1,0.2,0.1,0.4-0.1,0.6c-0.2,0-0.4-0.2-0.3-0.5
			C66.1,29.1,66.3,29.1,66.4,29.1z M66.4,29.9c-0.2,1.4,1.9,0.6,1.7,2c-0.7,0.1-0.8-0.4-1.3-0.6c-0.3,0.1-0.2,0.6-0.4,0.9
			c-0.8,0-1-0.6-1.3-1.2c0.1-0.4,0.3-0.7,0.4-1.2C65.8,30,66.1,29.9,66.4,29.9z M65.5,29.2c0,0-0.1,0-0.1,0c-0.1-0.1-0.4,0-0.4-0.2
			C65.1,29,65.4,29,65.5,29.2z M64.5,30.5c0.1,0,0.3-0.1,0.3,0c0,0.3-0.1,0.6,0,0.9c-0.1,0.2-0.3,0.1-0.5,0c0-0.2,0.1-0.3,0.2-0.4
			C64.5,30.9,64.4,30.7,64.5,30.5z M64.5,32.1c0,0.2,0.1,0.5,0,0.7c-0.1,0-0.2,0.1-0.2,0C64.3,32.5,64.2,32.1,64.5,32.1z M54.5,30.8
			c0.1,0.1-0.1,0.2-0.2,0.1C54.3,30.9,54.4,30.8,54.5,30.8z M53.3,32.6c0,0.2-0.1,0.1-0.1,0C53.2,32.4,53.3,32.5,53.3,32.6z
			 M75.1,68.8h-0.4c-0.1,0-0.3,0-0.3,0.1C74.6,68.9,75.2,69.2,75.1,68.8z M54.7,66.7h-4.4c1,0.9,2.1,1.7,3.3,2.4
			c0.2-0.1,0.3-0.2,0.4-0.4c0-0.1-0.1-0.1-0.1-0.1c0-0.3-0.5-0.2-0.6-0.5c0-0.3,0.1-0.5,0.1-0.7C54,67.2,54.3,66.9,54.7,66.7z
			 M54,67c0,0.2-0.3,0.2-0.3,0C53.8,66.8,53.9,67,54,67z M78.8,67.9c0.5-0.4,1-0.8,1.5-1.2h-5.3c-0.1,0.4,0.2,0.8-0.5,0.8
			c0,0.4,0.7,0.2,0.3,0.6c0.4,0,0.5,0.2,0.3,0.4c0.3-0.2,0.3-0.3,0.7-0.1c0,0.6-0.8,0.3-0.4,0.9c-0.6-0.1-0.9,0.1-1,0.4
			c-0.2-0.6,0-1.1,0.4-1.6c-0.5,0.1-0.2-0.5-0.4-0.6c-0.8-0.3-1.1,0.3-1.6-0.2c0.2-0.2,1-0.5,0.1-0.6c0.3-0.4,0.7,0.3,0.9,0.4
			c0.2-0.4,0.3-0.1,0.9-0.2c0.2-0.1,0.2-0.3,0.2-0.4H55.5c0.1,0.2,0.4,0.2,0.6,0.3c0.1,0.3-0.1,0.3-0.1,0.5c0,0.3,0.2,0.3,0.2,0.5
			c-0.4,0.2-0.7,0.5-0.7,1.2c-0.2,0-0.3,0-0.3,0.1c0,0.5,0.7,0.4,0.7,1c0,0,0,0,0,0.1c1,0.4,2,0.8,3,1.1c0.2,0,0.4,0,0.7,0.1
			c0.3-0.1,0.6-0.2,0.8-0.4c0.5,0.1,0.6-0.2,1-0.1c0,0.3-0.3,0.2-0.5,0.3c-0.3,0-0.3,0.2-0.6,0.1c-0.1,0.1-0.3,0.1-0.4,0.2
			c1,0.2,2,0.4,3,0.6c0,0,0-0.1,0-0.1c0.6,0,0.9-0.3,1.4-0.4c0.3,0,0.5,0.2,0.9,0.2c0,0.2,0.1,0.2,0.1,0.4c0,0,0,0,0,0
			c3.4,0,6.6-0.8,9.5-2.1c0-0.2,0.4-0.4,0-0.4c0.1-0.4,0.2,0.2,0.4,0.3c0,0,0.1,0,0.1-0.1c0.1-0.4,0.6-0.4,0.5-0.9h0.4
			c-0.2-0.4,0.3-0.7,0-0.7c0.5-0.6,0.1,0.7,0.3,0.6c-0.2,0.4-0.5,0.6-0.9,0.7c0,0.1,0,0.1,0,0.2C76.8,69.3,77.8,68.7,78.8,67.9
			C78.5,68.1,78,68,78,67.8c0.1,0,0.1-0.1,0.2-0.1C78.3,67.8,78.8,67.7,78.8,67.9z M57.4,68.5c-0.3-0.1-0.2-0.5,0.2-0.5
			C57.8,68.2,57.7,68.5,57.4,68.5z M57.6,67.3c-0.2,0.1-0.3,0.2-0.6,0.1c0-0.1-0.2-0.1-0.2-0.3c0-0.2,0.1-0.2,0.1-0.3
			c0.5,0.1,1-0.1,1.2,0.2C58.1,67.3,57.8,67.3,57.6,67.3z M62.6,69.6c-0.2-0.1-0.4-0.4-0.2-0.6h0.2C62.7,69.1,62.6,69.4,62.6,69.6z
			 M63,70.1c-0.1-0.1,0.1-0.2,0.2-0.1C63.2,70.1,63,70.2,63,70.1z M63.4,69.4c0-0.2,0.1-0.1,0.1,0C63.5,69.6,63.4,69.5,63.4,69.4z
			 M70.5,68c0.5,0.1,0.4-0.2,0.6-0.4c0.3-0.1,0.2,0.7-0.2,0.4c0.1,0.3,0,0.6-0.1,0.7c-0.1-0.1-0.2-0.2-0.4-0.1
			C70.3,68.3,70.5,68.2,70.5,68z M69.9,67.7c-0.1,0.4-0.4-0.2-0.6-0.1C69.5,67.1,69.8,67.6,69.9,67.7z M67.6,70.3
			c0.1-0.2,0.2-0.3,0.4-0.3C68,70.2,67.9,70.3,67.6,70.3z M68.1,68.1c-0.3-0.3-0.2-0.5-0.1-0.9C68.3,67.3,68.2,67.9,68.1,68.1z
			 M68.5,69.7C69,69.4,68.1,70.2,68.5,69.7L68.5,69.7z M68.9,68.6c-0.1-0.1,0.1-0.2,0.1-0.1C69.1,68.5,69,68.6,68.9,68.6z
			 M69.5,70.3c-0.1-0.1,0.1-0.2,0.2-0.1C69.7,70.2,69.5,70.3,69.5,70.3z M69.3,69.4c0-0.2,0.3-0.2,0.3,0
			C69.6,69.6,69.5,69.4,69.3,69.4z M69.1,67.7c0.2,0.2,0.7,0.3,0.9,0.6C69.9,68.4,68.9,68.3,69.1,67.7z M69.9,71
			C70.4,70.7,69.6,71.5,69.9,71L69.9,71z M70.8,71.2c-0.4,0-0.6-0.1-0.6-0.4C70.6,70.7,70.9,70.7,70.8,71.2z M70.9,69.7
			c-0.1-0.1,0.1-0.2,0.2-0.1C71.2,69.6,71,69.8,70.9,69.7z M71.4,70c0-0.3,0.2-0.3,0.1-0.6c0.3,0.1,0.3,0.5,0.4,0.7
			C71.8,70.6,71.8,69.7,71.4,70z M72.1,69.7c-0.3-0.1-0.1-0.7,0.3-0.6C72.3,69.3,72.2,69.5,72.1,69.7z M72.7,68.6
			c-0.3,0-0.5-0.1-0.4-0.4c-0.2,0-0.1,0.4-0.2,0.6c-0.2-0.5-0.8-0.1-1-0.3c0-0.2,0.3-0.1,0.4-0.1c0.2-0.3,0.4-0.6,0.7-0.7
			c-0.2-0.2-0.2-0.5,0-0.7c0.3,0.4,0.7,0.8,0.7,1.6C72.8,68.4,72.7,68.4,72.7,68.6z M73.5,69.8H73c0-0.4,0.3-0.5,0.6-0.7
			c0-0.6,0-0.9-0.1-1c0.1-0.2,0.2,0,0.3,0.1c0.3,0-0.2-0.4,0.1-0.6c0.1,0.1,0.3,0.2,0.3,0C74.2,68.2,73.7,69.2,73.5,69.8z"/>
	</g>
	<g>
		<path class="st2" d="M115.5,64h0.2C115.7,63.9,115.6,64,115.5,64z M116.4,61.9h-0.3c0,0-0.1,0.1-0.2,0.1c0,0.1,0.2,0.1,0.3,0.1
			c-0.5,0.2-0.3,0.9-0.7,1.2c-0.1,0.5,0.3,0.5,0.7,0.4c0-0.2-0.6-0.6,0-0.6c-0.2-0.2-0.2-0.8,0.3-0.7
			C116.5,62.2,116.4,62,116.4,61.9z M123.4,61.4c0,0.2-0.1,0.3-0.1,0.4c0.3-0.1,1,0.2,0.9-0.3C123.6,61.7,123.7,61.7,123.4,61.4z
			 M19.6,35.7L19.6,35.7C19.6,35.8,19.6,35.8,19.6,35.7C19.6,35.8,19.6,35.8,19.6,35.7z M3.5,43.3L3.5,43.3
			C3.5,43.3,3.5,43.3,3.5,43.3C3.5,43.3,3.5,43.3,3.5,43.3z M8.6,35.7c-0.6,0.2-1.2,0.6-1.7,1L6,38.4c0.1,0,0.1,0,0.2,0
			c0,0.1-0.1,0.1-0.2,0.1l-1.7,3.4c0,0,0.1,0,0.1,0.1c0.4-0.1,1.2,0.3,1.2-0.3C5.3,41.3,5,42,4.7,41.9c-0.1-0.4-0.1-0.4,0-0.9
			C5,41.1,5,41.2,4.9,41.4c0.2-0.1,0.8,0.2,0.7-0.1c0.4,0.3,0.8,0.1,1.2,0.2l1.8-3.6H17c-0.1-0.2,0-0.5-0.3-0.5c0.3-0.5-0.3-1,0.6-1
			c0-0.4-0.7-0.2-0.3-0.6c-0.1,0-0.2,0-0.3-0.1C16.7,35.7,8.6,35.7,8.6,35.7z M6.2,39.4c0-0.2,0.2-0.1,0.2,0
			C6.3,39.6,6.2,39.5,6.2,39.4z M6.3,41.3c-0.1-0.1,0.1-0.2,0.1-0.1C6.5,41.2,6.3,41.3,6.3,41.3z M6,39.1c0-0.4,0.3-0.4,0.6-0.4
			C6.5,38.9,6.5,39.2,6,39.1z M7.5,37.4c0,0.1-0.2,0.1-0.3,0.1C7.2,37.4,7.3,37.4,7.5,37.4z M7.5,38.2c0,0.2-0.1,0.1-0.1,0
			C7.3,38.1,7.5,38.2,7.5,38.2z M7.3,39.2c-0.1-0.1,0.1-0.2,0.1-0.2C7.5,39.2,7.3,39.3,7.3,39.2z M8.2,38.1c0-0.1,0.2-0.1,0.3-0.2
			C8.5,38.1,8.3,38.1,8.2,38.1z M123.9,61.4c0.2,0,0.2,0.2,0.3,0.3c0,0.1-0.1,0.2-0.1,0.3l0.3-0.5C124.2,61.4,124,61.2,123.9,61.4z
			 M123.5,62.3c0.1,0,0.3,0,0.3-0.2C123.7,62.2,123.5,62.2,123.5,62.3z M125.9,58.6l4.4-8.7l-0.5-0.9c0,0-0.1,0.1-0.1,0.1
			c-0.2,0-0.1-0.2,0-0.3l-5.7-11.2c-0.5-0.6-1-1.2-1.4-1.8c-0.1,0-0.2,0-0.3-0.1h-83c-2.2,0.2-4.4,0.1-6.6,0H22.6
			c0.2,0.1,0.3,0.3,0.2,0.5C22.5,36,22.2,36,22,35.7h-0.6c0,0,0,0.1,0,0.2c-0.5-0.1-0.5,0.2-0.6,0.4c-0.3,0.1-0.2-0.7,0.1-0.4
			c0-0.1,0-0.1,0-0.2h-0.6c-0.2,0.3-0.4,0.5-0.7,0.6c0.2,0.2,0.2,0.5,0,0.7c-0.3-0.4-0.6-0.7-0.7-1.3h-0.5c0,0,0,0,0,0.1
			c0,0.2-0.2,0.1-0.2-0.1H18c0,0.1,0.2,0.3,0,0.5c-0.1-0.1-0.3-0.2-0.3,0c0-0.1,0-0.3,0-0.5H17c0,0,0,0,0,0.1
			c0.5-0.1,0.2,0.5,0.4,0.6c0.8,0.3,1.1-0.3,1.6,0.2c-0.2,0.2-1,0.5-0.1,0.6c-0.3,0.4-0.7-0.3-0.9-0.4c-0.2,0.4-0.3,0.1-0.9,0.1
			c-0.4,0.3,0,0.7,0.1,1h1c0-0.1,0-0.1-0.2-0.2c0.3-0.3,0.4-0.1,0.6,0.2h3.5c0-0.2,0-0.3,0.3-0.2c0,0-0.1,0.1-0.1,0.2H24
			c0.1,0,0.2,0,0.3,0h34.8c0.1-0.1,0.2-0.2,0.2-0.3c0.2,0,0.2,0.2,0.1,0.3h1.7c0,0,0.1,0,0.1,0c0,0,0,0,0,0H85
			c1.5-0.3,3.1-0.2,4.7-0.2c0.3,0,0.5,0.1,0.7,0.2h31.5l6.1,12l-4.1,8.1c0,0.1,0,0.1-0.1,0.2l-0.2,0.4c0.1,0,0.2,0,0.3,0
			c0,0.2-0.2,0.1-0.4,0.1l-0.6,1.2c0.2,0,0.2,0,0.3,0.4c-0.2-0.1-0.3-0.1-0.4,0l-0.1,0.1c0,0.1-0.1,0.3-0.1,0.5h-0.2l-0.1,0.2
			c0.1,0,0.2,0,0.3,0c0,0.3-0.2,0.4-0.4,0.4l-0.2,0.4c0.2,0,0.3,0,0.4-0.2h0.6c0.2-0.3,0.4-0.6,0.9-0.7c0-0.2,0-0.5,0-0.7
			c0.2,0.1,0.3,0.3,0.3,0.6c0.4-0.1,0.7-0.2,0.9-0.4c0.1,0.1,0.1,0.1,0.1,0.1l0.8-1.5c-0.1,0-0.1,0-0.2,0
			C125.6,58.7,125.7,58.7,125.9,58.6z M21.9,36.2c0.1-0.4,0.4,0.2,0.6,0.1C22.3,36.8,22,36.3,21.9,36.2z M23.8,37.7
			c-0.1-0.1,0.1-0.2,0.1-0.1C24,37.6,23.8,37.7,23.8,37.7z M23.9,36.7c-0.4,0-0.3-0.7-0.1-0.9C24.1,36.1,24,36.3,23.9,36.7z
			 M37.8,36.9c0-0.2,0.3-0.2,0.3,0C38,37.2,37.9,36.9,37.8,36.9z M93.2,36c-0.1-0.1,0.1-0.2,0.2-0.1C93.4,35.9,93.2,36,93.2,36z
			 M99.1,37.7c-0.1-0.1,0.1-0.2,0.2-0.2C99.3,37.6,99.2,37.7,99.1,37.7z M100.3,37.1c-0.1-0.1,0.1-0.2,0.1-0.1
			C100.5,37,100.3,37.2,100.3,37.1z M105.8,36.8c0-0.1,0.2-0.1,0.3-0.1C106,36.8,105.9,36.8,105.8,36.8z M115,37.7
			c0-0.2,0.3-0.2,0.3,0C115.2,37.8,115,37.9,115,37.7z M115.9,37.1c-0.1-0.1,0.1-0.2,0.2-0.1C116.1,37,115.9,37.2,115.9,37.1z
			 M126.1,42.9c-0.1-0.1,0.1-0.2,0.2-0.1C126.3,42.8,126.2,42.9,126.1,42.9z M127.8,52.9c0.5-0.1,0.5,0.2,0.7,0.3
			C128.4,53.6,127.7,53.6,127.8,52.9z M127.1,56c-0.1,0.1-0.3,0.2-0.3,0C126.9,55.8,127.1,55.8,127.1,56z M126.6,54.8
			c0.1,0.1-0.1,0.2-0.1,0.1C126.3,54.9,126.5,54.8,126.6,54.8z M126,57.1c0.1-0.2,0.5,0,0.4-0.4c0.4,0.4-0.1,1.2-0.6,1.2
			C125.9,57.7,126,57.5,126,57.1z M124.5,58.6c0,0.2-0.3,0.1-0.4,0.1C124.1,58.5,124.4,58.6,124.5,58.6z M124.4,60.3
			c-0.1-0.1,0.1-0.2,0.2-0.1C124.6,60.2,124.4,60.3,124.4,60.3z M124.4,58.4c-0.1-0.1,0.1-0.2,0.2-0.1
			C124.6,58.3,124.4,58.5,124.4,58.4z M125.1,58.8c-0.1-0.1,0.1-0.2,0.1-0.2C125.3,58.8,125.2,58.9,125.1,58.8z M115.3,61.9H115
			c-0.1,0.1-0.1,0.2-0.2,0.3c-0.1,0-0.1-0.1-0.1-0.1c0-0.1,0-0.1-0.1-0.1h-0.6c0,0.2,0,0.3,0,0.4c-0.1-0.1-0.2-0.2-0.2-0.4h-0.7
			c-0.1,0.1-0.3,0.2-0.1,0h-0.9c-0.1,0.2-0.1,0.4-0.4,0.3c0-0.1,0-0.2,0.1-0.3h-0.8c0.1,0.2,0.4,0.1,0.6,0.1
			c-0.1,0.1-0.2,0.2-0.1,0.4c-0.3-0.1-0.3-0.4-0.7-0.3c0-0.1,0-0.2,0.1-0.3h-0.3c0,0.2,0,0.3-0.1,0.6c-0.3-0.1-0.3-0.2-0.1-0.4
			c-0.2,0.1-0.8-0.2-0.7,0.1c-0.5-0.4-1.1,0-1.5-0.3h-1.2c-0.2,0.1-0.3,0.1-0.5,0.1c-1.2,0-2.3,0-3.5-0.1h-4.3
			c-0.6,0.1-1.3,0.2-2,0.3c-0.4,0.1-0.8,0-1.1-0.3h-1.9c0,0.1-0.1,0.2-0.1,0.3c-0.2-0.1-0.4-0.2-0.7-0.3h-0.8c0,0-0.1,0-0.1,0H34.5
			c-0.1,0-0.2,0.1-0.3,0.1c-2.6,0.5-5.2,0.2-7.7-0.1h-7.3c-0.4,0.1-0.8,0.2-1.2,0.3c-0.6,0.2-1,0-1.3-0.3h-8l-6.1-12l3.9-7.6
			c-0.2,0.2-0.3,0.3-0.6,0.5c-0.4,0-0.4-0.3-0.6,0.1c-0.2,0-0.1-0.3-0.3-0.3c0,0.3-0.3,1.1-0.9,1.3C4.1,44,4.2,44,4.3,44
			c0.3,0.3-0.3,0-0.4-0.2c-0.3,0-0.5,0.1-0.7,0.2L3,44.4c0,0.2,0.2,0.3,0.1,0.6c-0.2,0.3-0.7,0.3-0.6,1c-0.2,0-0.4,0-0.4,0.2
			c0,0,0,0,0,0l-0.4,0.8c0,0,0.1,0,0.1,0.1C2,46.9,2,46.4,2.5,46.6c-0.2,0.5-0.6,0.6-1,0.6l-1.3,2.7L7.3,64h31.6
			c0.1-0.1,0.2-0.2,0.3-0.1c0,0.1,0,0.1,0,0.1h2.3c0,0,0.1,0,0.1,0c1.9-0.3,3.8,0.2,5.7,0c1.7-0.2,3.3-0.4,5,0c0,0,0.1,0,0.1,0h20
			c0.2-0.2,0.5-0.3,0.9-0.2c2.4,0.3,4.8-0.2,7.3,0c0.3,0,0.5,0.1,0.7,0.2h10.8c0-0.1,0-0.2,0-0.3c0.2,0,0.3,0.1,0.3,0.3h0.3
			c0-0.1,0.2-0.1,0.3-0.1C93,64,93,64,92.9,64h0.5c0,0,0-0.1,0-0.1c0.1,0,0.1,0.1,0.1,0.1h0.8c0-0.1,0-0.2,0-0.3
			c0.3,0.1,0.6,0.2,0.9,0.3h13.4c0-0.1,0.1-0.1,0.1,0h6.5C115,63.5,115.4,62.6,115.3,61.9z M4.3,44.9h0.4v0.3H4.3V44.9z M3.8,44.4
			c0,0.1-0.2,0.1-0.3,0.2C3.6,44.4,3.7,44.5,3.8,44.4z M3.6,46.3c0.1,0.1-0.1,0.2-0.1,0.2C3.3,46.4,3.5,46.3,3.6,46.3z M3.7,46.7
			c0,0.4,0,0.6-0.4,0.6C3.5,47.2,3.2,46.6,3.7,46.7z M1.4,48.5c-0.2-0.1,0.2-0.7,0.1-1c0.4,0.1,0.4,0.1,0.9,0.3
			C2.2,48.1,1.5,48,1.4,48.5z M7.5,62c-0.1-0.1,0.1-0.2,0.1-0.1C7.7,61.9,7.5,62,7.5,62z M8.2,62.6c0-0.2,0.1-0.1,0.1,0
			C8.3,62.7,8.2,62.7,8.2,62.6z M9.5,63.4c0-0.1,0.2-0.1,0.3-0.1C9.8,63.4,9.6,63.4,9.5,63.4z M10.1,63.1c-0.3,0.1-0.3-0.2-0.3-0.4
			c0.1,0,0.1,0.2,0.3,0.2V63.1z M48.6,62.7c-0.1-0.1,0.1-0.2,0.1-0.1C48.8,62.6,48.6,62.8,48.6,62.7z M88.7,63.3
			c-0.1-0.2,0.1-0.3,0.2-0.3C89.2,62.5,88.8,63.4,88.7,63.3z M90.3,63.7c0-0.1,0.2-0.1,0.3-0.2C90.6,63.7,90.4,63.7,90.3,63.7z
			 M91,62.6c-0.2,0-0.2-0.1-0.4-0.1c-0.1,0.2,0.1,0.3,0.3,0.3c-0.1,0.4-0.4-0.2-0.6-0.1c0-0.3,0.4-0.3,0.4-0.6
			c0.4-0.1,0.4,0.2,0.9,0.1C91.7,62.5,90.8,62,91,62.6z M92,63c0-0.1,0.2-0.1,0.3-0.1C92.3,63,92.2,63,92,63z M92.5,63
			c-0.1-0.1,0.1-0.2,0.2-0.1C92.7,63,92.5,63.1,92.5,63z M92.9,62.3c0,0-0.4,0-0.3-0.2C92.8,62,93.3,62.5,92.9,62.3z M93.6,62.7
			c0-0.1,0.2-0.1,0.3-0.1C93.9,62.7,93.7,62.7,93.6,62.7z M94.3,63.3c-0.4-0.2,0.2-0.5,0-0.9C94.7,62.5,94.5,63.2,94.3,63.3z
			 M95.8,63.5c0.1-0.2,0.1,0,0.3,0C96.1,63.6,95.8,63.6,95.8,63.5z M96.2,63.9c0-0.2,0.1-0.1,0.1,0C96.3,64.1,96.2,64,96.2,63.9z
			 M107.1,62.5c-0.2-0.3-0.8,0.3-0.7-0.4h0.9C107.1,62.1,107.1,62.2,107.1,62.5z M108.5,62.3c-0.1-0.1,0.1-0.2,0.1-0.2
			C108.7,62.2,108.5,62.3,108.5,62.3z M112.1,62.2c-0.1-0.1,0.1-0.2,0.1-0.1C112.3,62.1,112.2,62.2,112.1,62.2z M112.6,62.2
			c-0.6-0.3,0.4,0.1,0.3,0.2C112.7,62.4,112.6,62.2,112.6,62.2z M6.2,42.1c0-0.3-0.1-0.5-0.3-0.6C5.9,41.8,5.7,42.3,6.2,42.1z
			 M4.7,42.7c0-0.1-0.1-0.2-0.1,0C4.6,42.8,4.7,42.9,4.7,42.7z M5.7,42.3c0-0.2-0.1-0.4-0.1-0.1C5.6,42.3,5.7,42.5,5.7,42.3z
			 M123.1,62.9c0-0.2,0-0.3-0.2-0.3c0.1-0.2,0.3-0.3,0.4-0.4c-0.2-0.2-0.6-0.2-0.7-0.4c-0.4,0.1-0.7,0.2-0.9,0.4
			c-0.1-0.2-0.1-0.2-0.1-0.3h-4.6c0,0.2-0.2,0.4-0.2,1c-0.5-0.4,0,0.6-0.6,0.6c0,0.1,0.1,0.3,0.1,0.5h2.4c-0.2-0.2-0.2-0.5,0.2-0.5
			c-0.1-0.3-0.4-0.3-0.2-0.6c0.1-0.1,0.3-0.2,0.6-0.2c0.5,0.1-0.3,0.2-0.4,0.2v0.3c0,0.2,0.4,0.2,0.4,0c0.2,0.1-0.1,0.7-0.4,0.8h2.3
			c-0.1-0.2-0.1-0.4-0.2-0.5h0.4c0.1,0.3-0.1,0.4-0.1,0.5h1c0-0.2,0.1-0.3,0-0.5c0.9,0.3,0.5-0.2,0.6-0.4c0.4-0.1,0.3,0.2,0.3,0.5
			l0.4-0.8C123.6,62.6,123.3,63,123.1,62.9z M119,62.2c0-0.1,0.2-0.1,0.3-0.1C119.3,62.2,119.2,62.1,119,62.2z M119.8,63
			c0-0.2,0.3-0.2,0.3,0C119.9,63.1,119.8,63.2,119.8,63z M120.5,62.2c0.2,0,0.1,0.3,0,0.3c0.1,0.2,0.3,0.2,0.3,0.4
			C120.3,62.9,120.3,62.4,120.5,62.2z M120.9,63.6C120.5,63.2,121.4,64,120.9,63.6L120.9,63.6z M120.9,63c-0.1-0.1,0.1-0.2,0.1-0.1
			C121.1,63,121,63.1,120.9,63z M122.4,63.2c-0.3-0.3-0.4,0.1-0.9,0c-0.1-0.3,0.4-0.2,0.4-0.4c0-0.2,0-0.3-0.1-0.3
			c0-0.2,0.3-0.1,0.4-0.1C122.1,62.7,122.5,62.7,122.4,63.2z"/>
	</g>
</g>
<g>
	<g>
		<path class="st2" d="M38.4,28.9l-0.7,0.9l-0.8-0.6l2.1-2.5l0.8,0.6l-0.7,0.8l4.3,3.6l-0.7,0.8L38.4,28.9z"/>
	</g>
	<g>
		<path class="st2" d="M43.6,27.5l1.8,2.1l-0.8,0.7l-4.4-4.9l0.8-0.7l1.9,2.1l1-0.8L42,23.8l0.8-0.7l4.4,4.9l-0.8,0.7l-1.8-2.1
			L43.6,27.5z"/>
	</g>
	<g>
		<path class="st2" d="M47.9,27.5L44.3,22l2.5-1.6l0.5,0.8l-1.6,1l1,1.5l1.2-0.8l0.5,0.8l-1.2,0.8l1,1.5l1.6-1l0.5,0.8L47.9,27.5z"
			/>
	</g>
	<g>
		<path class="st2" d="M52.6,24.7l-2.4-6.1l1.5-0.6c0.4-0.1,0.8-0.2,1.2-0.1c0.3,0.1,0.6,0.2,0.9,0.5c0.1,0.2,0.2,0.4,0.3,0.6
			c0.2,0.4,0.2,0.8,0,1.1c-0.1,0.1-0.1,0.3-0.2,0.4c0.2,0,0.5,0.1,0.7,0.2c0.2,0.1,0.3,0.3,0.5,0.5c0.1,0.1,0.1,0.3,0.2,0.4
			c0.2,0.4,0.2,0.8,0.2,1.1c0,0.3-0.1,0.5-0.3,0.7c-0.2,0.2-0.4,0.4-0.7,0.5L52.6,24.7z M52.2,20.7l0.4-0.2c0.3-0.1,0.5-0.3,0.4-0.7
			c0-0.1,0-0.3-0.1-0.4c-0.1-0.3-0.2-0.4-0.4-0.5c-0.2-0.1-0.3-0.1-0.5,0l-0.4,0.2L52.2,20.7z M53.3,23.4l0.4-0.2
			c0.3-0.1,0.5-0.4,0.5-0.8c0-0.1,0-0.3-0.1-0.4c-0.1-0.3-0.3-0.6-0.5-0.7c-0.2-0.1-0.4-0.1-0.6,0l-0.4,0.2L53.3,23.4z"/>
	</g>
	<g>
		<path class="st2" d="M56.8,23.2l-1.5-6.4l2.9-0.6l0.2,1l-1.9,0.4l0.4,1.8l1.4-0.3l0.2,1l-1.4,0.3l0.4,1.8l1.9-0.4l0.2,1L56.8,23.2
			z"/>
	</g>
	<g>
		<path class="st2" d="M63.8,20.5c0,0.5,0,0.9-0.3,1.2c-0.2,0.2-0.4,0.4-0.7,0.5c-0.2,0.1-0.3,0.1-0.6,0.1c-0.4,0-0.8,0-1-0.2
			c-0.2-0.1-0.4-0.3-0.6-0.6s-0.2-0.6-0.3-0.9l1-0.1c0.1,0.4,0.2,0.6,0.4,0.8c0.1,0.1,0.3,0.2,0.5,0.1c0.2,0,0.4-0.1,0.5-0.4
			c0.1-0.1,0.1-0.3,0.1-0.4c0-0.3-0.2-0.5-0.5-0.8c-0.2-0.2-0.5-0.4-1-0.8c-0.4-0.3-0.6-0.6-0.8-0.8c-0.2-0.3-0.3-0.6-0.3-0.9
			c0-0.6,0.1-1.1,0.5-1.4c0.2-0.2,0.6-0.3,1-0.4c0.4,0,0.7,0,1,0.2c0.2,0.1,0.4,0.3,0.5,0.5c0.1,0.2,0.2,0.5,0.3,0.7l-1,0.2
			c0-0.3-0.2-0.5-0.3-0.6c-0.1-0.1-0.2-0.1-0.4-0.1c-0.2,0-0.3,0.1-0.4,0.3c-0.1,0.1-0.1,0.3-0.1,0.5c0,0.3,0.2,0.6,0.5,0.9
			c0.1,0.1,0.3,0.2,0.5,0.4c0.3,0.2,0.4,0.3,0.5,0.4c0.3,0.2,0.5,0.5,0.7,0.7c0.1,0.1,0.1,0.2,0.2,0.3
			C63.7,20.1,63.7,20.3,63.8,20.5z"/>
	</g>
	<g>
		<path class="st2" d="M66.1,16.6l-1.1-0.1l0.1-1l3.3,0.2l-0.1,1l-1.1-0.1l-0.3,5.6l-1.1-0.1L66.1,16.6z"/>
	</g>
	<g>
		<path class="st2" d="M73.7,16.9c0.5,0.1,0.8,0.4,1.1,0.8c0.2,0.4,0.2,0.8,0.1,1.2l-0.3,0.9c-0.1,0.4-0.4,0.7-0.8,1
			c-0.4,0.2-0.8,0.3-1.2,0.1L72,20.7L71.3,23l-1-0.3l1.8-6.4L73.7,16.9z M73.8,18.5c0.1-0.2,0-0.3-0.1-0.4c-0.1-0.1-0.2-0.2-0.4-0.3
			l-0.6-0.2l-0.6,2l0.6,0.2c0.2,0,0.3,0,0.4,0s0.2-0.2,0.3-0.3L73.8,18.5z"/>
	</g>
	<g>
		<path class="st2" d="M76.9,25.1l-2.6-1.1l2.6-6.1l1,0.4l-2.2,5.1l1.7,0.7L76.9,25.1z"/>
	</g>
	<g>
		<path class="st2" d="M79.5,24.8l-1,1.1l-0.9-0.6l4.5-5l1.2,0.8l-2.5,6.2l-0.9-0.6l0.6-1.4L79.5,24.8z M81.8,22l-1.7,2l0.7,0.4
			L81.8,22z"/>
	</g>
	<g>
		<path class="st2" d="M82.6,28.9c-0.3-0.3-0.6-0.7-0.6-1.1c-0.1-0.4,0.1-0.8,0.4-1.2l2.3-2.7c0.3-0.3,0.7-0.5,1.1-0.5
			c0.4,0,0.8,0.1,1.2,0.4c0.3,0.3,0.6,0.7,0.6,1.1c0,0.4-0.1,0.8-0.4,1.2l-0.5,0.6l-0.8-0.7l0.5-0.6c0.1-0.1,0.2-0.3,0.1-0.4
			c0-0.2-0.1-0.3-0.2-0.4c-0.1-0.1-0.3-0.2-0.4-0.1s-0.3,0.1-0.4,0.2l-2.3,2.8c-0.1,0.1-0.2,0.3-0.1,0.4c0,0.2,0.1,0.3,0.2,0.4
			c0.1,0.1,0.3,0.2,0.4,0.1s0.3-0.1,0.4-0.2l0.6-0.7l0.8,0.7l-0.6,0.7c-0.3,0.3-0.7,0.5-1.1,0.5C83.3,29.4,82.9,29.2,82.6,28.9z"/>
	</g>
	<g>
		<path class="st2" d="M84.5,30.6l5-4.4l2,2.2l-0.8,0.7l-1.3-1.5L88,28.8l0.9,1.1l-0.8,0.7l-0.9-1.1l-1.3,1.2l1.3,1.5l-0.8,0.7
			L84.5,30.6z"/>
	</g>
</g>
<g>
	<g>
		<path class="st2" d="M44.7,69.7c0.3,0.3,0.5,0.7,0.5,1.2s-0.1,0.8-0.4,1.2l-2.6,2.7c-0.3,0.3-0.7,0.5-1.2,0.5s-0.9-0.2-1.2-0.5
			s-0.5-0.7-0.5-1.2s0.1-0.8,0.4-1.2l2.6-2.7c0.3-0.3,0.7-0.5,1.2-0.5C44,69.2,44.4,69.3,44.7,69.7z M44,71.2
			c0.1-0.1,0.2-0.3,0.2-0.4c0-0.2-0.1-0.3-0.2-0.4c-0.1-0.1-0.3-0.2-0.4-0.2c-0.2,0-0.3,0.1-0.4,0.2L40.6,73
			c-0.1,0.1-0.2,0.3-0.2,0.4c0,0.2,0.1,0.3,0.2,0.4c0.1,0.1,0.3,0.2,0.4,0.2c0.2,0,0.3-0.1,0.4-0.2L44,71.2z"/>
	</g>
	<g>
		<path class="st2" d="M47.4,72L46,76.6l2.6-3.8l0.9,0.6L45.6,79l-1-0.7l1.2-4.4l-2.5,3.6l-0.9-0.6l3.9-5.6L47.4,72z"/>
	</g>
	<g>
		<path class="st2" d="M54.6,75.8l1,0.4L52,82.1l-0.9-0.4l0.9-3.7l-2,3.2l-1-0.4l1.5-6.7l1,0.4l-0.9,3.6l1.9-3.1l1,0.4L52.7,79
			L54.6,75.8z"/>
	</g>
	<g>
		<path class="st2" d="M54.7,83l1.6-6.6l3,0.7l-0.2,1l-1.9-0.5l-0.4,1.8l1.4,0.3l-0.2,1l-1.4-0.3L56,82.2l1.9,0.5l-0.2,1L54.7,83z"
			/>
	</g>
	<g>
		<path class="st2" d="M62.8,82.6c0,0.5-0.2,0.9-0.5,1.2c-0.2,0.2-0.5,0.3-0.8,0.4c-0.2,0-0.4,0-0.6,0c-0.4,0-0.8-0.2-1-0.4
			c-0.2-0.2-0.4-0.4-0.5-0.7s-0.2-0.6-0.1-1l1,0c0,0.4,0.1,0.7,0.2,0.9c0.1,0.2,0.2,0.2,0.4,0.2c0.2,0,0.4-0.1,0.6-0.3
			c0.1-0.1,0.1-0.2,0.2-0.4c0-0.3-0.1-0.6-0.3-0.9c-0.2-0.2-0.5-0.5-0.9-0.9c-0.3-0.4-0.5-0.7-0.7-0.9c-0.1-0.3-0.2-0.6-0.1-1
			c0.1-0.6,0.3-1.1,0.8-1.3c0.3-0.2,0.6-0.2,1-0.2c0.4,0,0.7,0.2,1,0.3c0.2,0.2,0.3,0.3,0.5,0.6c0.1,0.2,0.2,0.5,0.2,0.8l-1,0.1
			c0-0.3-0.1-0.5-0.2-0.7c-0.1-0.1-0.2-0.2-0.4-0.2c-0.2,0-0.3,0.1-0.5,0.2c-0.1,0.1-0.2,0.3-0.2,0.5c0,0.3,0.1,0.6,0.3,1
			c0.1,0.1,0.2,0.3,0.4,0.5c0.2,0.2,0.4,0.4,0.5,0.5c0.2,0.3,0.4,0.6,0.5,0.8c0.1,0.1,0.1,0.2,0.1,0.3
			C62.8,82.2,62.8,82.4,62.8,82.6z"/>
	</g>
	<g>
		<path class="st2" d="M65.1,78.6l-1.1,0.1l0-1l3.3-0.1l0,1l-1.1,0.1l0.2,5.7l-1.1,0L65.1,78.6z"/>
	</g>
	<g>
		<path class="st2" d="M71.7,83.6c-0.5,0.1-0.9,0-1.3-0.2s-0.6-0.6-0.7-1l-0.8-3.6c-0.1-0.4,0-0.8,0.3-1.2c0.3-0.4,0.6-0.6,1.1-0.7
			c0.5-0.1,0.9,0,1.3,0.2s0.6,0.6,0.7,1l0.2,0.8l-1.1,0.2l-0.2-0.8c0-0.2-0.1-0.3-0.3-0.4c-0.1-0.1-0.3-0.1-0.5-0.1
			c-0.2,0-0.3,0.1-0.4,0.3s-0.1,0.3-0.1,0.4l0.8,3.6c0,0.2,0.1,0.3,0.3,0.4c0.1,0.1,0.3,0.1,0.5,0.1s0.3-0.1,0.4-0.3
			c0.1-0.1,0.1-0.3,0.1-0.4L71.7,81l1.1-0.2l0.2,0.9c0.1,0.4,0,0.8-0.3,1.2C72.5,83.3,72.1,83.6,71.7,83.6z"/>
	</g>
	<g>
		<path class="st2" d="M74.2,75.8c0.4-0.2,0.9-0.1,1.3,0.1c0.4,0.2,0.7,0.5,0.8,0.9l1.2,3.5c0.2,0.4,0.1,0.8-0.1,1.2s-0.5,0.7-1,0.8
			c-0.4,0.2-0.9,0.1-1.3-0.1c-0.4-0.2-0.7-0.5-0.8-0.9l-1.2-3.5C73,77.4,73,77,73.2,76.6C73.4,76.2,73.8,75.9,74.2,75.8z M75.3,77.1
			c-0.1-0.2-0.2-0.3-0.3-0.3c-0.2-0.1-0.3-0.1-0.5,0s-0.3,0.2-0.4,0.3c-0.1,0.2-0.1,0.3,0,0.4l1.2,3.5c0.1,0.2,0.2,0.3,0.3,0.3
			c0.2,0.1,0.3,0.1,0.5,0c0.2-0.1,0.3-0.2,0.3-0.3c0.1-0.2,0.1-0.3,0-0.4L75.3,77.1z"/>
	</g>
	<g>
		<path class="st2" d="M79.9,79.1l0.5,1.5l-1,0.5l-2-6.6l1.3-0.7l4.2,5.5l-1,0.5l-0.9-1.3L79.9,79.1z M78.8,75.6l0.9,2.6l0.7-0.4
			L78.8,75.6z"/>
	</g>
	<g>
		<path class="st2" d="M85.9,75.2c0.3,0.4,0.4,0.8,0.4,1.2c0,0.3-0.1,0.6-0.3,0.8c-0.1,0.1-0.3,0.3-0.4,0.4c-0.3,0.2-0.7,0.4-1,0.4
			c-0.3,0-0.6-0.1-0.8-0.2c-0.3-0.2-0.5-0.4-0.8-0.7l0.8-0.6c0.3,0.3,0.5,0.5,0.8,0.5c0.2,0,0.3,0,0.5-0.1c0.2-0.1,0.3-0.3,0.3-0.6
			c0-0.1-0.1-0.3-0.2-0.4c-0.2-0.2-0.4-0.4-0.8-0.4c-0.3,0-0.7-0.1-1.3-0.2c-0.5-0.1-0.9-0.2-1.1-0.3c-0.3-0.2-0.6-0.4-0.7-0.6
			c-0.4-0.5-0.4-1-0.3-1.5c0.1-0.3,0.3-0.6,0.7-0.8c0.3-0.2,0.6-0.3,0.9-0.4c0.2,0,0.5,0,0.7,0.1c0.2,0.1,0.4,0.3,0.6,0.5l-0.7,0.7
			c-0.2-0.2-0.4-0.3-0.6-0.4c-0.1,0-0.3,0-0.4,0.1c-0.2,0.1-0.2,0.3-0.2,0.5c0,0.2,0.1,0.3,0.2,0.5c0.2,0.2,0.5,0.4,0.9,0.5
			c0.2,0,0.4,0.1,0.6,0.1c0.3,0,0.5,0,0.6,0.1c0.4,0.1,0.7,0.1,0.9,0.3c0.1,0.1,0.2,0.1,0.3,0.2C85.7,74.9,85.8,75.1,85.9,75.2z"/>
	</g>
	<g>
		<path class="st2" d="M84.9,70.7l-0.8,0.8l-0.7-0.7l2.4-2.3l0.7,0.7L85.7,70l4,4.2l-0.8,0.7L84.9,70.7z"/>
	</g>
</g>
<g>
	<g>
		<path class="st2" d="M27.6,47.7c0,0.1-0.1,0.2-0.2,0.2c-0.1,0-0.2-0.1-0.2-0.2C26.9,46.2,26,44,24.6,44c-1.3,0-1.5,1.7-1.5,5.5
			c0,5.4,0.6,6.2,1.9,6.2c1.6,0,2.2-3.3,2.2-3.5c0-0.1,0.1-0.1,0.2-0.1s0.2,0,0.2,0.2c0,2.7-0.6,4.3-3.2,4.3c-3.4,0-3.7-4.1-3.7-7.1
			c0-2.2,0.1-6.4,3.7-6.4c0.5,0,1,0.2,1.4,0.4c0.2,0.1,0.3,0.1,0.5,0.1c0.1,0,0.3-0.1,0.5-0.2c0.2-0.1,0.4-0.3,0.5-0.3
			c0.2,0,0.2,0.1,0.2,0.3C27.6,43.4,27.6,47.7,27.6,47.7z"/>
	</g>
	<g>
		<path class="st2" d="M36.5,49.5c0,3.4-0.4,7.1-3.8,7.1c-3.4,0-3.8-3.7-3.8-7.1c0-2.6,0.4-6.4,3.8-6.4
			C36.1,43.1,36.5,46.9,36.5,49.5z M31.2,49.5c0,4.7,0.6,6.2,1.5,6.2c0.9,0,1.5-1.5,1.5-6.2c0-4-0.6-5.5-1.5-5.5
			C31.8,44,31.2,45.5,31.2,49.5z"/>
	</g>
	<g>
		<path class="st2" d="M40.9,49.3h0.6c0.1,0,0.3,0,0.3-0.1l1-1.2c0.1-0.1,0.1-0.1,0.2-0.1s0.1,0,0.1,0.1v3.8c0,0.1,0,0.1-0.1,0.1
			c-0.1,0-0.1,0-0.2-0.1l-1-1.3c-0.1-0.1-0.2-0.1-0.3-0.1h-0.6v5c0,0.2,0,0.4,0.3,0.5l1.1,0.5c0.1,0,0.2,0.1,0.2,0.2
			s-0.1,0.1-0.2,0.1h-4.7c-0.1,0-0.2,0-0.2-0.1c0,0,0.1-0.1,0.2-0.2l0.9-0.5c0.2-0.1,0.3-0.3,0.3-0.5V44.4c0-0.2-0.1-0.4-0.3-0.5
			l-0.9-0.5c-0.1,0-0.2-0.1-0.2-0.2s0.1-0.1,0.2-0.1H45c0.1,0,0.2,0.1,0.2,0.2v4.5c0,0-0.1,0.1-0.1,0.1c-0.1,0-0.2,0-0.2-0.1
			l-1.5-3.4c-0.1-0.2-0.4-0.3-0.8-0.3h-1.6L40.9,49.3L40.9,49.3z"/>
	</g>
	<g>
		<path class="st2" d="M49.5,49.3h0.6c0.1,0,0.3,0,0.3-0.1l1-1.2c0.1-0.1,0.1-0.1,0.2-0.1s0.1,0,0.1,0.1v3.8c0,0.1,0,0.1-0.1,0.1
			c-0.1,0-0.1,0-0.2-0.1l-1-1.3c-0.1-0.1-0.2-0.1-0.3-0.1h-0.6v5c0,0.2,0,0.4,0.3,0.5l1.1,0.5c0.1,0,0.2,0.1,0.2,0.2
			s-0.1,0.1-0.2,0.1h-4.7c-0.1,0-0.2,0-0.2-0.1c0,0,0.1-0.1,0.2-0.2l0.9-0.5c0.2-0.1,0.3-0.3,0.3-0.5V44.4c0-0.2-0.1-0.4-0.3-0.5
			l-0.9-0.5c-0.1,0-0.2-0.1-0.2-0.2s0.1-0.1,0.2-0.1h7.4c0.1,0,0.2,0.1,0.2,0.2v4.5c0,0-0.1,0.1-0.1,0.1c-0.1,0-0.2,0-0.2-0.1
			l-1.5-3.4c-0.1-0.2-0.4-0.3-0.8-0.3h-1.6L49.5,49.3L49.5,49.3z"/>
	</g>
	<g>
		<path class="st2" d="M58,49.3h0.6c0.1,0,0.3,0,0.3-0.1l1-1.2c0.1-0.1,0.1-0.1,0.2-0.1s0.1,0,0.1,0.1v3.8c0,0,0,0.1-0.1,0.1
			c-0.1,0-0.1,0-0.2-0.1l-1-1.3c-0.1-0.1-0.2-0.1-0.3-0.1H58v5.5h1.6c0.4,0,0.7-0.1,0.8-0.3l1.5-3.4c0-0.1,0.1-0.1,0.2-0.1
			s0.1,0,0.1,0.1v4.5c0,0.1-0.1,0.2-0.2,0.2h-7.4c-0.1,0-0.2,0-0.2-0.1c0,0,0.1-0.1,0.2-0.2l0.9-0.5c0.2-0.1,0.3-0.3,0.3-0.5V44.4
			c0-0.2-0.1-0.4-0.3-0.5l-0.8-0.5c-0.1,0-0.2-0.1-0.2-0.2s0.1-0.1,0.2-0.1h7.4c0.1,0,0.2,0.1,0.2,0.2v4.5c0,0.1-0.1,0.1-0.1,0.1
			c-0.1,0-0.2,0-0.2-0.1l-1.5-3.4C60.3,44.1,60,44,59.7,44H58L58,49.3L58,49.3z"/>
	</g>
	<g>
		<path class="st2" d="M66.6,49.3h0.6c0.1,0,0.3,0,0.3-0.1l1-1.2c0.1-0.1,0.1-0.1,0.2-0.1c0.1,0,0.1,0,0.1,0.1v3.8
			c0,0,0,0.1-0.1,0.1c-0.1,0-0.1,0-0.2-0.1l-1-1.3c-0.1-0.1-0.2-0.1-0.3-0.1h-0.6v5.5h1.6c0.4,0,0.7-0.1,0.8-0.3l1.6-3.4
			c0-0.1,0.1-0.1,0.2-0.1s0.1,0,0.1,0.1v4.5c0,0.1-0.1,0.2-0.2,0.2h-7.4c-0.1,0-0.2,0-0.2-0.1c0,0,0.1-0.1,0.2-0.2l0.9-0.5
			c0.2-0.1,0.3-0.3,0.3-0.5V44.4c0-0.2-0.1-0.4-0.3-0.5l-0.9-0.5c-0.1,0-0.2-0.1-0.2-0.2s0.1-0.1,0.2-0.1h7.4c0.1,0,0.2,0.1,0.2,0.2
			v4.5c0,0.1-0.1,0.1-0.1,0.1c-0.1,0-0.2,0-0.2-0.1L69,44.4c-0.1-0.2-0.4-0.3-0.8-0.3h-1.6V49.3z"/>
	</g>
	<g>
		<path class="st2" d="M81.3,47.8c0,0-0.1,0.1-0.2,0.1c-0.1,0-0.1,0-0.2-0.1c-0.5-1.5-1.8-3.7-3.2-3.7c-0.7,0-0.8,0.4-0.8,0.8
			c0,0.9,0.4,1.8,2.5,4.6c2,2.7,2.2,3.2,2.2,4.7c0,1.9-1.6,2.5-2.6,2.5c-0.8,0-1.3-0.2-1.6-0.3C77.2,56.1,77,56,76.9,56
			c-0.1,0-0.3,0.1-0.9,0.4c-0.1,0-0.2,0.1-0.3,0.1c-0.1,0-0.1,0-0.1-0.1V52c0,0,0-0.1,0.1-0.1c0.1,0,0.1,0.1,0.2,0.1
			c0.5,1.4,1.4,3.7,3.1,3.7c0.6,0,0.8-0.4,0.8-0.9c0-1.2-0.9-2.5-2.5-4.7c-1.6-2-2.1-3.4-2.1-4.7c0-1.7,1.2-2.2,2.6-2.2
			c0.5,0,1.2,0.2,1.6,0.4c0.1,0,0.3,0.1,0.4,0.1s0.4-0.1,0.7-0.3c0.3-0.1,0.4-0.2,0.6-0.2c0.1,0,0.2,0.1,0.2,0.2L81.3,47.8
			L81.3,47.8z"/>
	</g>
	<g>
		<path class="st2" d="M88.9,49.2v-4.8c0-0.2-0.1-0.4-0.3-0.5l-0.9-0.5c-0.1,0-0.2-0.1-0.2-0.2s0.1-0.1,0.2-0.1h4.5
			c0.1,0,0.2,0,0.2,0.1c0,0-0.1,0.1-0.2,0.2l-0.9,0.5c-0.2,0.1-0.3,0.3-0.3,0.5v10.9c0,0.2,0.1,0.4,0.3,0.5l0.9,0.5
			c0.1,0,0.2,0.1,0.2,0.2s-0.1,0.1-0.2,0.1h-4.5c-0.1,0-0.2,0-0.2-0.1c0,0,0.1-0.1,0.2-0.2l0.9-0.5c0.2-0.1,0.3-0.3,0.3-0.5v-5.1H86
			v5.1c0,0.2,0.1,0.4,0.3,0.5l0.9,0.5c0.1,0,0.2,0.1,0.2,0.2s-0.1,0.1-0.2,0.1h-4.5c-0.1,0-0.2,0-0.2-0.1c0,0,0.1-0.1,0.2-0.2
			l0.9-0.5c0.2-0.1,0.3-0.3,0.3-0.5V44.4c0-0.2-0.1-0.4-0.3-0.5l-0.9-0.5c-0.1,0-0.2-0.1-0.2-0.2s0.1-0.1,0.2-0.1h4.5
			c0.1,0,0.2,0,0.2,0.1c0,0-0.1,0.1-0.2,0.2l-0.9,0.5C86.1,44,86,44.2,86,44.4v4.8L88.9,49.2L88.9,49.2z"/>
	</g>
	<g>
		<path class="st2" d="M101,49.5c0,3.4-0.4,7.1-3.8,7.1c-3.4,0-3.8-3.7-3.8-7.1c0-2.6,0.4-6.4,3.8-6.4C100.6,43.1,101,46.9,101,49.5
			z M95.7,49.5c0,4.7,0.6,6.2,1.5,6.2c0.9,0,1.5-1.5,1.5-6.2c0-4-0.6-5.5-1.5-5.5C96.3,44,95.7,45.5,95.7,49.5z"/>
	</g>
	<g>
		<path class="st2" d="M103.2,44.4c0-0.2-0.1-0.4-0.3-0.5l-0.9-0.5c-0.1,0-0.2-0.1-0.2-0.2s0.1-0.1,0.2-0.1h4.3
			c2.2,0,3.8,0.7,3.8,3.5c0,2.3-1.2,3.7-3.8,3.7h-1v5c0,0.2,0,0.4,0.3,0.5l1.1,0.5c0.1,0,0.2,0.1,0.2,0.2s-0.1,0.1-0.2,0.1H102
			c-0.1,0-0.2,0-0.2-0.1c0,0,0.1-0.1,0.2-0.2l0.9-0.5c0.2-0.1,0.3-0.3,0.3-0.5V44.4z M105.4,49.4h0.8c1.2,0,1.6-0.8,1.6-2.8
			s-0.4-2.6-1.6-2.6h-0.8V49.4z"/>
	</g>
</g>
</svg>
