<?xml version="1.0" encoding="utf-8"?>
<!-- Generator: Adobe Illustrator 25.0.0, SVG Export Plug-In . SVG Version: 6.00 Build 0)  -->
<svg version="1.1" id="Layer_1" xmlns="http://www.w3.org/2000/svg" xmlns:xlink="http://www.w3.org/1999/xlink" x="0px" y="0px"
	 viewBox="0 0 160 165" style="enable-background:new 0 0 160 165;" xml:space="preserve">
<style type="text/css">
	.st0{fill:#E49A4D;}
	.st1{fill:#663D1C;}
</style>
<g>
	<path class="st0" d="M100.95,69.09c-0.96-13.11,1.95-35.52-15.01-38.94c-1.41-0.53-2.95-0.9-4.65-1.07
		c-0.77-0.08-1.56-0.13-2.34-0.18c-13.99-2.31-28.26-3.65-42.26-5.59c-6.72-0.93-15.04,4.24-12.2,12.24
		c1.44,4.06,2.72,8.16,3.85,12.28c-0.38,1.6-0.41,3.31-0.07,5.02c0.19,0.94,0.38,1.89,0.57,2.83c0.16,3.25,0.6,6.48,1.34,9.67
		c-0.37,6.38-0.17,12.76,0.57,19.09c-4.04,17.3,0.07,40.75,16.84,45.29c7.77,6.42,17.86,10.74,27.81,9.63
		c4.32-0.48,8.27-1.92,11.78-4.06c13.88,1.48,19.37-16.88,19.66-28.26C107.18,94.03,101.89,81.91,100.95,69.09z"/>
	<g>
		<path class="st1" d="M156.48,38c-3.54-5.45-11.04-8.27-16.91-8.65c-7.05-0.46-13.49,2.23-19.17,7.97
			c-1.34,1.36-2.45,2.78-3.33,4.24c0.19-1.36,0.39-2.72,0.59-4.08c0.47-3.24,0.71-6.51,1.1-9.76c0.75-6.18,3.67-11.67,4.73-17.76
			c0.07-0.38-0.1-0.67-0.34-0.85c-0.14-1.93-3.4-3.59-8.67-4.93c-0.88-0.34-1.77-0.65-2.7-0.87c-4.09-0.96-8.6-1.89-12.8-1.97
			c-4.48-0.09-8.91-0.96-13.4-1.01c-2.45-0.03-4.88-0.06-7.32-0.06C75.5,0.2,72.7,0.16,69.91,0.16c-2.12,0-4.24,0.02-6.35,0.07
			C62.02,0.15,60.48,0.07,58.94,0c-4.18-0.19-8.43,0.48-12.59,0.8c-4.11,0.32-8.12,0.69-12.13,1.65
			C23.75,4.02,16.64,6.33,16.64,9.24c0,0.65,0.37,1.27,1.03,1.85c0.39,1.4,0.94,2.77,1.44,4.12c0.43,1.16,0.75,2.36,1.18,3.52
			c0.42,1.16,1.1,2.3,1.32,3.51c0.47,2.5,0.41,5.24,0.66,7.79c0.27,2.72,0.95,5.37,1.15,8.1c0.01,0.19,0.09,0.33,0.19,0.42
			c0.17,2.34,0.54,4.65,0.94,6.96c0.04,0.31,0.08,0.62,0.11,0.94c0.01,0.09,0.04,0.16,0.08,0.22c0.44,2.55,0.87,5.1,1.03,7.68
			c0.01,0.14,0.07,0.24,0.16,0.3c0.03,0.38,0.06,0.75,0.08,1.13c0.36,5.84,0.72,11.68,1.08,17.53c0.36,5.83,0.3,11.85-0.16,17.67
			c-0.46,5.84-1.54,11.86-1.08,17.73c0.37,4.83,2.4,9.28,4.65,13.47c0.49,0.91,1,1.79,1.53,2.65c-4,0.01-8.08,0.98-11.96,1.88
			c-4.06,0.93-8.04,2.06-11.88,3.68c-2.33,0.98-4.71,2.05-6.43,3.91c-0.11,0.05-0.21,0.13-0.26,0.28c-0.3,0.36-0.59,0.74-0.84,1.16
			c-1.47,2.47-0.99,4.81,0.66,6.8c0.52,1.11,1.18,2.07,2,2.95c0.53,0.66,1.17,1.27,1.97,1.8c0.07,0.04,0.14,0.07,0.21,0.09
			c4.23,3.15,9.51,4.84,13.49,8.33c3.11,2.72,7.66,3.72,11.77,4.82c0.06,0.16,0.2,0.3,0.42,0.4c0.07,0.03,0.14,0.05,0.21,0.08
			c0,0,0,0,0,0c0,0,0.01,0,0.01,0c0.82,0.32,1.78,0.44,2.74,0.51c5.36,1.67,11.14,2.76,16.75,2.68c4.35-0.06,8.67,0.31,13.02,0.42
			c0.15,0.21,0.37,0.36,0.66,0.36c6.37-0.08,12.77-0.48,19.13-0.81c0.09,0,0.19-0.01,0.28-0.02c0.85-0.04,1.71-0.07,2.56-0.11
			c2.93-0.15,5.85,0,8.78-0.06c3.04-0.06,5.94-0.77,8.96-1.07c1.76-0.17,3.53-0.31,5.3-0.46c0.97-0.01,1.95-0.11,2.92-0.26
			c0.35-0.03,0.7-0.06,1.05-0.09c2.67-0.27,5.78-0.34,8.34-1.15c5.47-1.71,11.21-3.07,15.77-6.76c1.19-0.96,2.14-1.97,3.49-2.71
			c1.1-0.61,2.2-1.26,3.25-1.95c0.97-0.64,1.89-1.43,2.76-2.29c0.65-0.45,1.27-0.93,1.87-1.46c2.62-2.31,3.57-5.6,1.82-8.73
			c-1.49-2.68-4.34-4.32-7.16-5.59c-0.5-0.32-1-0.63-1.5-0.9c-4-2.18-8.71-3.34-13.15-4.16c-0.14-0.03-0.27-0.04-0.41-0.06
			c-4-0.95-8.07-1.59-12.08-1.85c1.11-2.13,1.94-4.41,2.62-6.78c1.03-3.57,1.25-7.19,1.16-10.83c1.18,1.88,2.8,3.56,4.79,4.88
			c0.73,0.48,1.51,0.73,2.28,0.73c0.57,0,1.14-0.14,1.68-0.41c1.4-0.7,2.4-2.27,2.5-3.9c0.09-1.54-0.62-2.93-1.95-3.81
			c-1.92-1.27-2.88-2.65-2.87-4.12c0.03-3.99,6.92-8.4,9.18-9.84l0.09-0.06c5.76-3.69,11.72-7.5,15.94-13.19
			c3.87-5.23,6.32-11.65,7.28-19.07C159.99,52.42,160.5,44.19,156.48,38z M130.21,56.29c-0.29-1.48-1.53-2.98-3.33-2.99
			c-1.11-0.01-1.99-0.36-2.62-1.06c-0.73-0.82-1.07-2.05-0.93-3.49c0.21-2.25,2.04-4.24,3.61-5.73c3.72-3.52,9.77-7.03,17.4-3.7
			c5.71,2.49,6.82,7.04,6.72,13.1c-0.1,6.33-1.56,12.13-4.21,16.8c-3.2,5.64-8.25,8.87-13.6,12.28c-4,2.56-8.15,5.2-11.42,8.95
			c-1.31,1.5-2.27,3.16-2.88,4.9c-0.04-0.23-0.09-0.45-0.14-0.69c-0.56-3.08-0.64-6.29-0.92-9.41c-0.28-3.22-0.5-6.44-0.82-9.66
			c-0.32-3.19-0.23-6.25-0.17-9.45c0.06-3.11-0.46-6.18-0.39-9.29c0-0.15,0-0.31,0-0.46c0.95,1.45,2.28,2.62,3.97,3.51
			c3.07,1.61,5.32,0.9,7.94-0.19C129.81,59.15,130.51,57.81,130.21,56.29z M118.32,101.42c0.02,0.12,0.05,0.23,0.07,0.35
			c-0.01,0-0.02,0.01-0.03,0.01c-0.07-0.11-0.14-0.22-0.23-0.32c0.06-0.01,0.12-0.04,0.18-0.07
			C118.32,101.4,118.32,101.41,118.32,101.42z M35.34,93.05c0,0.02,0,0.04,0,0.06c0,0.07-0.01,0.16-0.01,0.27
			c-0.02-0.12-0.04-0.24-0.06-0.36C35.29,93.03,35.31,93.04,35.34,93.05z M34.22,96.59c0.06,0.23,0.13,0.46,0.19,0.69
			c-0.13,0.02-0.25,0.04-0.38,0.06C34.11,97.1,34.18,96.85,34.22,96.59z M37.76,93.7c0.68,0.09,1.38,0.15,2.13,0.23
			c0.06,0.01,0.13,0.01,0.19,0.02c-0.76,0.02-1.52,0.03-2.28,0.02C37.78,93.88,37.77,93.79,37.76,93.7z M35.32,91.25
			c-0.02,0-0.05,0-0.07,0c-0.13,0.01-0.24,0.05-0.34,0.1c-0.03-0.12-0.06-0.23-0.09-0.35c0.17,0.03,0.34,0.06,0.5,0.08
			C35.32,91.14,35.32,91.2,35.32,91.25z M34.85,87.59c0-0.03,0-0.05-0.01-0.08c0.09,0.02,0.17,0.04,0.26,0.05
			C35.02,87.57,34.93,87.58,34.85,87.59z M37.1,101.95c0-0.07,0.01-0.13,0-0.2c0.27,0.11,0.54,0.22,0.81,0.31
			C37.64,102.04,37.37,101.99,37.1,101.95z M58.91,92.04c0.95,0.1,1.92,0.19,2.87,0.21c0.01,0,0.01,0,0.02,0
			c-0.02,0.08-0.03,0.17-0.02,0.25c-0.95-0.1-1.89-0.2-2.84-0.3C58.93,92.14,58.93,92.09,58.91,92.04z M78.81,93.75
			c-0.46,0.01-0.91,0.02-1.37,0.03c-1.02-0.05-2.04-0.1-3.06-0.16c-0.04-0.01-0.08-0.01-0.12-0.02c-1.08-0.16-2.15-0.33-3.23-0.5
			c0.05,0,0.1,0.01,0.15,0.01C73.72,93.34,76.27,93.54,78.81,93.75z M74.14,101.66c0.17,0.03,0.34,0.05,0.5,0.07
			c-1.22-0.08-2.44-0.14-3.66-0.16c-0.09,0-0.16,0.02-0.23,0.04c-0.19-0.03-0.39-0.06-0.58-0.09c0.13-0.01,0.25-0.01,0.38-0.02
			c0.87-0.04,1.75-0.09,2.62-0.13c0.17,0.02,0.34,0.03,0.52,0.05C73.8,101.53,73.93,101.63,74.14,101.66z M63.64,102.62
			c-0.77-0.08-1.54-0.18-2.31-0.27c0.23-0.03,0.46-0.05,0.69-0.08C62.56,102.39,63.1,102.5,63.64,102.62z M114.5,86.59
			c0,0.01,0,0.02,0,0.02c-0.23,0.02-0.45,0.13-0.6,0.32c-0.03-0.01-0.05-0.02-0.08-0.03c-0.04-0.07-0.08-0.15-0.12-0.22
			c-0.01-0.02-0.03-0.04-0.05-0.05C113.94,86.64,114.22,86.63,114.5,86.59z M45.5,95.61c-0.58-0.02-1.16-0.04-1.74-0.07
			c0.59-0.01,1.18,0.01,1.77,0.01C45.53,95.57,45.51,95.59,45.5,95.61z M57.05,99.2c0.38,0.07,0.76,0.14,1.14,0.2
			c-0.1,0.01-0.21,0.02-0.31,0.02c-0.17,0.01-0.34,0.02-0.5,0.02c-0.33-0.08-0.67-0.17-1-0.25C56.6,99.2,56.83,99.2,57.05,99.2z
			 M104.72,93.71c0.09-0.01,0.18-0.02,0.27-0.04c-0.01,0.04-0.01,0.08-0.02,0.12c-0.06,0.05-0.11,0.1-0.17,0.14
			C104.78,93.86,104.75,93.79,104.72,93.71z M115.07,97.24c0.13,0.16,0.23,0.34,0.33,0.52c0,0,0,0.01,0,0.01
			c-0.23,0.08-0.5,0.14-0.81,0.22C114.72,97.71,114.87,97.46,115.07,97.24z M96.35,89.25c0,0.04,0,0.08,0.01,0.12
			c-0.57-0.02-1.13-0.04-1.7-0.06C95.22,89.29,95.78,89.27,96.35,89.25z M28.99,86.69c-0.02,0.13-0.04,0.25-0.06,0.38
			c-0.12,0.12-0.19,0.27-0.22,0.44c0.02-0.54,0.04-1.07,0.06-1.61C28.83,86.17,28.9,86.43,28.99,86.69z M28.71,87.76
			c0,0.17,0.01,0.33,0.02,0.5c-0.02,0.13-0.05,0.26-0.07,0.39C28.67,88.36,28.69,88.06,28.71,87.76z M50.09,99.2
			c0.29,0.09,0.57,0.19,0.86,0.27c-0.74-0.1-1.49-0.19-2.23-0.28C49.17,99.19,49.63,99.2,50.09,99.2z M93.56,103.66
			c0-0.04-0.01-0.07-0.01-0.11c0.25-0.07,0.5-0.14,0.75-0.22C94.05,103.45,93.81,103.55,93.56,103.66z M87.5,87.03
			c-0.2,0.03-0.34,0.11-0.46,0.22c-0.17,0-0.33,0-0.5,0c-0.26-0.04-0.52-0.06-0.78-0.09c0.61-0.04,1.22-0.09,1.83-0.14
			C87.56,87.02,87.53,87.02,87.5,87.03z M65.07,87.7c-0.61-0.07-1.24-0.13-1.86-0.19c0.64,0.03,1.27,0.05,1.91,0.07
			C65.11,87.61,65.08,87.65,65.07,87.7z M54.66,87.02c0,0.07,0.01,0.13,0.03,0.2c-0.96-0.1-1.92-0.26-2.87-0.43
			C52.76,86.87,53.71,86.95,54.66,87.02z M45.49,86.3c-0.27-0.06-0.54-0.11-0.82-0.17c0.32,0.04,0.65,0.07,0.97,0.11
			C45.6,86.25,45.55,86.27,45.49,86.3z M32.05,84.37c-0.02-0.11-0.04-0.22-0.07-0.32c0.56,0.15,1.13,0.28,1.7,0.4
			C33.17,84.39,32.6,84.35,32.05,84.37z M27.76,99.3c0.01,0.27,0.06,0.54,0.14,0.8c-0.07-0.03-0.14-0.06-0.2-0.1
			C27.72,99.77,27.74,99.54,27.76,99.3z M52.53,105.73c0.58,0.06,1.16,0.13,1.75,0.19c0.43,0.08,0.87,0.14,1.31,0.2
			c-0.56-0.03-1.11-0.07-1.66-0.11C53.46,105.91,52.99,105.82,52.53,105.73z M57.44,1.32c0.29,0,0.57,0,0.86,0.01
			c3.48,0.11,6.97,0.61,10.45,0.57c3.44-0.04,6.87-0.26,10.31-0.27c7.11-0.01,14.13,0.83,21.22,1.23c2.1,0.12,4.23,0.64,6.3,0.99
			c1.97,0.34,3.94,0.59,5.88,1.08c1.82,0.46,3.41,1.17,5.13,1.92c0.86,0.37,2.85,1.44,3.5,2.51c-0.33,1.29-3.05,2.98-3.76,3.23
			c-0.34,0.12-0.7,0.23-1.06,0.34c-0.12,0.04-0.26,0.07-0.38,0.11c-0.88,0.25-1.78,0.46-2.65,0.69c-1.2,0.28-2.5,0.55-3.91,0.81
			c-2.75-1.26-6.09-1.71-9-2.52c-3.21-0.9-6.64-0.81-9.94-1.04c-3.3-0.23-6.57-0.79-9.88-0.98c-3.66-0.21-7.28-0.3-10.95-0.2
			c-7.4,0.2-14.94,0.41-22.29,1.29c-3.31,0.4-6.62,0.39-9.91,1.02c-1.45,0.28-4.48,0.53-5.91,1.8c-0.12-0.03-0.23-0.05-0.35-0.08
			c-1.96-0.49-4-0.58-5.97-1.02c-1.86-0.41-5.56-1.83-5.95-4.15c0.21-0.39,0.58-0.74,1.18-1.02c0.55-0.25,1.17-0.39,1.74-0.57
			c1.7-0.54,3.46-0.87,5.18-1.33c3.22-0.86,6.38-1.89,9.64-2.57c3.59-0.75,7.28-0.88,10.93-1.14c2-0.14,4.01-0.39,6.02-0.56
			C55.04,1.42,56.23,1.37,57.44,1.32z M33.58,14.33c0.17-0.04,0.35-0.08,0.53-0.12c0.01,0.07,0.02,0.14,0.04,0.21
			C33.96,14.39,33.77,14.36,33.58,14.33z M91.29,14.52c0.01,0.01,0.01,0.02,0.02,0.03c-0.01,0-0.02,0.01-0.03,0.01
			c-0.02-0.02-0.04-0.03-0.06-0.04C91.25,14.51,91.27,14.52,91.29,14.52z M105.7,15.03c0.06,0.02,0.12,0.04,0.18,0.05
			c-0.06,0.01-0.12,0.01-0.18,0.02C105.7,15.08,105.7,15.06,105.7,15.03z M83.46,16.71c0.38,0.03,0.76,0.08,1.14,0.11
			c-0.41-0.01-0.82-0.02-1.24-0.05C83.4,16.75,83.43,16.73,83.46,16.71z M19.98,11.59c-0.01-0.01-0.01-0.02-0.02-0.03
			c-0.12-0.14-0.23-0.28-0.34-0.42c0.22,0.22,0.45,0.42,0.7,0.62C20.2,11.7,20.09,11.65,19.98,11.59z M26.08,42.58
			c-1.04-6.05-1.21-12.22-2.26-18.27c-0.45-2.58-1.21-4.96-2.27-7.33c-0.6-1.34-1.4-2.97-2-4.65c0.01,0,0.02,0,0.03,0
			c4.6,2.28,14.15,3.98,25.6,4.98c0.58,0.12,1.16,0.24,1.75,0.34c2.3,0.37,4.73,0.37,7.13,0.28c5.17,0.27,10.53,0.41,15.85,0.41
			c4.1,0,8.23-0.08,12.26-0.25c0.48,0.01,0.96,0.03,1.43,0.04c3.8,0.11,7.74,0,11.51-0.54c2.12-0.3,4.17-0.83,6.33-0.87
			c2.29-0.04,4.43-0.16,6.69-0.51c0.23-0.03,0.46-0.07,0.69-0.1c0.16,0.02,0.3,0,0.43-0.06c1.21-0.16,2.43-0.32,3.61-0.66
			c1.89-0.55,4.31-0.85,6-1.86c0.47-0.28,1.05-0.68,1.61-1.16c0.05-0.01,0.1-0.01,0.16-0.04c0.27-0.12,0.5-0.26,0.72-0.43
			c-1.08,4.15-2.89,8.09-3.74,12.31c-1.06,5.25-1.27,10.71-2.07,16.02c-0.37,2.43-0.63,4.88-0.76,7.34c-0.01,0.19,0,0.37-0.01,0.56
			c-0.12,1.1-0.12,2.2,0.02,3.29c0.05,1.39,0.12,2.79,0.1,4.19c-0.04,2.49,0.04,4.88,0.24,7.36c0.24,2.97-0.17,5.91-0.05,8.87
			c0.14,3.45,0.49,6.91,0.85,10.37c-0.39,0.1-0.77,0.24-1.16,0.31c-1.81,0.32-3.76,0.33-5.61,0.51c-3.19,0.31-6.38,0.71-9.57,1.08
			c-0.29-0.05-0.57-0.08-0.8-0.1c-0.22-0.01-0.42,0.1-0.56,0.26c-0.17,0.02-0.34,0.04-0.51,0.06c-7.51,0.84-14.89,1.5-22.46,1.63
			c-7.78,0.13-15.49-0.24-23.25-0.8c-4.08-0.3-8.16-0.67-12.2-1.27c-3.57-0.53-7.56-1-10.93-2.4c0.01-0.66,0.02-1.33,0.03-1.99
			c0.02-6.28-0.58-12.59-0.96-18.85C27.58,54.57,27.11,48.58,26.08,42.58z M108.87,133.08c0.8,0.23,1.68,0.35,2.44,0.61
			c1.92,0.68,4.12,1.29,5.77,2.54c3.48,2.62,4.23,7.45,0.05,9.82c-3.21,1.82-7.22,2.69-10.78,3.52c-4.32,1.01-8.7,1.78-13.11,2.24
			c-8.33,0.87-16.48,1.73-24.87,1.34c-8.29-0.39-16.76-1.24-24.84-3.24c-2.2-0.55-4.42-1.17-6.5-2.07c-1.83-0.78-4.68-2.02-5.63-3.9
			c-1.2-2.37,2.39-5.71,4.2-6.69c2.03-1.1,4.76-2.13,7.09-1.89c0.23,0.02,0.41-0.08,0.51-0.22c-0.03,0.12-0.01,0.25,0.09,0.37
			c1.04,1.19,1.57,2.69,2.55,3.91c0.79,0.98,1.8,1.74,2.85,2.41c2.4,1.54,4.98,2.79,7.68,3.69c6.27,2.08,12.34,2.35,18.9,2.43
			c6.59,0.07,12.9-0.62,18.97-3.26c3.57-1.55,8.67-4.45,9.87-8.64C105.74,135.13,107.34,134.16,108.87,133.08z M97.77,140.9
			c-2.34,1.42-4.87,2.57-7.42,3.55c-5.33,2.05-11.77,1.84-17.4,1.75c-3.03-0.05-6.09,0.02-9.09-0.44c-2.66-0.41-5.23-1.2-7.78-2.05
			c-2.27-0.75-4.59-1.93-6.65-3.17c-1.98-1.19-3.1-2.93-4.52-4.53c2.75,1.32,5.62,2.44,8.43,3.39c5.08,1.72,10.38,3.39,15.74,3.76
			c5.15,0.36,10.77,0.86,15.89,0.12c2.54-0.37,5.25-0.8,7.72-1.54c2.43-0.73,4.66-2.1,6.91-3.28c0.65-0.34,1.3-0.68,1.95-1.03
			C100.5,138.89,98.95,140.18,97.77,140.9z M31.5,146.48c3.42,2.95,8.12,4.24,12.41,5.26c5.1,1.21,10.33,1.89,15.53,2.43
			c5.13,0.53,10.29,0.84,15.45,0.84c5.38-0.01,10.69-0.67,16.04-1.24c5.23-0.56,10.39-1.31,15.53-2.47
			c4.07-0.92,9.15-1.89,12.58-4.45c3.07-2.28,3.54-6.53,1.36-9.6c-1.21-1.7-2.79-2.87-4.69-3.68c-1.21-0.51-2.44-0.96-3.68-1.4
			c-0.43-0.16-0.95-0.26-1.47-0.38c0.59-0.48,1.16-0.97,1.71-1.5c1.14-1.1,2.1-2.31,2.95-3.59c0.09,0.1,0.23,0.18,0.41,0.19
			c3.41,0.24,6.69,0.86,10.13,0.93c0.8,0.02,1.62,0.08,2.44,0.18c2.8,0.67,5.54,1.48,8.15,2.4c1.97,0.7,4,1.41,5.96,2.28
			c1.44,0.82,2.77,1.79,3.86,3.06c1.32,1.53,2.47,3.26,2.63,5.34c0.07,0.95-0.12,1.7-0.49,2.35c-0.42,0.51-0.87,1.03-1.33,1.53
			c-0.3,0.25-0.61,0.5-0.95,0.75c-0.15,0.12-0.24,0.26-0.29,0.41c-5.45,3.6-12.49,5.02-18.71,6.48c-0.71,0.17-1.42,0.32-2.13,0.48
			c-1.27,0.04-2.64,0.21-3.74,0.77c-5.77,1.1-11.6,1.88-17.43,2.55c-7.81,0.9-15.64,1.19-23.49,1.52
			c-7.86,0.33-15.71,0.75-23.57,0.35c-7.87-0.4-15.66-1.39-23.29-3.38c-5.48-1.43-11.25-2.73-16.63-4.74
			c-0.34-0.24-0.69-0.48-1.04-0.71c-2.3-1.52-4.7-2.88-6.98-4.44c-1.76-1.21-4.58-3.51-5.5-5.9c0.11-0.93,0.39-1.84,0.83-2.68
			c1.8-3.42,5.9-4.02,9.11-5.18c1.49-0.54,2.89-0.94,4.45-1.3c1.75-0.4,3.44-1.08,5.2-1.4c3.28-0.59,6.69-1.12,9.9-2.07
			c0.11-0.03,0.19-0.09,0.25-0.16c1.78,2.61,3.88,4.91,6.62,6.72c0.59,0.39,1.19,0.76,1.81,1.12
			C35.32,133.89,25.3,141.13,31.5,146.48z M66.09,161.38c-0.01-0.04-0.03-0.09-0.05-0.12c0.71,0.1,1.42,0.19,2.13,0.26
			c-0.28,0-0.55,0-0.83,0C66.92,161.48,66.51,161.43,66.09,161.38z M22.44,153.83c-0.02-0.01-0.03-0.02-0.05-0.03
			c-0.24-0.13-0.47-0.27-0.7-0.41c0.03,0.01,0.06,0.02,0.09,0.03c0.27,0.07,0.53,0.15,0.8,0.22
			C22.53,153.7,22.48,153.76,22.44,153.83z M24.95,156.89c-0.74-0.3-1.46-0.64-2.16-1.01C23.51,156.22,24.23,156.56,24.95,156.89z
			 M39.51,157.93c1.1,0.22,2.21,0.42,3.32,0.6c-0.38-0.03-0.75-0.06-1.13-0.09c-0.24-0.06-0.48-0.11-0.71-0.16
			C40.5,158.18,40.01,158.05,39.51,157.93z M59.11,162.75c0.37-0.03,0.73-0.06,1.1-0.09c0.02,0.07,0.05,0.13,0.08,0.19
			c-0.42-0.02-0.84-0.04-1.26-0.06C59.06,162.78,59.09,162.77,59.11,162.75z M101.8,161.62c0.04,0,0.08-0.01,0.11-0.01
			c0.38-0.04,0.77-0.07,1.16-0.1c-0.43,0.05-0.85,0.1-1.28,0.14C101.8,161.64,101.8,161.63,101.8,161.62z M131.28,153.47
			c-0.02,0.01-0.05,0.02-0.07,0.03c-0.04-0.02-0.08-0.04-0.13-0.05c-0.05-0.01-0.1-0.01-0.15-0.01c0.11-0.03,0.22-0.05,0.33-0.08
			C131.27,153.4,131.27,153.44,131.28,153.47z M137.39,152.03c0.01-0.1,0-0.19-0.02-0.29c0.2-0.06,0.4-0.13,0.6-0.19
			C137.78,151.71,137.59,151.87,137.39,152.03z M108.62,131.17c-0.01-0.01-0.03-0.02-0.05-0.02c-0.69-0.42-1.3,0.28-1.21,0.91
			c-1.05,0.71-2.13,1.37-3.23,2c-0.07-0.06-0.15-0.12-0.24-0.15c-0.39,0.24-0.79,0.45-1.2,0.65c-0.01,0.04-0.03,0.08-0.03,0.12
			c-0.01,0.08-0.02,0.15-0.03,0.23c-0.38,0.21-0.76,0.42-1.15,0.63c-2.58,1.41-5.21,3.01-7.93,4.12c-4.57,1.85-10.1,2.3-14.96,2.16
			c-5.4-0.15-10.95,0-16.2-1.47c-5.33-1.5-10.57-3.12-15.62-5.42c-4.64-2.11-8.98-4.57-12.01-8.85c-2.84-4.01-5.35-8.87-6.61-13.66
			c-0.94-3.57-0.87-7.44-0.57-11.23c0.54,0.31,1.07,0.6,1.62,0.87c1.36,1.25,3.41,2.05,5.11,2.08c4.48,1.48,9.19,2.23,13.95,2.92
			c1.17,0.17,2.34,0.29,3.52,0.4c2.89,0.55,5.8,0.91,8.72,0.92c0.3,0,0.5-0.13,0.63-0.31c3.66,0.24,7.32,0.56,11,0.54
			c8.33-0.04,16.58-0.26,24.88-1.18c3.04-0.34,6.05-0.84,9.07-1.3c0.8-0.07,1.61-0.16,2.42-0.3c0.1-0.02,0.2-0.05,0.29-0.1
			c1.86-0.25,3.71-0.56,5.55-0.95c1.46-0.31,2.81-0.87,4.21-1.3C119.15,113.8,117.26,124.75,108.62,131.17z M157.43,57.83
			c-0.92,7.11-3.25,13.24-6.94,18.21c-4.01,5.42-9.83,9.14-15.45,12.73l-0.09,0.06c-4.29,2.75-10,6.91-10.04,11.39
			c-0.02,2.14,1.23,4.05,3.7,5.68c0.99,0.66,1.16,1.53,1.12,2.15c-0.06,0.98-0.67,1.94-1.48,2.35c-0.67,0.34-1.4,0.26-2.12-0.21
			c-3.34-2.2-5.52-5.5-6-9.04c-0.45-3.34,0.64-6.71,3.07-9.49c3.1-3.55,7.13-6.12,11.03-8.61c5.3-3.39,10.79-6.89,14.21-12.93
			c2.8-4.93,4.34-11.05,4.45-17.68c0.1-5.89-0.78-11.77-7.83-14.83c-2.26-0.98-4.54-1.47-6.8-1.47c-4.42,0-8.75,1.87-12.61,5.52
			c-1.8,1.71-3.91,4.03-4.18,6.9c-0.18,1.95,0.31,3.7,1.4,4.9c0.97,1.08,2.35,1.66,3.97,1.67c0.78,0.01,1.39,0.76,1.53,1.5
			c0.09,0.46,0.05,1.07-0.67,1.37c-2.65,1.1-4.19,1.4-6.37,0.26c-2.23-1.17-3.7-2.94-4.36-5.26c-1.85-6.5,2.16-11.8,4.71-14.38
			c5.29-5.34,11.26-7.85,17.74-7.43c5.23,0.34,12.3,2.92,15.48,7.81C157.7,43.28,158.52,49.43,157.43,57.83z"/>
		<path class="st1" d="M31.43,51.52c0.01,0.93,1.43,0.86,1.44-0.06c0.05-3.9-0.19-7.79-0.46-11.68c-0.25-3.7-0.86-7.38-0.89-11.1
			c-0.01-0.66-0.98-0.6-1.01,0.04c-0.16,3.7,0.43,7.41,0.59,11.11C31.26,43.72,31.41,47.61,31.43,51.52z"/>
		<path class="st1" d="M37.95,57.54c-0.78-3.43-0.6-6.86-0.76-10.34c-0.03-0.65-0.96-0.59-0.99,0.04c-0.2,3.58-0.32,7.2,0.37,10.74
			C36.74,58.88,38.16,58.45,37.95,57.54z"/>
	</g>
</g>
</svg>
