<?xml version="1.0" encoding="utf-8"?>
<!-- Generator: Adobe Illustrator 25.0.0, SVG Export Plug-In . SVG Version: 6.00 Build 0)  -->
<svg version="1.1" id="Layer_1" xmlns="http://www.w3.org/2000/svg" xmlns:xlink="http://www.w3.org/1999/xlink" x="0px" y="0px"
	 viewBox="0 0 60 100" style="enable-background:new 0 0 60 100;" xml:space="preserve">
<style type="text/css">
	.st0{fill:#FFFFFF;}
	.st1{fill:#301C10;}
</style>
<g>
	<g>
		<path class="st0" d="M59.68,61.68c-0.29-11.14-0.21-22.54-2.46-33.33c-1.3-6.23-2.83-12.38-4.26-18.56
			c-0.14-0.62-0.86-0.36-0.72,0.27c2.51,10.81,5.5,21.51,6.07,32.91c0.56,11.2,0.84,22.48,0.85,33.7c0,6.55-0.15,13.1-0.54,19.62
			c-0.04,0.65,0.71,0.65,0.74,0C60.05,84.78,59.98,73.22,59.68,61.68z"/>
		<path class="st0" d="M58.82,96.3c-7,3.11-14.17,2.76-21.43,2.6c-3.64-0.08-7.27-0.17-10.91-0.25c-1.82-0.04-3.64-0.08-5.45-0.13
			c-1.74-0.04-3.73,0.28-5.45-0.13c-1.41-0.33-1.58-1.2-1.77-2.77c-0.17-1.46-0.26-2.94-0.32-4.41c-0.09-2.4-0.07-4.81-0.1-7.21
			c-0.05-4.94-0.2-9.87-0.44-14.8c-0.47-9.57-1.29-19.11-2.47-28.57C9.81,35.26,9.1,29.88,8.13,24.61c-0.4-2.2-0.98-4.22-1.82-6.17
			c-0.99-2.29-2.32-4.72-1.75-7.52c0.13-0.63-0.59-0.9-0.72-0.27c-0.86,4.25,1.9,7.62,2.93,11.3C8.09,26.67,8.59,32.04,9.26,37
			c1.39,10.32,2.35,20.74,2.89,31.21c0.27,5.25,0.44,10.52,0.49,15.79c0.03,2.51,0.01,5.03,0.11,7.54c0.08,1.93,0.02,4.83,0.72,6.57
			c0.53,1.34,1.62,1.28,2.6,1.31c2.15,0.06,4.3,0.1,6.45,0.15c3.8,0.09,7.6,0.18,11.4,0.27c8.43,0.2,16.96,1.07,25.1-2.55
			C59.47,97.07,59.27,96.09,58.82,96.3z"/>
		<path class="st0" d="M13.99,98.25c-2.44-0.51-4.88-1.02-7.32-1.53c-1.08-0.23-2.22-0.34-3.29-0.7c-1.51-0.5-1.46-2.78-1.57-4.51
			c-0.4-6.35-0.74-12.71-0.95-19.08C0.44,59.58,0.56,46.64,1.83,33.87c0.71-7.11,1.8-14.14,3.31-21.01c0.14-0.63-0.58-0.9-0.72-0.27
			C1.57,25.6,0.29,39.13-0.02,52.68c-0.15,6.8-0.07,13.6,0.16,20.39c0.23,6.76,0.4,13.66,1.07,20.37c0.3,3.04,1.52,3.47,3.56,3.9
			c3.01,0.63,6.02,1.26,9.02,1.89C14.26,99.32,14.46,98.34,13.99,98.25z"/>
		<path class="st0" d="M54.33,7.83c-0.19-1.62-0.71-3.15-1.3-4.63c-0.49-1.23-0.82-2.75-2.15-2.98c-1.67-0.29-3.51-0.1-5.19-0.02
			c-1.99,0.09-3.99,0.28-5.97,0.54c-3.52,0.46-7.01,1.11-10.5,1.81c-8.31,1.65-16.65,3.42-25.13,3.2C3.72,5.73,3.62,6.2,3.82,6.48
			C4.88,7.99,5.1,9.95,4.46,11.7c-0.27,0.06-0.37,0.53-0.14,0.77c0.09,0.18,0.29,0.29,0.46,0.23c3.2,1.33,6.99,0.95,10.33,0.88
			c3.73-0.08,7.45-0.33,11.16-0.66c7.44-0.66,14.86-1.65,22.31-2.25c0.85-0.07,1.69-0.13,2.54-0.19c0.76-0.05,1.77,0.09,2.49-0.19
			C54.59,9.91,54.44,8.77,54.33,7.83z M52.9,9.5c-0.67,0.23-1.58,0.1-2.29,0.15c-1.02,0.07-2.03,0.15-3.05,0.24
			c-6.77,0.58-13.51,1.45-20.28,2.07c-3.71,0.34-7.43,0.62-11.16,0.73c-3.49,0.11-7.56,0.58-10.93-0.74
			c0.62-1.79,0.48-3.69-0.38-5.33C17.98,6.78,30.64,2.19,43.7,1.18c1.66-0.13,3.32-0.19,4.98-0.18c0.85,0.01,1.74-0.15,2.44,0.4
			c0.81,0.63,1.2,2.06,1.56,3.08C53.13,5.7,54.41,8.97,52.9,9.5z"/>
		<path class="st0" d="M4.87,12.21c-0.5-1.58-1.34-4.34-0.4-5.86C4.75,5.9,4.08,5.46,3.8,5.92c-1.08,1.74-0.25,4.73,0.33,6.52
			C4.29,12.96,5.04,12.74,4.87,12.21z"/>
		<path class="st0" d="M24.81,3.15h-0.13c-0.2,0-0.4,0.2-0.39,0.43c0.01,0.23,0.17,0.43,0.39,0.43h0.13c0.2,0,0.4-0.2,0.39-0.43
			C25.19,3.34,25.03,3.15,24.81,3.15z"/>
		<path class="st0" d="M30.94,4.79c-0.45-1.3-1.02-2.19-2.31-2.46c-1.17-0.25-2.39-0.09-3.54,0.29c-0.74,0.05-1.48,0.11-2.22,0.2
			c-0.3,0.04-0.48,0.34-0.33,0.65c1.18,2.59,2.14,5.28,2.85,8.08c0.33,1.33,0.61,2.68,0.83,4.04c0.17,1.04,0.23,2.08,0.72,2.99
			c0.17,0.32,0.61,0.25,0.71-0.1c0.11-0.4,0.22-0.8,0.32-1.2c0.32,0.51,0.64,1.02,0.96,1.52c0.17,0.26,0.66,0.3,0.71-0.1
			c0.09-0.71,0.18-1.43,0.27-2.14c0.26,0.29,0.53,0.57,0.79,0.86c0.25,0.27,0.65,0.07,0.66-0.31c0.01-0.36,0.02-0.73,0.04-1.09
			c0.51,0.51,0.96,1.06,1.37,1.7c0.26,0.41,0.78,0.15,0.71-0.33C32.89,13.16,32.32,8.82,30.94,4.79z M31.24,14.77
			c-0.25-0.21-0.57,0.08-0.58,0.37l-0.03,0.98c-0.24-0.26-0.48-0.51-0.71-0.77c-0.19-0.2-0.61-0.15-0.65,0.19l-0.24,1.89
			c-0.28-0.45-0.57-0.91-0.85-1.36c-0.19-0.3-0.61-0.27-0.71,0.1l-0.24,0.89c-0.22-0.89-0.27-1.87-0.43-2.74
			c-0.25-1.35-0.56-2.69-0.92-4.01c-0.63-2.31-1.45-4.54-2.4-6.71c0.16-0.02,0.31-0.03,0.47-0.05c0.06,0.19,0.22,0.33,0.44,0.24
			c0.25-0.11,0.52-0.22,0.82-0.33c0.43-0.03,0.85-0.05,1.28-0.06c0.22-0.01,0.34-0.18,0.37-0.37c0.71-0.1,1.42-0.07,1.98,0.22
			c1.51,0.77,1.84,3.21,2.23,4.83c0.64,2.61,1.06,5.27,1.44,7.94C32.12,15.58,31.7,15.16,31.24,14.77z"/>
		<path class="st0" d="M31.75,11.92c-0.03-0.09-0.09-0.14-0.16-0.17c-0.03-0.16-0.05-0.31-0.07-0.47c-0.07-0.72-0.14-1.44-0.21-2.17
			c0.01-0.06,0.02-0.13,0-0.2c-0.01-0.06-0.02-0.11-0.04-0.17c-0.01-0.07-0.01-0.14-0.02-0.21c-0.01-0.08-0.03-0.15-0.07-0.21
			c-0.08-0.39-0.17-0.79-0.27-1.21c-0.08-0.39-0.17-0.79-0.28-1.18c-0.01-0.04-0.02-0.07-0.04-0.1c-0.23-1.02-0.47-2.04-0.7-3.06
			c-0.1-0.44-0.75-0.38-0.76,0.05c-0.11-0.02-0.24,0.02-0.33,0.1c-0.03-0.02-0.05-0.05-0.08-0.07c-0.01-0.19-0.13-0.36-0.37-0.34
			c-0.34,0.03-0.44,0.06-0.67,0.35c-0.02,0.03-0.03,0.05-0.05,0.08c-0.1,0.13-0.17,0.28-0.23,0.45c-0.21-0.31-0.74-0.24-0.72,0.22
			c0,0,0,0,0,0c-0.1-0.16-0.2-0.32-0.31-0.47c-0.21-0.3-0.75-0.26-0.72,0.22c0.01,0.18,0.03,0.35,0.04,0.53
			c-0.05-0.08-0.11-0.16-0.16-0.24c-0.26-0.38-0.69,0.04-0.65,0.41c-0.02,0.01-0.05,0.01-0.07,0.03c-0.13-0.15-0.36-0.17-0.51-0.06
			c-0.03-0.08-0.06-0.15-0.09-0.23c-0.17-0.44-0.87-0.12-0.71,0.33c0.16,0.45,0.33,0.89,0.51,1.33c0.28,0.73,0.56,1.46,0.85,2.19
			c0.02,0.04,0.03,0.07,0.05,0.1c0.44,2.47,1.08,4.88,1.94,7.22c0.14,0.38,0.53,0.38,0.68,0.12c0.07,0.2,0.14,0.41,0.22,0.61
			c0.15,0.41,0.78,0.42,0.76-0.11c-0.02-0.53-0.04-1.05-0.06-1.58c0.1,0.43,0.2,0.85,0.3,1.28c0.11,0.45,0.75,0.38,0.76-0.09
			c0.04,0.12,0.07,0.23,0.11,0.35c0.14,0.42,0.8,0.41,0.76-0.11c-0.01-0.08-0.01-0.16-0.02-0.24c0.15,0.08,0.3,0.14,0.48,0.16
			C32.71,15.55,32.19,13.03,31.75,11.92z M27.51,11.42c0.03,0.05,0.06,0.09,0.09,0.14c0.01,0.32,0.02,0.64,0.04,0.96
			c-0.04-0.14-0.08-0.28-0.13-0.42C27.51,11.88,27.51,11.65,27.51,11.42z M29.23,9.87c0.02,0.27,0.04,0.54,0.06,0.81
			c-0.04-0.27-0.09-0.54-0.13-0.81C29.19,9.87,29.21,9.87,29.23,9.87z M26.71,5.37c0.09,0.19,0.17,0.38,0.24,0.57
			c0.01,0.05,0.02,0.1,0.03,0.15c-0.06-0.12-0.12-0.24-0.18-0.35C26.77,5.62,26.74,5.5,26.71,5.37z"/>
		<path class="st0" d="M32.18,11.77c-0.13-0.71-0.26-1.42-0.39-2.13c-0.05-0.29-0.28-0.36-0.47-0.28c-0.16-0.49-0.87-0.27-0.74,0.26
			c0.18,0.69,0.4,1.35,0.67,2l0.04,0.29c0.02,0.18,0.12,0.28,0.24,0.3C31.78,12.49,32.25,12.18,32.18,11.77z"/>
		<path class="st0" d="M30.81,4.42c-0.19-0.74-0.39-2.05-1.03-2.53c-0.7-0.53-2.01-0.15-2.78-0.05c-1.27,0.16-2.52,0.42-3.76,0.75
			c-0.48,0.13-0.28,0.96,0.21,0.83c0.75-0.2,1.51-0.39,2.27-0.52c0.82-0.15,2.06-0.53,2.9-0.34c1.73,0.38,1.89,4.2,1.96,5.78
			c0.03,0.55,0.8,0.56,0.77,0C31.3,7.01,31.14,5.7,30.81,4.42z"/>
		<path class="st0" d="M33.25,15.97c-0.15-0.5-0.27-1-0.37-1.51c-0.01-0.34-0.06-0.67-0.16-1.02c-0.1-0.36-0.42-0.38-0.61-0.2
			c-0.04-0.07-0.08-0.15-0.13-0.22c-0.15-0.24-0.54-0.32-0.67,0c-0.24,0.58-0.43,1.16-0.58,1.75c-0.13-0.02-0.26,0.01-0.34,0.12
			c0.3-0.42-0.78-0.76-0.96-0.71c-0.17,0.04-0.33,0.18-0.45,0.32c-0.09-0.08-0.21-0.11-0.31-0.08c-0.12-0.06-0.25-0.06-0.36-0.01
			c-0.08-0.18-0.16-0.35-0.24-0.52c0.03-0.79,0.06-1.59,0.09-2.38c0.02-0.56-0.75-0.56-0.77,0c-0.02,0.57-0.04,1.14-0.06,1.7
			c-0.23-0.12-0.53,0.07-0.55,0.39c-0.02,0.2-0.02,0.39-0.03,0.58c-0.02,0.04-0.03,0.08-0.04,0.12c-0.11,0.92-0.07,1.75,0.19,2.63
			c0.13,0.45,0.77,0.39,0.76-0.11c0-0.2,0-0.39,0.01-0.58c0.26,0.26,0.55,0.42,0.85,0.38c0.1,0.3,0.21,0.59,0.34,0.89
			c0.17,0.38,0.73,0.2,0.72-0.22c-0.02-0.59-0.09-1.14-0.21-1.69c0.08-0.2,0.18-0.38,0.35-0.39c0.04,0,0.16,0.35,0.25,0.38
			c0.2,0.06,0.37,0.16,0.52,0.19c0.03,0.08,0.07,0.15,0.1,0.23c0.14,0.33,0.65,0.25,0.71-0.1c0.05-0.27,0.1-0.52,0.16-0.78
			c0.27,0.42,0.56,0.82,0.89,1.2c0.08,0.1,0.2,0.13,0.3,0.12c0.01,0.01,0.03,0.02,0.04,0.03C32.96,16.68,33.36,16.31,33.25,15.97z"
			/>
		<path class="st0" d="M6.74,34.86c-1.27,3.99-2.23,8.07-2.88,12.24c-0.08,0.54,0.66,0.78,0.75,0.23c0.65-4.17,1.61-8.25,2.88-12.24
			C7.65,34.56,6.9,34.34,6.74,34.86z"/>
		<path class="st0" d="M6.6,46.67c-0.29,0.88-0.41,1.79-0.38,2.72c0.02,0.55,0.79,0.56,0.77,0c-0.03-0.86,0.09-1.68,0.35-2.49
			C7.52,46.37,6.77,46.15,6.6,46.67z"/>
		<path class="st0" d="M54.27,74.61c-0.1-0.54-0.85-0.31-0.75,0.23c1.09,5.92,1.23,11.97,0.39,17.94c-0.08,0.54,0.67,0.78,0.75,0.23
			C55.52,86.88,55.39,80.68,54.27,74.61z"/>
		<path class="st0" d="M57.51,87.57c-0.11-0.54-0.85-0.31-0.75,0.23c0.24,1.22,0.25,2.44,0.05,3.66c-0.09,0.54,0.65,0.78,0.75,0.23
			C57.79,90.31,57.77,88.94,57.51,87.57z"/>
		<path class="st0" d="M50.03,42.35c0.29-0.27,0.27-0.87-0.09-1c-0.34-3.85-0.81-7.69-1.45-11.51c-1.08-6.53-2.64-12.94-4.34-19.29
			c-0.14-0.53-0.89-0.31-0.75,0.23c2.69,10.06,4.77,20.19,5.75,30.61c-9.75,1-19.54,1.47-29.33,1.41c-0.42-3.66-0.91-7.3-1.51-10.94
			c-1.03-6.22-2.36-12.37-4.01-18.42c-0.14-0.53-0.89-0.3-0.75,0.23c5.82,21.33,7.38,43.72,7.2,65.92
			c-0.05,6.35-0.24,12.71-0.51,19.05c-0.02,0.56,0.75,0.55,0.77,0c0.39-9.26,0.62-18.56,0.48-27.85c3.35,0.17,6.69,0.2,10.04,0.11
			c2.12,0.16,4.25,0.09,6.38-0.23c0.15-0.02,0.28-0.07,0.4-0.13c3.81-0.3,7.61-0.77,11.39-1.4c-0.13,3.5-0.31,7.01-0.53,10.5
			c-0.41,6.51-0.94,13-1.47,19.49c-0.05,0.55,0.73,0.55,0.77,0C50.04,80.31,51.6,61.21,50.03,42.35z M27.76,52.91
			c0.05,0.09,0.09,0.19,0.14,0.28c-0.07,0.15-0.12,0.34-0.14,0.54c0,0.05-0.01,0.11-0.01,0.17c-0.05,0.01-0.09,0.03-0.14,0.05
			C27.65,53.6,27.7,53.25,27.76,52.91z M46.18,65.38c0.32,0.03,0.64,0.03,0.94-0.01c0.09-0.01,0.17-0.03,0.25-0.05
			c0,0.04,0,0.08,0,0.12c-0.4,0-0.79,0-1.19,0C46.17,65.42,46.17,65.4,46.18,65.38z M42.53,43.29c-0.52-0.02-1.03-0.03-1.55-0.05
			c0.56-0.04,1.12-0.08,1.67-0.12C42.62,43.18,42.57,43.23,42.53,43.29z M30.29,43.86c-0.1-0.02-0.2-0.03-0.3-0.05
			c0.11,0,0.21-0.01,0.32-0.01C30.3,43.82,30.29,43.84,30.29,43.86z M20.54,48.51c-0.02,0.34-0.03,0.67-0.04,1.01
			c-0.06-0.73-0.13-1.46-0.2-2.19C20.38,47.72,20.46,48.11,20.54,48.51z M21.23,58.52c0.01,0.04,0.02,0.07,0.03,0.11
			c-0.02,0.48-0.05,0.95-0.07,1.43c0,0.01,0,0.01,0,0.02c-0.04-0.84-0.08-1.68-0.13-2.52C21.11,57.88,21.17,58.2,21.23,58.52z
			 M26.03,69.72c0.01,0.02,0.03,0.04,0.05,0.05c-0.23,0-0.46-0.01-0.69-0.01C25.6,69.75,25.81,69.74,26.03,69.72z M20.06,43.94
			c-0.02,0.04-0.03,0.08-0.04,0.13c-0.02,0.02-0.03,0.04-0.04,0.05c-0.01-0.06-0.01-0.12-0.02-0.18
			C19.99,43.94,20.03,43.94,20.06,43.94z M49.58,68c-0.02,0-0.03,0-0.05,0.01c0.09-0.18,0.15-0.4,0.15-0.66
			c-0.01-1.13,0-2.25,0.03-3.38c0.05-0.06,0.1-0.12,0.15-0.19c-0.03,1.41-0.06,2.81-0.11,4.22C49.7,68,49.64,67.99,49.58,68z"/>
		<g>
			<path class="st1" d="M28.54,66.69c-0.18-0.1-0.34-0.24-0.47-0.42c-0.12-0.17-0.23-0.39-0.33-0.67c-0.1-0.27-0.18-0.55-0.23-0.85
				c-0.11-0.49-0.19-1.15-0.25-1.96c-0.01-0.19-0.03-0.53-0.04-1L27.19,61c0-0.23,0-0.46-0.01-0.71c-0.02-0.5,0-0.89,0.04-1.18
				c-0.03-0.13-0.04-0.26-0.05-0.39c-0.02-0.51,0.14-0.92,0.47-1.25c0.33-0.33,0.76-0.5,1.28-0.52c0.2-0.01,0.38,0.04,0.55,0.16
				c0.17,0.11,0.26,0.26,0.26,0.43c0,0.08-0.03,0.15-0.08,0.21c-0.06,0.05-0.13,0.08-0.22,0.09c-0.08,0-0.16-0.01-0.25-0.03
				c-0.09-0.02-0.14-0.06-0.17-0.11l-0.15,0.01l0-0.03c-0.28,0.01-0.51,0.09-0.7,0.23c-0.13,0.11-0.23,0.3-0.3,0.56
				c-0.03,0.09-0.05,0.21-0.06,0.36c-0.01,0.14-0.01,0.28-0.01,0.39c-0.01,0.07,0,0.2,0,0.41l0.04,0.44l0.03,0.43
				c0,0.13-0.01,0.27-0.03,0.45c-0.03,0.21-0.05,0.36-0.04,0.45l0.01,0.3c0.01,0.33,0.04,0.78,0.08,1.35
				c0.02,0.48,0.09,0.96,0.19,1.44c0.08,0.45,0.22,0.82,0.42,1.12c0.19,0.31,0.44,0.46,0.75,0.45c0.13-0.01,0.29-0.09,0.47-0.25
				c0.2-0.16,0.34-0.24,0.42-0.25c0.11,0,0.22,0.05,0.34,0.18c0.01,0.31-0.09,0.56-0.29,0.73c-0.19,0.16-0.42,0.27-0.69,0.32
				c-0.15,0.02-0.27,0.04-0.36,0.04C28.92,66.84,28.72,66.79,28.54,66.69z"/>
			<path class="st1" d="M32.31,66.62c-0.17-0.15-0.32-0.35-0.45-0.6c-0.23-0.45-0.42-1.07-0.55-1.85c-0.09-0.55-0.17-1.18-0.23-1.89
				l-0.03-0.67l-0.02-0.68c-0.01-0.22-0.03-0.49-0.04-0.8c-0.02-0.51-0.01-0.95,0.01-1.34c0.02-0.41,0.08-0.81,0.19-1.21
				c0.11-0.35,0.28-0.6,0.5-0.76c0.13-0.07,0.27-0.11,0.41-0.12c0.4-0.02,0.72,0.15,0.97,0.49c0.27,0.39,0.45,0.82,0.55,1.31
				c0.14,0.59,0.23,1.15,0.26,1.69c0.05,0.6,0.08,1.16,0.1,1.7L34,62.6c0,0.14-0.01,0.41-0.03,0.81c-0.02,0.31-0.03,0.58-0.02,0.8
				l0,0.05c-0.04,0.24-0.05,0.52-0.04,0.84c0.01,0.24-0.03,0.48-0.11,0.74c-0.08,0.26-0.2,0.48-0.36,0.66
				c-0.16,0.21-0.35,0.32-0.56,0.33C32.67,66.84,32.49,66.77,32.31,66.62z M33.25,65.65c0.08-0.28,0.14-0.62,0.17-1.03
				c0.03-0.4,0.05-0.86,0.06-1.37c0.01-0.22,0.01-0.5,0-0.85l-0.05-1.16c-0.03-0.46-0.09-1.02-0.19-1.7
				c-0.08-0.58-0.21-1.09-0.39-1.53c-0.08-0.21-0.18-0.37-0.3-0.48c-0.12-0.11-0.24-0.17-0.37-0.16c-0.19,0.01-0.32,0.18-0.4,0.51
				c-0.1,0.35-0.17,0.73-0.19,1.15c-0.03,0.45-0.04,0.88-0.04,1.28l0,0.42c0,0.12,0,0.28,0,0.48l0,0.05
				c0.02,0.57,0.09,1.26,0.23,2.08c0.16,1.12,0.36,1.91,0.61,2.37c0.16,0.29,0.32,0.43,0.49,0.42
				C33.03,66.13,33.15,65.96,33.25,65.65z"/>
			<path class="st1" d="M35.66,65.56c-0.03-0.98-0.12-2.54-0.27-4.69c-0.15-2.15-0.26-3.28-0.33-3.4c-0.01-0.24,0.07-0.42,0.23-0.55
				c0.06-0.04,0.14-0.08,0.25-0.12c0.11-0.03,0.21-0.05,0.3-0.06c0.05-0.01,0.14-0.02,0.28-0.02c0.17-0.01,0.3,0.02,0.38,0.08
				c0.08,0.06,0.12,0.17,0.12,0.33c0,0.09-0.03,0.16-0.08,0.21c-0.06,0.05-0.13,0.08-0.22,0.08l-0.11-0.01l-0.16,0.01
				c-0.21,0.01-0.32,0.06-0.31,0.15c0.01,0.44,0.06,1.01,0.14,1.72c0.06,0.59,0.11,1.15,0.15,1.68c0.05-0.02,0.15-0.05,0.3-0.09
				c0.15-0.04,0.26-0.07,0.33-0.07c0.08,0,0.16,0.03,0.22,0.11c0.06,0.08,0.1,0.17,0.1,0.27c0,0.12-0.04,0.2-0.14,0.26
				c-0.01,0.01-0.05,0.03-0.11,0.06c-0.06,0.03-0.13,0.05-0.22,0.07c-0.07,0.01-0.18,0.03-0.34,0.05l-0.12,0.01
				c0.02,0.51,0.08,1.19,0.18,2.06c0.1,0.91,0.15,1.6,0.17,2.06l-0.01,0.05l-0.01,0.03c0.01,0.03,0.01,0.09,0.02,0.16
				c0,0.11-0.03,0.2-0.09,0.26c-0.07,0.07-0.16,0.1-0.27,0.11C35.79,66.37,35.67,66.1,35.66,65.56z"/>
			<path class="st1" d="M38.66,65.44c-0.03-0.98-0.12-2.54-0.27-4.69c-0.15-2.15-0.26-3.28-0.33-3.4c-0.01-0.24,0.07-0.42,0.23-0.55
				c0.06-0.04,0.14-0.08,0.25-0.12c0.11-0.03,0.21-0.05,0.3-0.06c0.05-0.01,0.14-0.02,0.28-0.02c0.17-0.01,0.3,0.02,0.38,0.08
				c0.08,0.06,0.12,0.17,0.12,0.33c0,0.09-0.03,0.16-0.08,0.21c-0.06,0.05-0.13,0.08-0.22,0.08l-0.11-0.01l-0.16,0.01
				c-0.21,0.01-0.32,0.06-0.31,0.15c0.01,0.44,0.06,1.01,0.14,1.72c0.06,0.59,0.11,1.15,0.15,1.68c0.05-0.02,0.15-0.05,0.3-0.09
				c0.15-0.04,0.26-0.07,0.33-0.07c0.08,0,0.16,0.03,0.22,0.11c0.06,0.08,0.1,0.17,0.1,0.27c0,0.12-0.04,0.2-0.14,0.26
				c-0.01,0.01-0.05,0.03-0.11,0.06c-0.06,0.03-0.13,0.05-0.22,0.07c-0.07,0.01-0.18,0.03-0.34,0.05l-0.12,0.01
				c0.02,0.51,0.08,1.19,0.18,2.06c0.1,0.91,0.15,1.6,0.17,2.06l-0.01,0.05l-0.01,0.03c0.01,0.03,0.01,0.09,0.02,0.16
				c0,0.11-0.03,0.2-0.09,0.26c-0.07,0.07-0.16,0.1-0.27,0.11C38.8,66.25,38.68,65.98,38.66,65.44z"/>
			<path class="st1" d="M41.7,66.13c-0.13-0.04-0.2-0.15-0.2-0.35l-0.24-7.36c0-0.14-0.03-0.36-0.09-0.64
				c-0.06-0.26-0.09-0.47-0.1-0.64l0-0.04c0.12-0.24,0.21-0.4,0.27-0.47c0.11,0,0.25-0.03,0.42-0.07c0.16-0.04,0.3-0.06,0.42-0.07
				c0.12-0.01,0.24,0.03,0.36,0.11c0.12,0.08,0.18,0.17,0.18,0.28c0.01,0.25-0.16,0.39-0.51,0.4l-0.16,0.01
				c-0.05-0.01-0.1-0.01-0.16-0.01c-0.07,0-0.11,0.01-0.12,0.02c0.01,0.29,0.04,0.63,0.08,1.04l0.03,0.35l0.05,0.7
				c0.01,0.16,0,0.41-0.01,0.74l0,0.71l0.16-0.04c0.15-0.06,0.27-0.09,0.37-0.09c0.08,0,0.16,0.03,0.23,0.1
				c0.07,0.07,0.11,0.15,0.11,0.24c0,0.1-0.02,0.19-0.08,0.28c-0.05,0.08-0.12,0.13-0.21,0.13l-0.14-0.01l-0.15,0.01
				c-0.11,0-0.19,0.04-0.24,0.1l0.13,3.91l0.63-0.06c0.43-0.02,0.65,0.08,0.66,0.3l0,0.05c-0.04,0.1-0.12,0.19-0.24,0.26
				c-0.12,0.07-0.23,0.11-0.35,0.13l-0.37,0.03l-0.35,0.01C41.93,66.18,41.81,66.17,41.7,66.13z"/>
			<path class="st1" d="M44.85,66c-0.13-0.04-0.2-0.15-0.2-0.35l-0.24-7.36c0-0.14-0.03-0.36-0.09-0.64
				c-0.06-0.26-0.09-0.47-0.1-0.64l0-0.04c0.12-0.24,0.21-0.4,0.27-0.47c0.11,0,0.25-0.03,0.42-0.07c0.16-0.04,0.3-0.06,0.42-0.07
				c0.12-0.01,0.24,0.03,0.36,0.11c0.12,0.08,0.18,0.17,0.18,0.28c0.01,0.25-0.16,0.39-0.51,0.4l-0.16,0.01
				c-0.05-0.01-0.1-0.01-0.16-0.01c-0.07,0-0.11,0.01-0.12,0.02c0.01,0.29,0.04,0.63,0.08,1.04l0.03,0.35l0.05,0.7
				c0.01,0.16,0,0.41-0.01,0.74l0,0.71l0.16-0.04c0.15-0.06,0.27-0.09,0.37-0.09c0.08,0,0.16,0.03,0.23,0.1
				c0.07,0.07,0.11,0.15,0.11,0.24c0,0.1-0.02,0.19-0.08,0.28c-0.05,0.08-0.12,0.13-0.21,0.13l-0.14-0.01l-0.15,0.01
				c-0.11,0-0.19,0.04-0.24,0.1l0.13,3.91l0.63-0.06c0.43-0.02,0.65,0.08,0.66,0.3l0,0.05c-0.04,0.1-0.12,0.19-0.24,0.26
				c-0.12,0.07-0.24,0.11-0.35,0.13l-0.37,0.03l-0.35,0.01C45.09,66.06,44.96,66.04,44.85,66z"/>
		</g>
		<g>
			<path class="st1" d="M32.1,51.36c-0.4-1.35,0.25-3,1.19-4.08c1-1.14,2.3-1.7,3.6-1.65c0.02,0.09,0.07,0.17,0.16,0.2
				c0.12,0.05,0.22,0.1,0.32,0.16c0.15-0.16,0.31-0.31,0.49-0.44c-0.11-0.09-0.22-0.17-0.35-0.24c0-0.16-0.08-0.32-0.24-0.34
				c-1.91-0.24-3.93,0.85-5.09,2.87c-0.62,1.09-0.86,2.35-0.65,3.44C31.72,51.33,31.92,51.35,32.1,51.36z"/>
			<path class="st1" d="M38.25,45.96c-0.17,0.11-0.33,0.24-0.48,0.38c1.13,1.21,0.64,3.74-0.27,5.24c-1.08,1.77-3.47,2.21-4.77,0.86
				c-0.14-0.14-0.25-0.29-0.35-0.45c-0.22,0-0.45-0.02-0.67-0.05c0.25,0.65,0.68,1.2,1.32,1.56c1.94,1.09,4.31-0.04,5.34-2.4
				C39.11,49.4,39.24,47.21,38.25,45.96z"/>
			<path class="st1" d="M36.77,45.73c0.24,0.02,0.44,0.13,0.59,0.29c0.14-0.15,0.29-0.29,0.45-0.41c-0.25-0.31-0.57-0.52-1.01-0.56
				C36.45,45.03,36.42,45.7,36.77,45.73z"/>
			<path class="st1" d="M38.53,47.8c-0.08-0.59-0.21-1.22-0.44-1.73c-0.16,0.12-0.31,0.25-0.44,0.4c0.2,0.45,0.28,1.03,0.35,1.5
				C38.05,48.4,38.59,48.22,38.53,47.8z"/>
			<path class="st1" d="M32.55,50.93c-0.01,0.15-0.01,0.3,0,0.43c1.21-0.06,2.29-0.66,3.06-2.29c0.68-1.43,1.25-2.85,2.4-3.6
				c-0.3-0.25-0.66-0.4-1.09-0.42c-0.18-0.01-0.28,0.17-0.28,0.34c-0.69-0.33-1.87,0.35-2.46,1.1c-0.11,0.08-0.22,0.16-0.32,0.25
				c-0.25,0.14-0.49,0.36-0.7,0.63c-0.29,0.32-0.54,0.7-0.62,1.09C32.19,49.37,32.12,50.38,32.55,50.93z"/>
			<path class="st1" d="M38.39,45.88c-1.78,0.98-1.96,3.66-3.41,5.12c0.27,0.49,0.83,0.45,1.33,0.08c0.01,0.01,0.02,0.02,0.04,0.02
				c0,0.01-0.01,0.02-0.01,0.03c-0.07,0.21,0.08,0.42,0.24,0.42C39.04,51.6,39.64,47.64,38.39,45.88z M36.57,49.36
				c-0.01,0.01-0.01,0.01-0.02,0.02c-0.05,0.06-0.42,0.42-0.65,0.54c0.01-0.04,0.02-0.08,0.03-0.12c0.25-0.22,0.49-0.5,0.69-0.82
				c0.06-0.04,0.12-0.08,0.18-0.12C36.72,49.02,36.65,49.19,36.57,49.36z M37.01,50.84c0.06-0.18,0.12-0.36,0.18-0.53
				c-0.01,0.16-0.02,0.32-0.03,0.49C37.12,50.81,37.07,50.83,37.01,50.84z M38.27,47.97c0-0.28,0-0.56-0.02-0.84
				c-0.01-0.18-0.11-0.24-0.23-0.24c0.02-0.18,0.01-0.35-0.03-0.52c0.3,0.42,0.46,1.01,0.5,1.62
				C38.42,47.94,38.34,47.94,38.27,47.97z"/>
			<path class="st1" d="M32.88,51.98c0.07,0.04,0.15,0.06,0.25,0.06c0.04,0,0.07-0.01,0.11-0.01c0.09,0.08,0.23,0.08,0.35-0.03
				c0.06-0.05,0.11-0.11,0.15-0.17c0.01-0.01,0.03-0.03,0.04-0.04C33.47,51.89,33.18,51.95,32.88,51.98z"/>
			<path class="st1" d="M33.59,48.59c-0.16-0.03-0.32-0.06-0.48-0.08c-0.15-0.03-0.3,0.05-0.35,0.24c-0.04,0.16,0.03,0.39,0.17,0.41
				c0.16,0.03,0.32,0.06,0.48,0.08c0.15,0.03,0.3-0.05,0.35-0.24C33.81,48.84,33.74,48.62,33.59,48.59z"/>
			<path class="st1" d="M32.11,51.36c0.16,0.01,0.31,0.01,0.47,0c0.15-0.23,0.26-0.47,0.31-0.77c0.02-0.1,0-0.19-0.04-0.26
				c0.08-0.28,0.18-0.56,0.29-0.84c0.15-0.4-0.37-0.57-0.52-0.18c-0.23,0.58-0.4,1.18-0.53,1.8C32.07,51.21,32.08,51.29,32.11,51.36
				z"/>
			<path class="st1" d="M31.97,49.97c-0.06,0.29-0.08,0.58-0.05,0.86c0,0.03,0,0.06,0,0.1c0,0.04,0.01,0.07,0.03,0.1
				c0.02,0.11,0.05,0.22,0.09,0.33c1.42,0.1,2.7-0.43,3.57-2.28c0.05-0.12,0.11-0.23,0.16-0.34c0,0,0,0-0.01,0.01
				c-0.07,0.11-0.15,0.23-0.22,0.35c-0.06,0-0.12,0.02-0.19,0.04c-0.21,0.06-0.45,0.34-0.68,0.7c-0.41,0.01-0.78,0.59-0.94,1.18
				c-0.27-0.25-0.62-0.47-0.92-0.49c0.06-0.37,0.04-0.73-0.08-1.11c0-0.03,0.01-0.06,0.01-0.09c0.02-0.05,0.05-0.09,0.07-0.14
				c0.07-0.13,0.06-0.26,0.01-0.35c0.01-0.04,0.01-0.07,0.02-0.11c0.07-0.42-0.44-0.61-0.52-0.18c-0.03,0.2-0.07,0.39-0.1,0.59
				C32.1,49.4,32.02,49.68,31.97,49.97z"/>
			<path class="st1" d="M37.57,50.88c-0.1,0.08-0.2,0.16-0.3,0.24c0-0.01-0.01-0.02-0.01-0.03c-0.01-0.02-0.03-0.04-0.04-0.06
				c0.03-0.1,0.07-0.2,0.1-0.31c0.08-0.14,0.16-0.27,0.21-0.38c0.16-0.3-0.1-0.61-0.35-0.46c-0.19,0.12-0.37,0.24-0.55,0.37
				c0.23-0.57,0.41-1.15,0.56-1.77c0.08-0.34-0.22-0.54-0.44-0.33c-0.09,0.09-0.18,0.18-0.27,0.28c-0.43,0.96-0.85,1.95-1.58,2.64
				c-0.78,0.73-1.69,0.95-2.61,0.91c0.15,0.31,0.4,0.55,0.7,0.7c0.02,0.13,0.09,0.26,0.19,0.36c0.31,0.3,0.92,0.36,1.52,0.23
				c0.32-0.01,0.63-0.08,0.94-0.2c0.02,0.01,0.05,0.01,0.07,0.01c0.06,0.06,0.14,0.08,0.22,0.05c0.36-0.15,0.92-0.45,1.13-0.88
				c0.02-0.01,0.04-0.03,0.06-0.04c0.11,0.1,0.3,0.09,0.42-0.08c0.19-0.28,0.3-0.52,0.4-0.86C38.03,50.99,37.78,50.72,37.57,50.88z"
				/>
		</g>
	</g>
</g>
</svg>
