<?xml version="1.0" encoding="utf-8"?>
<!-- Generator: Adobe Illustrator 25.0.0, SVG Export Plug-In . SVG Version: 6.00 Build 0)  -->
<svg version="1.1" id="Layer_1" xmlns="http://www.w3.org/2000/svg" xmlns:xlink="http://www.w3.org/1999/xlink" x="0px" y="0px"
	 viewBox="0 0 100 100" style="enable-background:new 0 0 100 100;" xml:space="preserve">
<style type="text/css">
	.st0{fill:none;stroke:#FFFFFF;stroke-width:0.75;stroke-miterlimit:10;}
</style>
<path class="st0" d="M16.99,84.95h62.65V100H16.99V84.95z M99.73,34.51c-2.33,16.95-19.99,17.28-19.99,17.28l-0.31,31.26H17.26
	l-0.18-30.87c0,0-14.62-2.8-16.55-12.36c-1.35-6.67-0.58-16.52,7.89-23.02c13.97-10.74,26.31,1.75,26.31,1.75s0.07-4.94-8.88-8.09
	C30,1.96,51.42-6.01,63.25,6.43c9.76,10.26,10.12,19.16,8.34,24.8c4.47-5.32,3.99-15.25-1.93-22.04
	C86.36,4.55,102.3,15.81,99.73,34.51z M26.15,59.08c0,0,0.98,5.46,1.12,19.48C29.37,78.42,28.25,65.57,26.15,59.08z M35.99,44.03
	c0,0,2.94,15.5,2.8,25.68c-0.14,5.31,0.01,8.86,0.01,8.86h1.68C40.47,78.56,42.15,54.95,35.99,44.03z M51.91,78.56
	c0,0-0.98-36.16-5.46-45.46c0,0,3.87,28.34,3.55,45.46C51.21,78.56,51.91,78.56,51.91,78.56z M67.35,42.4c0,0-5.55,12.69-5.71,27.3
	c-0.06,5.31,0,8.86,0,8.86h1.68C63.32,78.56,63.12,56.51,67.35,42.4z M72.61,61.81c-2.1,5.58-3.22,16.62-1.12,16.75
	C71.63,66.51,72.61,61.81,72.61,61.81z"/>
</svg>
